<?xml version="1.0" encoding="utf-8"?>
<!-- Generator: Adobe Illustrator 19.0.0, SVG Export Plug-In . SVG Version: 6.00 Build 0)  -->
<svg version="1.1" id="Screens" xmlns="http://www.w3.org/2000/svg" xmlns:xlink="http://www.w3.org/1999/xlink" x="0px" y="0px"
	 viewBox="0 0 393 351" style="enable-background:new 0 0 393 351;" xml:space="preserve">
<style type="text/css">
	.st0{fill:none;stroke:#ECECEC;stroke-miterlimit:10;}
	.st1{fill:#A8A8A8;}
	.st2{fill:#ECECEC;}
	.st3{fill:#FFC800;}
	.st4{opacity:0.1;}
	.st5{fill:#C36358;}
	.st6{fill:#1A2E35;}
	.st7{fill:#2B454E;}
	.st8{fill:#FF9CBF;}
	.st9{fill:#C8C8C8;}
	.st10{fill:#FFFFFF;}
</style>
<g>
	<rect x="70.9" y="29" class="st0" width="311.2" height="212.1"/>
	<g>
		<circle class="st1" cx="88" cy="41.6" r="6.2"/>
		<circle class="st2" cx="113.5" cy="41.6" r="6.2"/>
		<circle class="st3" cx="139" cy="41.6" r="6.2"/>
	</g>
	<line class="st0" x1="70.9" y1="53.8" x2="382.1" y2="53.8"/>
</g>
<g>
	<ellipse class="st2" cx="192.5" cy="312.8" rx="175.3" ry="23"/>
</g>
<g>
	<g>
		<path class="st3" d="M81.1,322.7l166.6,0.7c40.5-31.8,44.7-78.9,15.8-107.5c-17.5-17.3-39.7-13.8-60.8-16.5c0,0,0,0-0.1,0
			c-7.4-1-14.6-2.7-21.4-6.3c-21.8-11.5-34-38.6-52.3-61.4c-2.3-2.9-4.7-5.6-7.2-8.3c-15.1-16.1-45-16.6-60.7,6
			C21.1,186.9,39.4,272.4,81.1,322.7z"/>
		<path class="st4" d="M77.4,191.3c4.4,68.3,83.3,93.9,132.6,73.4c42.9-17.8,28.8-58.4-7.3-65.2c0,0,0,0-0.1,0
			c-7.4-1-14.6-2.7-21.4-6.3c-21.8-11.5-34-38.6-52.3-61.4C101.5,117.6,74.2,141.2,77.4,191.3z"/>
	</g>
	<g>
		<g>
			<g>
				<path class="st5" d="M234.2,333.5c-2.6-0.9-60.6-47.3-61.7-50.5c-0.4-1.2,5.8-10,13.7-20.5c1.7-2.3,3.5-4.6,5.3-6.9
					c11.7-15.3,24.5-31.2,24.5-31.2l38.9,30.9l-25.6,30.4l-5.6,6.7c0,0,14.3,27.7,15.1,31.3C239.7,327.2,236.8,334.4,234.2,333.5z"
					/>
				<path class="st6" d="M234.2,333.5c-2.6-0.9-60.6-47.3-61.7-50.5c-0.3-1,3.7-7,9.5-14.9c8.4,10.1,37.9,40.1,45.9,44.1
					c5.1,2.6,4.1-2.5,2.2-7.4c3.9,7.8,8.3,16.8,8.7,18.7C239.7,327.2,236.8,334.4,234.2,333.5z"/>
			</g>
			<path class="st7" d="M294.3,195.7c-2.7,20.2-52.5,78.6-58.3,85.3c-0.8,1-1.3,1.5-1.3,1.5l-41.2-31.7l0.5-0.6l36.3-47.5
				c0,0-60,35-90.1,19.1c-13.5-7.1-23.5-19.8-23.5-19.8l39.2-20.9c0,0,10.8,3.5,17.8,2.5c23.9-3.5,77.4-23.8,90.2-23.3
				C280.2,161,296.7,177.2,294.3,195.7z"/>
			<path class="st6" d="M243.3,185.1c-1.4,1.4-2.5,3.2-3.7,4.8c-1.3,1.7-2.6,3.3-3.9,5c0,0,0,0,0,0.1c0.2-0.5,0.5-1,0.7-1.5
				c0.8-1.7,1.5-3.4,2.4-5c0.1-0.1-0.1-0.2-0.2-0.1c-1,1.6-2.1,3.1-3,4.8c-0.4,0.8-0.8,1.6-1.1,2.4c-0.2,0.4-0.4,0.9-0.6,1.3
				c-0.1,0.2-0.2,0.4-0.2,0.6c-0.6,0.8-1.1,1.6-1.7,2.4c-1.2,1.8-2.3,3.6-3.5,5.4c-0.1,0.1,0.1,0.2,0.2,0.1c1.3-1.7,2.7-3.2,3.9-4.8
				c1.3-1.7,2.5-3.4,3.7-5.1c1.2-1.7,2.3-3.4,3.5-5.1c1.2-1.7,2.6-3.4,3.6-5.2C243.4,185.1,243.4,185,243.3,185.1z"/>
		</g>
		<g>
			<g>
				<g>
					<path class="st6" d="M169.5,131.1c0,0.3-0.1,0.5-0.4,0.6c-0.6,0.1-1.3,0.2-2.1,0.3c-2.4-4.8-4.8-8.6-4.1-7.1
						c1,2.2,1.8,5.3,2,7.4c-0.9,0.1-3.1,0.4-4.2,0.6c-2.4-8.6-5.1-15-4.8-13c1.2,8.1,1,10.7,0.7,13.6c-10.2,1.4-23.5,3-33.2,4
						c-1.5-4.8-3-9.9-3.1-9.6c-1.1,2.9-1.1,6.9-0.8,10c-3.1,0.3-5.5,0.5-7.1,0.5c0,0-1.1-4-1.3-5.4c-0.6-3.4-0.5-6.9,0.2-10.3
						c0.7-3.5,2.2-6.7,3.6-9.9c0,0,0-0.1,0-0.1c0,0,0,0,0,0c1-2.2,1.6-4.4,2-6.6c0,0,0,0,0-0.1c0.3-1.6,0.4-3.2,0.4-4.9
						c-0.1-6,2.8-11.5,8.4-13.6c9.8-11,20.8-7.7,24.7-0.3c0.4,0.7,0.8,1.6,1.1,2.5l0,0c1.4,3.4,2.8,7.8,4,11.2c0,0,0,0,0,0
						c0,0,0,0,0,0l0,0c0.6,1.6,1.1,3,1.6,3.9C160.4,110.9,166.8,113.9,169.5,131.1z"/>
					<path class="st6" d="M123.3,89.4c-3.5,2.3-5.6,5.3-5.7,9.7c-0.1,2.6-0.1,5.1-0.8,7.6c-0.8,2.6-2.2,4.8-3.7,6.9
						c-2.3,3.5-3.9,6.9-3.9,11.2c0,4.4,0.6,9.5,2.5,13.5c0,0,0,0,0,0c-1.6-4-2.1-9.7-1.7-14.1c0.4-4.8,2.8-8.1,5.3-11.9
						c1.9-3.1,3.1-6.4,3.2-10.1c0.1-2.2-0.1-4.4,0.5-6.6c0.8-2.5,2.8-4.3,4.7-5.8C123.9,89.6,123.6,89.2,123.3,89.4z"/>
					<path class="st6" d="M163.9,111.1c-2.9-3.2-5.9-5.8-7.8-9.9c-1.7-3.7-2.9-7.7-4.6-11.4c0-0.1-0.1,0-0.1,0
						c2.8,6.6,3.8,13.5,8.7,18.8c2.7,2.9,5.3,5.6,7.2,9.2c2,3.8,3.1,7.8,3.6,12.1c0,0.2,0.2,0.1,0.2,0
						C171.2,122.8,168.5,116,163.9,111.1z"/>
				</g>
				<g>
					<path class="st6" d="M126.8,86.3c0,1.5-6.7,5.3-11.8,1.9c-5.1-3.4-3.5-10.9,3.3-10.5C122.6,77.8,126.8,83.2,126.8,86.3z"/>
					<path class="st6" d="M112.1,81.7c0.6-1.9,2-3.4,3.5-4.4c1.6-1,3.5-1.1,5.1-0.3c1.7,0.8,3,2.2,4,3.8c0.5,0.8,1,1.7,1.3,2.6
						c0.4,0.9,0.7,1.8,0.7,2.8c0.2-1,0-2-0.2-3c-0.3-1-0.6-1.9-1.1-2.8c-1-1.8-2.3-3.4-4.3-4.4c-1-0.5-2.1-0.7-3.1-0.6
						c-1.1,0.1-2.1,0.5-2.9,1.1C113.5,77.9,112.4,79.7,112.1,81.7z"/>
				</g>
			</g>
			<g>
				<path class="st5" d="M135.6,139.8c7.3,10.5,32.4,39.5,49.8,43.5c9.6,2.2,55.9,8.7,62.3,2.9c7.4-6.8,4-32.3-1.9-32.5
					c-18-0.7-51.4,2.8-59.8,1c-3.8-0.8-23.8-13.7-45.1-24.1C132.8,126.6,130.9,133,135.6,139.8z"/>
				<g>
					<g>
						<path class="st2" d="M153.5,165l7-25.8c0,0-11.7-6.5-18.8-9.2c-9.3-3.6-12.8-0.9-7.1,9.8C138.5,147.1,153.5,165,153.5,165z"/>
					</g>
					<g>
						<path class="st6" d="M151.8,161.8c0.8-3.8,1.6-7.6,2.6-11.4c0.5-1.9,1-3.8,1.6-5.6c0.5-1.9,1.3-3.7,1.8-5.5
							c0-0.1,0.2-0.1,0.2,0.1c-0.6,1.8-1,3.8-1.5,5.6c-0.5,1.9-1,3.8-1.5,5.6c-1,3.8-2,7.5-2.9,11.3
							C151.9,161.9,151.8,161.9,151.8,161.8z"/>
					</g>
					<path class="st6" d="M159.5,143.3l-5.9,21.7c0,0-15-18-18.8-25.2c-1.8-3.3-2.6-5.9-2.7-7.7L159.5,143.3z"/>
				</g>
			</g>
			<g>
				<path class="st2" d="M97.9,211.2c2.3,0.7,67.8-18.2,67.8-18.2l-7.7-22.8c0,0,3.8-7.3,2-14.4c-2.4-9.4-19.8-24.9-21.1-25.8
					c-5.5-3.6-10.6-3.6-15.2-1.2C104.8,139,97.9,211.2,97.9,211.2z"/>
				<path class="st6" d="M147.9,138.2c1.7,2,3.5,3.8,5.2,5.8c-0.8-1.4-1.6-2.9-2.5-4.3c0,0,0-0.1,0,0c1.3,1.7,2.4,3.4,3.3,5.3
					c1.3,1.5,2.5,3,3.6,4.6c1.3,2,2.4,4.1,3,6.3c0.6,2.3,0.6,4.7,0.2,7c-0.4,2.7-1.3,5.3-2.2,7.8c-0.1,0.3-0.6,0.1-0.5-0.2
					c1.2-4.4,2.6-9.1,1.6-13.8c-1-4.6-3.8-8.5-6.6-12.1c-1.7-2.2-3.4-4.4-5.3-6.4C147.7,138.3,147.8,138.2,147.9,138.2z"/>
				<g>
					<path class="st6" d="M137,168.5c2.8-0.5,5.7-0.9,8.5-0.9c1.4,0,2.8,0,4.3,0.1c0.7,0,1.4,0,2.1,0c0.7,0,1.5,0,2.2-0.2
						c0.1,0,0.1,0.1,0,0.1c-0.7,0.2-1.3,0.4-2,0.5c-0.7,0.1-1.4,0.2-2,0.2c-1.4,0-2.9,0-4.3,0.1c-2.9,0.1-5.8,0.1-8.7,0.4
						C136.9,168.8,136.8,168.6,137,168.5z"/>
					<path class="st6" d="M130.9,172.9c2.2-0.9,4.5-1.6,6.7-2.2c1.1-0.3,2.3-0.5,3.5-0.8c0.6-0.1,1.1-0.2,1.7-0.3
						c0.6-0.1,1.2-0.1,1.9-0.2c0.1,0,0.1,0.1,0,0.1c-0.6,0.1-1.1,0.3-1.7,0.5c-0.6,0.1-1.1,0.3-1.7,0.4c-1.1,0.3-2.3,0.6-3.4,0.9
						c-2.3,0.6-4.6,1.1-6.8,1.8C130.8,173.1,130.8,172.9,130.9,172.9z"/>
				</g>
			</g>
			<g>
				<g>
					<path class="st5" d="M127.8,130.2c0.3,1.2,5.8,9,11.2,8.8c1.8-0.1,1.9-9.7,1.9-9.7l0.2-0.7l2.4-9.9l-13.3-8.7
						C130.2,109.9,127.7,129.7,127.8,130.2z"/>
					<path class="st6" d="M143.4,118.6l-2.4,9.9c-2.8-1.1-8.9-4.3-11.7-11.9c0.4-3.4,0.8-6.3,0.8-6.7c0,0,0-0.1,0-0.1l1.7,1
						L143.4,118.6z"/>
				</g>
				<g>
					<path class="st5" d="M156.3,100.3c4.4,17.4-5.5,22-9.2,23c-3.4,0.9-15.1,3.4-21.3-13.5c-6.2-16.8,0.5-24.4,8.2-26.8
						C141.6,80.6,151.9,82.9,156.3,100.3z"/>
					<g>
						<path class="st6" d="M153.4,98.6c-0.4,0-0.8,0-1.2,0c-0.5,0-0.9,0-1.3-0.3c-0.2-0.2-0.3-0.5-0.1-0.8c0.3-0.5,0.9-0.6,1.5-0.6
							c0.6,0,1.1,0.2,1.6,0.5C154.2,97.8,153.9,98.6,153.4,98.6z"/>
						<path class="st6" d="M141.5,102.2c0.4-0.1,0.8-0.3,1.1-0.5c0.4-0.2,0.8-0.3,1.1-0.7c0.1-0.2,0.1-0.6-0.1-0.8
							c-0.5-0.4-1.1-0.3-1.6-0.1c-0.6,0.2-1,0.5-1.3,1.1C140.4,101.8,141,102.4,141.5,102.2z"/>
						<g>
							<g>
								<path class="st6" d="M144.5,104.4c0,0-0.1,0.1-0.1,0.1c0.3,1.2,0.4,2.6-0.6,3.2c0,0,0,0.1,0,0.1
									C145.1,107.3,145,105.5,144.5,104.4z"/>
								<path class="st6" d="M143.2,103.4c-2,0.2-1.3,4.1,0.5,3.9C145.4,107,144.8,103.1,143.2,103.4z"/>
							</g>
							<path class="st6" d="M142.4,103.7c-0.3,0.3-0.6,0.7-1,0.8c-0.5,0.1-0.9-0.2-1.3-0.6c0,0-0.1,0-0.1,0.1
								c0.1,0.7,0.5,1.5,1.3,1.4c0.7,0,1.2-0.8,1.2-1.5C142.7,103.8,142.6,103.6,142.4,103.7z"/>
						</g>
						<g>
							<g>
								<path class="st6" d="M151.6,102.9c0,0,0.1,0,0.1,0.1c0.2,1.2,0.5,2.6,1.7,2.8c0,0,0,0.1,0,0.1
									C152,105.9,151.5,104.1,151.6,102.9z"/>
								<path class="st6" d="M152.4,101.5c1.9-0.5,2.7,3.4,0.9,3.8C151.6,105.7,150.8,101.9,152.4,101.5z"/>
							</g>
							<path class="st6" d="M153.3,101.6c0.3,0.1,0.7,0.5,1.1,0.4c0.4-0.1,0.7-0.5,0.9-1c0,0,0.1,0,0.1,0c0.2,0.7,0.1,1.6-0.6,1.8
								c-0.6,0.3-1.2-0.3-1.5-1C153.1,101.7,153.2,101.5,153.3,101.6z"/>
						</g>
						<path class="st6" d="M145.9,114.6c0.3,0.3,0.6,0.6,1.1,0.6c0.4,0,0.9-0.2,1.3-0.4c0,0,0.1,0,0.1,0.1c-0.3,0.5-0.9,0.8-1.5,0.8
							c-0.6,0-0.9-0.5-1.1-1C145.7,114.6,145.8,114.6,145.9,114.6z"/>
						<g>
							<path class="st6" d="M150.3,109.1c0,0,0.5,1.8,0.6,2.6c0,0.1-0.2,0.1-0.5,0.2c0,0,0,0,0,0c-1.5,0.5-3.1,0.2-4.2-0.9
								c-0.1-0.1,0-0.2,0.1-0.1c1.2,0.7,2.5,0.7,3.9,0.5c0-0.2-1-3-0.9-3c0.5-0.1,1.4,0.1,2,0.2c-1-3.7-2.5-7.2-3.4-11
								c0-0.1,0.2-0.2,0.2-0.1c1.9,3.6,3.1,7.8,4.2,11.6C152.5,109.6,150.7,109.2,150.3,109.1z"/>
						</g>
						<g>
							<path class="st6" d="M150.4,111.6c0,0-0.5,1.3-1.6,2c-0.4,0.3-0.8,0.4-1.3,0.4c-1,0-1.3-0.9-1.3-1.7c0-0.7,0.1-1.3,0.1-1.3
								S148.1,112.1,150.4,111.6z"/>
							<path class="st8" d="M148.8,113.6c-0.4,0.3-0.8,0.4-1.3,0.4c-1,0-1.3-0.9-1.3-1.7C147.3,112.2,148.5,112.6,148.8,113.6z"/>
						</g>
					</g>
					<path class="st6" d="M127,111.1c1.9-0.6,5.4-7.2,3.1-16.4c0,0,1.5,8.4,1.2,9.8c-0.3,1.4,2-3.7,0.2-11.2c0,0,4.9,1.9,8.7,1.9
						c3.8,0,5.9-0.6,6.1-0.9c0.2-0.3-5.4-0.6-7.2-1.8c0,0,10.5,1.8,14.8,1c0.5-0.1-1.6-10.5-9.4-13c-7.8-2.6-17,4.9-19.1,8.4
						c0,0-3.2,1.4-5.5,7.2C117.6,102,125,111.7,127,111.1z"/>
					<g>
						<g>
							<path class="st3" d="M147.3,103.8c-1.1-3.1-4.6-4.7-7.6-3.5s-4.7,4.6-3.5,7.6c1,2.6,3.6,4.1,6.2,3.9c0.5,0,1-0.2,1.4-0.3
								c2.4-0.9,3.9-3.2,3.9-5.6C147.7,105.2,147.6,104.5,147.3,103.8z M143.5,110.7c-2.7,1-5.6-0.4-6.6-3.1c-1-2.7,0.4-5.6,3.1-6.6
								c0.4-0.1,0.8-0.3,1.2-0.3c2.3-0.2,4.5,1.1,5.4,3.3C147.6,106.7,146.2,109.7,143.5,110.7z"/>
							<path class="st3" d="M147.3,103.8c-1.1-3.1-4.6-4.7-7.6-3.5s-4.7,4.6-3.5,7.6c1,2.6,3.6,4.1,6.2,3.9c0.5,0,1-0.2,1.4-0.3
								c2.4-0.9,3.9-3.2,3.9-5.6C147.7,105.2,147.6,104.5,147.3,103.8z M143.5,110.7c-2.7,1-5.6-0.4-6.6-3.1c-1-2.7,0.4-5.6,3.1-6.6
								c0.4-0.1,0.8-0.3,1.2-0.3c2.3-0.2,4.5,1.1,5.4,3.3C147.6,106.7,146.2,109.7,143.5,110.7z"/>
						</g>
						<g>
							<path class="st3" d="M159.1,101.9c-0.4-1.5-1.1-2.9-2.1-3.8c-1.1-0.9-2.3-1.3-3.5-1.1c-1.2,0.3-2.1,1.1-2.7,2.4
								c-0.6,1.3-0.7,2.8-0.3,4.3c0.7,3,3,5.1,5.3,4.9c0.1,0,0.3,0,0.4-0.1C158.5,108.1,159.8,105.1,159.1,101.9z M155.9,107.9
								c-2,0.4-4.1-1.5-4.7-4.2c-0.3-1.4-0.2-2.7,0.3-3.8c0.5-1.1,1.2-1.8,2.1-2c0.1,0,0.2,0,0.3,0c0.8-0.1,1.7,0.2,2.5,0.9
								c0.9,0.8,1.6,2,1.9,3.4C158.9,104.8,157.8,107.4,155.9,107.9z"/>
							<path class="st3" d="M159.1,101.9c-0.4-1.5-1.1-2.9-2.1-3.8c-1.1-0.9-2.3-1.3-3.5-1.1c-1.2,0.3-2.1,1.1-2.7,2.4
								c-0.6,1.3-0.7,2.8-0.3,4.3c0.7,3,3,5.1,5.3,4.9c0.1,0,0.3,0,0.4-0.1C158.5,108.1,159.8,105.1,159.1,101.9z M155.9,107.9
								c-2,0.4-4.1-1.5-4.7-4.2c-0.3-1.4-0.2-2.7,0.3-3.8c0.5-1.1,1.2-1.8,2.1-2c0.1,0,0.2,0,0.3,0c0.8-0.1,1.7,0.2,2.5,0.9
								c0.9,0.8,1.6,2,1.9,3.4C158.9,104.8,157.8,107.4,155.9,107.9z"/>
						</g>
						<g>
							<path class="st3" d="M150.9,102.8l-0.4,0.7c-1.6-1.1-3.1,0.9-3.2,1l-0.6-0.5C147.4,103.1,149.2,101.6,150.9,102.8z"/>
							<path class="st3" d="M150.9,102.8l-0.4,0.7c-1.6-1.1-3.1,0.9-3.2,1l-0.6-0.5C147.4,103.1,149.2,101.6,150.9,102.8z"/>
						</g>
						<g>
							<path class="st3" d="M136.4,106.2c-3,0.4-11.2,1.5-12.4,2c-1.1,0.5-1.9,2.8-2.2,3.7l-0.8-0.2c0.1-0.4,1-3.5,2.6-4.2
								c1.6-0.6,12.2-2,12.6-2.1L136.4,106.2z"/>
							<path class="st3" d="M136.4,106.2c-3,0.4-11.2,1.5-12.4,2c-1.1,0.5-1.9,2.8-2.2,3.7l-0.8-0.2c0.1-0.4,1-3.5,2.6-4.2
								c1.6-0.6,12.2-2,12.6-2.1L136.4,106.2z"/>
						</g>
					</g>
					<g>
						<g>
							<path class="st5" d="M128.9,110.4c0,0-4.8-4.9-7.1-3.1c-2.3,1.8,1.9,9.3,5.1,9.9c3.1,0.6,3.7-2.3,3.7-2.3L128.9,110.4z"/>
							<path class="st6" d="M123.1,109.4C123,109.4,123.1,109.5,123.1,109.4c2.2,0.6,3.6,2.3,4.7,4.2c-0.7-0.7-1.6-0.9-2.5,0
								c0,0,0,0.1,0.1,0.1c0.8-0.3,1.5-0.3,2.1,0.3c0.5,0.4,0.9,1,1.2,1.5c0.1,0.2,0.4,0,0.3-0.2c0,0,0,0,0,0
								C128.6,112.6,126,109.2,123.1,109.4z"/>
						</g>
					</g>
				</g>
			</g>
			<g>
				<g>
					<path class="st5" d="M114.7,143.2c-9.4,28.8-7.6,51.7-2.9,55.2c12.5,9.3,47.1-1,56.7-2.7c3.9-0.7-9-31.4-13-30.2
						c-9.5,2.8-23,8-23.5,7.9c-1-0.2-1.1-8-3.1-30.7C127.3,124.3,118.6,131.4,114.7,143.2z"/>
					<g>
						<path class="st5" d="M154.4,165.9c0,0,15-6.1,23.2-8.3c4.6-1.3,12.7-2.7,16.5-2.1c5.7,0.9,28.8,8.4,27.1,14.1
							c-1.5,5.1-20.6-3.8-20.6-3.8s20.1,7.3,17.1,13.2c-3,5.8-23.2-7.2-23.2-7.2s20.4,8,16.4,13.5c-3,4.2-22-6.6-22-6.6
							s17.5,7,14.6,11.4c-3.3,4.9-21.4-3.9-21.4-3.9c-9.4,10-17.9,10.9-24.1,10.8C156.5,196.9,154.4,165.9,154.4,165.9z"/>
						<g>
							<path class="st6" d="M193.8,162.7c2.4,0.8,4.8,1.5,7.1,2.5c2.3,1,4.6,2.1,6.8,3.3c5.4,2.9,8.3,5.6,8.1,5.5
								c-4.7-3.5-12.9-7.1-15.2-8.1C198.4,164.8,196.1,163.7,193.8,162.7C193.7,162.7,193.8,162.6,193.8,162.7z"/>
							<path class="st6" d="M190.1,170.9c3,1.1,6,2.1,9,3.4c2.9,1.3,7,3.1,9.9,4.6c0.2,0.1,0.2,0.5-0.1,0.4
								c-2.9-1.3-7.1-3.1-10.1-4.4C195.9,173.6,193,172.2,190.1,170.9C190,171,190.1,170.9,190.1,170.9z"/>
							<path class="st6" d="M185.7,177.5c4.7,1.5,9.1,3.8,13.3,6.2c0.2,0.1,0,0.2-0.2,0.1c-4.4-2.2-7.8-3.9-13.2-6.2
								C185.5,177.6,185.6,177.4,185.7,177.5z"/>
							<path class="st6" d="M154.9,165.5c5.7-1.8,22.6-8.7,28.4-10.1c5.1-1.2,9.6-1.4,14.7,0c10.9,3.1,18.9,8.3,21,9.9
								c1.3,1,3.2,2.6,2.5,4.4c-0.9,2.2-6.6,2.1-13.7-1.1c-0.3-0.1-0.2-0.3,0.1-0.2c9.7,3.8,12.6,2.1,13.1,0.8
								c0.3-0.9-0.6-1.9-1.3-2.7c-1.1-1.1-2.6-2-3.9-2.8c-4.6-2.7-9.9-4.9-15-6.6c-5.8-1.9-11.5-2.3-17.5-0.9
								c-5.9,1.4-22.2,8.2-28.2,9.4C154.8,165.8,154.7,165.6,154.9,165.5z"/>
							<path class="st6" d="M217.8,176c-0.8-1.4-2.4-2.5-3.7-3.5c-1.6-1.2-3.3-2.4-5.1-3.3c-0.1,0-0.2,0.1-0.1,0.1
								c1.6,1,3.2,2.1,4.6,3.3c0.8,0.7,1.5,1.4,2.2,2.1c0.7,0.7,1.5,1.5,1.6,2.6c0.2,2-2.2,2.7-3.7,2.6c-1,0-2-0.2-3-0.4
								c-1-0.2-3-1-3.9-1.4c-0.1-0.1-0.3,0-0.2,0.1c2.7,1.3,7.9,4.2,10.6,1.6C218.3,178.8,218.6,177.3,217.8,176z"/>
						</g>
					</g>
				</g>
				<g>
					<g>
						<path class="st2" d="M106,168.3l25.3-8.5c0,0-1.1-13.4-2.8-20.7c-2.2-9.7-6.3-11.2-12.1-0.4C112.6,145.8,106,168.3,106,168.3z
							"/>
					</g>
					<g>
						<path class="st6" d="M107.8,165c3.6-1.5,7.2-2.9,10.9-4.2c1.8-0.6,3.7-1.2,5.5-1.8c1.9-0.6,3.8-1,5.6-1.6c0.1,0,0.1,0.1,0,0.2
							c-1.9,0.5-3.7,1.3-5.5,1.9c-1.8,0.6-3.7,1.2-5.5,1.9c-3.7,1.3-7.4,2.5-11,3.9C107.7,165.2,107.7,165,107.8,165z"/>
						<g>
							<g>
								<path class="st6" d="M109,167.2c-1,0.4-2,0.8-3,1.2l-0.4,0.1l0.1-0.4c0.4-1.6,0.8-3.2,1.3-4.8c0.5-1.6,1-3.2,1.5-4.8
									c0.5-1.6,1.1-3.1,1.6-4.7c0.6-1.6,1.2-3.1,1.9-4.6c-0.4,1.6-0.9,3.2-1.4,4.8c-0.5,1.6-0.9,3.2-1.4,4.8
									c-0.5,1.6-1,3.2-1.5,4.7c-0.5,1.6-1.1,3.1-1.6,4.7l-0.2-0.2C107,167.8,108,167.5,109,167.2z"/>
							</g>
							<g>
								<path class="st6" d="M110.4,152.4c0,0,0,0.3-0.1,0.7c0,0.4-0.1,1-0.2,1.6c-0.1,0.6-0.2,1.1-0.3,1.5
									c-0.1,0.4-0.2,0.7-0.2,0.7s0-0.3,0.1-0.7c0-0.4,0.1-1,0.2-1.6c0.1-0.6,0.2-1.1,0.3-1.5C110.3,152.7,110.4,152.4,110.4,152.4
									z"/>
							</g>
						</g>
						<g>
							<path class="st6" d="M128.3,160.8c0.3-0.1,2.8-1.1,3-1.1c-0.2-1.6-0.4-3.1-0.5-4.7c-0.1-0.8-0.1-1.6-0.2-2.4
								c-0.1-0.9-0.2-1.9-0.2-2.6c0-0.1,0.1-0.1,0.2,0c0.2,1,0.3,1.7,0.4,2.6c0.1,0.8,0.2,1.5,0.3,2.3c0.2,1.6,0.5,3.4,0.6,5
								C131.8,160,128.6,160.9,128.3,160.8C128.2,160.9,128.2,160.8,128.3,160.8z"/>
							<g>
								<path class="st6" d="M131.6,151.2c0,0,0,0.2,0,0.5c0,0.3,0,0.6-0.1,1c-0.1,0.4-0.1,0.7-0.2,1c-0.1,0.3-0.1,0.4-0.1,0.4
									s0-0.2,0-0.5c0-0.3,0-0.6,0.1-1c0.1-0.4,0.1-0.7,0.2-1C131.5,151.4,131.6,151.2,131.6,151.2z"/>
							</g>
						</g>
					</g>
				</g>
			</g>
			<g>
				<g>
					<g>
						<rect x="156.5" y="187.8" class="st9" width="69.5" height="3.1"/>
					</g>
					<g>
						<polygon class="st1" points="171.4,187.8 169,190.9 226.1,190.9 226.1,187.8 						"/>
					</g>
					<g>
						<polygon class="st9" points="174.4,190.9 242.2,190.9 247.8,144.9 180,144.9 						"/>
						<path class="st10" d="M207,167.9c0,2.3,1.8,4.1,4.1,4.1c2.3,0,4.2-1.8,4.2-4.1c0-2.3-1.8-4.1-4.1-4.1
							C208.9,163.8,207,165.7,207,167.9z"/>
					</g>
				</g>
				<g>
					<path class="st5" d="M247.3,149.4c2.6,3.9,8.9,8.6,9.7,11.9c0.8,3.1-1.7,4.5-1.7,4.5s3.7,1.3,3.9,4.5c0.1,1.6-2.4,3.3-2.4,3.3
						s2.9,1.1,3,4c0.1,2.3-2.5,3.6-2.5,3.6s2.3,2.4,1.6,4.7c-1.4,4.7-20.8,7.3-24.7,0.6c-1.8-3.1,2.9-3.5,2.9-3.5s-7-1.1-7.6-5.1
						c-0.6-4,5.6-4.1,5.6-4.1s-6.8-1.2-7-5.3c-0.2-4.4,6-3.4,6-3.4s-4.7-2.4-4.1-5.6c0.9-5.4,12,0.3,16.1-1.2L247.3,149.4z"/>
					<g>
						<path class="st6" d="M257.1,181.5C257.1,181.4,257.1,181.5,257.1,181.5c-6.1,2.5-13.7,3.2-20.1,1.5c-0.2-0.1-0.2-0.4,0-0.4
							C244,183.1,250.2,182.9,257.1,181.5z"/>
						<path class="st6" d="M257,173.6c0.1,0,0.1,0.1,0,0.1c-6.4,2.4-14.9,3-22.1,0.2c-0.2-0.1-0.4-0.4-0.1-0.3
							C239.8,175.1,250.8,175,257,173.6z"/>
						<path class="st6" d="M233.7,164.6c7,2.4,14.1,2.4,21.4,1.3c0.1,0,0.1,0.1,0,0.2c-3.4,1.5-8.1,1.7-11.8,1.6
							c-3.5-0.1-6.7-1-9.7-2.8C233.5,164.8,233.6,164.6,233.7,164.6z"/>
					</g>
				</g>
			</g>
		</g>
		<g>
			<g>
				<g>
					<path class="st5" d="M384.7,280.9c-1,2.6-47.5,60.5-50.7,61.6c-1.2,0.4-10-5.9-20.5-13.8c-2.3-1.7-4.6-3.5-6.9-5.3
						c-15.2-11.8-31.2-24.6-31.2-24.6l31-38.8l30.3,25.7l6.7,5.6c0,0,27.8-14.2,31.4-15C378.4,275.4,385.7,278.3,384.7,280.9z"/>
					<path class="st6" d="M384.8,280.9c-1,2.6-47.5,60.5-50.7,61.6c-1,0.4-7.9-4.4-16.6-10.9c8.9-6.5,42.6-36.9,47.2-45.1
						c2.4-4.3-1.1-4.3-5.4-3.1c7-3.4,13.9-6.7,15.6-7.1C378.4,275.4,385.7,278.3,384.8,280.9z"/>
				</g>
				<g>
					<path class="st7" d="M335.2,279.8l-32.3,43.6l-109-75.7l-10.5-7.3c0,0-3,2-7.5,4.5c-6.2,3.4-15.3,7.8-23.4,9
						c-13.5,2-36.1,1.8-47.5-13.5c-9.6-12.8-4.4-29.6-4.4-29.6l14.9-6.4c0,0,35.2-29.3,58-30.2c9.7-0.4,23.8,6.9,36.8,14.6
						C223.2,196.5,335.2,279.8,335.2,279.8z"/>
					<path class="st6" d="M183.3,240.4c0,0-3,2-7.5,4.5c-7.9-9.5-24.7-26.7-25.2-27.3L183.3,240.4z"/>
					<path class="st6" d="M128.3,194.6c-2.1,1.5-4.1,3-6.2,4.5c-2,1.5-4.1,2.9-6.1,4.5c-2,1.6-3.8,3.4-5.7,5.1
						c-0.9,0.9-1.8,1.7-2.7,2.6c-0.9,0.9-1.8,1.7-2.5,2.7c-0.1,0.1,0.1,0.2,0.2,0.1c1-0.6,1.9-1.5,2.8-2.3c1-0.8,2-1.7,2.9-2.5
						c1.9-1.6,3.8-3.2,5.7-4.8c1.9-1.6,3.6-3.4,5.5-5C124.2,197.9,126.3,196.3,128.3,194.6C128.4,194.6,128.3,194.6,128.3,194.6z"/>
					<path class="st6" d="M327.6,278.2c-2.1,2.3-4,4.7-6,7.1c-2,2.4-3.9,4.8-5.8,7.2c-3.9,4.8-7.8,9.7-11.6,14.6
						c-2.1,2.7-4.2,5.4-6.1,8.2c-0.1,0.1,0.1,0.3,0.2,0.2c4.2-4.6,8-9.5,11.8-14.3c3.9-4.8,7.7-9.7,11.5-14.6
						c2.1-2.7,4.2-5.4,6.1-8.2C327.9,278.2,327.7,278.1,327.6,278.2z"/>
					<path class="st6" d="M238.1,278.6c-5.4-4.3-11.1-8.3-16.7-12.3c-5.6-4-11.2-8-16.9-11.9c-1.6-1.1-3.3-2.2-4.9-3.3
						c-1.6-1.1-3.3-2.1-5-3.2c-0.1-0.1-0.2,0.1-0.1,0.2c1.5,1.1,2.9,2.2,4.3,3.3c1.4,1,2.8,2.1,4.2,3.1c2.7,2,5.5,4,8.2,6
						c5.6,4,11.2,8,16.9,11.9c3.2,2.2,6.4,4.4,9.7,6.5C238.1,279.1,238.3,278.8,238.1,278.6z"/>
					<path class="st6" d="M273,233.7c-5-4.2-10.4-7.9-15.6-11.7c-5.3-3.9-10.6-7.8-15.9-11.7c-5.3-3.8-10.6-7.7-15.9-11.5
						c-5.1-3.7-10.2-7.5-15.7-10.8c-3-1.8-6-3.5-9.1-5c-3-1.5-6.2-2.9-9.4-3.9c-0.1,0-0.2,0.1-0.1,0.2c2.7,1.5,5.5,2.7,8.2,4.2
						c2.7,1.4,5.3,2.9,7.9,4.5c5.4,3.3,10.5,7,15.6,10.6c10.6,7.6,21.2,15.3,31.9,22.8c6,4.2,11.8,8.6,18,12.5
						C273,234.1,273.2,233.8,273,233.7z"/>
				</g>
			</g>
		</g>
	</g>
</g>
</svg>
