<?xml version="1.0" encoding="utf-8"?>
<!-- Generator: Adobe Illustrator 19.0.0, SVG Export Plug-In . SVG Version: 6.00 Build 0)  -->
<svg version="1.1" id="Слой_1" xmlns="http://www.w3.org/2000/svg" xmlns:xlink="http://www.w3.org/1999/xlink" x="0px" y="0px"
	 viewBox="0 0 971.3 500" style="enable-background:new 0 0 971.3 500;" xml:space="preserve">
<style type="text/css">
	.st0{fill:#322E31;}
	.st1{fill:url(#XMLID_7_);}
	.st2{fill:url(#XMLID_8_);}
	.st3{fill:url(#XMLID_9_);}
	.st4{fill:url(#XMLID_10_);}
	.st5{fill:#FFFFFF;}
</style>
<rect id="XMLID_6_" x="0" class="st0" width="971.3" height="500"/>
<linearGradient id="XMLID_7_" gradientUnits="userSpaceOnUse" x1="624.2574" y1="38.5384" x2="331.6999" y2="169.814">
	<stop  offset="0.2298" style="stop-color:#312D31"/>
	<stop  offset="1" style="stop-color:#1D5582"/>
</linearGradient>
<path id="XMLID_4_" class="st1" d="M628.4,91.3c-8,21.2-33.1,36.7-61.1,40.1c-25.6,3.2-60.1-9.8-78.1-23.1
	c-17.8-13.2-23.7-36.1-22.6-51.8s23.5-42.2,81.7-42.2s77.1,33.8,77.1,33.8C632,62.1,633.7,77.2,628.4,91.3z"/>
<linearGradient id="XMLID_8_" gradientUnits="userSpaceOnUse" x1="372.9564" y1="433.9537" x2="783.052" y2="-276.3527">
	<stop  offset="0.2298" style="stop-color:#312D31"/>
	<stop  offset="1" style="stop-color:#1D5582"/>
</linearGradient>
<path id="XMLID_3_" class="st2" d="M971.3,0v209.7c-15.4,0.9-35.5-28.4-58.8-51.8c-28.4-28.4-50.8,13-54.4,44.3
	c-3.5,31.3,9.5,62.2,23,91.8c8.8,19.4,18.1,39.7,14.4,60c-3.7,20.4-25.1,40.4-51.7,39.6c-31.1-1-50.3-27.6-79.8-35.2
	c-8.4-2.2-16.9-2.6-25.1-1.7c-28.9,3.2-55.4,23.2-68.6,44.8c-17,27.8-21.8,59.7-42.6,86c-3.5,4.4-7.7,8.6-12.6,12.5H-0.6V250.9
	c28.7,20,75.3,23.8,108.1,7.5c64.4-31.9,55.3-113.9,117.1-148.9c39.3-22.3,94.9-17.3,139.4-2.1c44.5,15.3,83.2,39.4,127.6,54.9
	c44.4,15.5,99.7,21.1,139.6-0.4c36.2-19.5,53.6-90.8,109.8-117.4S891.3,67.4,971.3,0L971.3,0z"/>
<linearGradient id="XMLID_9_" gradientUnits="userSpaceOnUse" x1="418.254" y1="507.9437" x2="298.3173" y2="195.4979">
	<stop  offset="0.2298" style="stop-color:#312D31"/>
	<stop  offset="1" style="stop-color:#1D5582"/>
</linearGradient>
<path id="XMLID_2_" class="st3" d="M739,356.7c-28.9,3.2-55.4,23.2-68.6,44.8c-17,27.8-21.8,59.7-42.6,86
	c-3.5,4.4-7.7,8.6-12.6,12.5H-0.6v-71.4c20.6-1.5,42.1-1.1,62.6-2.4c50.4-3.1,99.4-17.8,139.5-41.5c23.2-13.8,50.4-31.7,77.8-23.9
	c19.1,5.4,30.3,22.1,49.8,26.8c19.3,4.6,39.4-4.2,55.9-13.3c26.6-14.6,51.6-31,74.7-48.7c18.4-14.1,39-30.3,64.9-29.5
	c19.2,0.6,35.5,10.6,53.7,15.4c26.7,7,57.1,2.1,80.7-9.7c20.9-10.4,41.4-27.4,50.8-45.4c0.9-1.7,1.7-3.3,2.6-4.8
	c0.2-0.4,0.5-0.8,0.8-1.2c1-1.5,2.2-2.9,3.8-3.7h0c0.5-0.3,1-0.5,1.5-0.7c0.7-0.2,1.6-0.4,2.5-0.4h0c0.6,0,1.3,0,2.1,0.1
	c0.6,0.1,1.2,0.2,1.8,0.3c0.9,0.2,1.9,0.5,2.9,0.8c0.6,0.2,1.1,0.4,1.6,0.6c0.5,0.3,1.1,0.5,1.5,0.8c0.1,0.1,0.2,0.1,0.3,0.2
	c1.9,1.1,3.4,2.5,4.4,4.1l0,0c0.7,1,1.2,2.1,1.5,3.3c0,0.1,0.1,0.2,0.1,0.3c0.4,1.4,0.6,2.9,0.6,4.4c0,0.8,0,1.5-0.1,2.3
	c-0.3,3.5-1.4,7.1-2.5,10.1c-2.6,6.9-5.9,14.1-3.8,21.2c3,10.3,16.4,17,21.1,26.8C758.5,333,749.8,346.3,739,356.7z"/>
<linearGradient id="XMLID_10_" gradientUnits="userSpaceOnUse" x1="189.4453" y1="120.7193" x2="-85.1115" y2="230.358">
	<stop  offset="0.2298" style="stop-color:#312D31"/>
	<stop  offset="1" style="stop-color:#1D5582"/>
</linearGradient>
<path id="XMLID_1_" class="st4" d="M118.6,154.2c-4.7,4.5-10.8,8-15.8,12.3c-11.1,9.8-13.4,21.1-12,34.3c0.5,4.4,1,8.8-0.4,13
	c-2.8,8.1-13,13.4-23.7,14.9c-0.5,0.1-1,0.2-1.6,0.2c-20.5,2.6-44.4-2.8-61.7-12.7c-1.2-0.7-2.4-1.4-3.6-2.2v-72.3
	c9.8-8.6,22.2-15.4,36-19.9c23.2-7.5,79.9-12.8,88.9,15.9C126.7,143.8,123.4,149.7,118.6,154.2z"/>
<g id="XMLID_58_">
	<path id="XMLID_513_" class="st5" d="M143.5,487.9c0-0.1-0.1-0.1-0.1-0.2c0-0.1-0.1-0.1-0.2-0.1c0,0,0-0.1-0.1-0.1
		c0,0-0.1-0.1-0.1-0.1c-0.1,0-0.1-0.1-0.2-0.1c-0.1,0-0.1,0-0.2,0c-0.1,0-0.1,0-0.2,0c0,0-0.1,0-0.1,0c-0.1,0-0.2,0-0.3,0
		c-0.1,0-0.2,0.1-0.2,0.1c-0.1,0.1-0.2,0.1-0.3,0.2c0,0-0.1,0.1-0.1,0.1c-0.1,0.1-0.1,0.2-0.1,0.2c0,0.1,0,0.2,0,0.3
		c0,0.1,0.1,0.1,0.1,0.2c0.1,0.1,0.2,0.2,0.3,0.2c0.1,0,0.1,0.1,0.2,0.1c0.1,0.1,0.3,0.1,0.4,0.1c0.1,0,0.3,0,0.4,0
		c0.1,0,0.3-0.1,0.4-0.1c0.1-0.1,0.2-0.1,0.3-0.2c0-0.1,0.1-0.1,0.1-0.2C143.6,488.2,143.6,488,143.5,487.9z"/>
	<path id="XMLID_512_" class="st5" d="M126.4,490.6c-0.1-0.1-0.1-0.2-0.2-0.3c0,0-0.1-0.1-0.1-0.1c0,0-0.1,0-0.1,0c0,0-0.1,0-0.1,0
		c0,0-0.1,0-0.1,0.1c-0.1,0.1-0.1,0.2-0.2,0.3c-0.1,0.1-0.1,0.3,0,0.4c0.1,0.1,0.3,0.2,0.4,0.2c0.2,0,0.4-0.1,0.4-0.2
		C126.5,490.9,126.5,490.7,126.4,490.6z"/>
	<path id="XMLID_511_" class="st5" d="M132.3,481.5c-0.5,0-0.5,0.6,0,0.6C132.8,482.1,132.8,481.5,132.3,481.5z"/>
	<path id="XMLID_510_" class="st5" d="M136.7,470.2c-0.5,0-0.5,0.6,0,0.6C137.2,470.8,137.2,470.2,136.7,470.2z"/>
	<path id="XMLID_509_" class="st5" d="M141.1,464.6c-0.5,0-0.5,0.6,0,0.6C141.6,465.2,141.6,464.6,141.1,464.6z"/>
	<path id="XMLID_508_" class="st5" d="M131.9,461.3c-0.4,0-0.4,0.5,0,0.5C132.3,461.8,132.3,461.3,131.9,461.3z"/>
	<path id="XMLID_507_" class="st5" d="M136.7,459.4c-0.5,0-0.5,0.5,0,0.5C137.2,459.9,137.2,459.4,136.7,459.4z"/>
	<path id="XMLID_506_" class="st5" d="M104,483.1c-1.6,0-1.6,1.9,0,1.9C105.6,485,105.6,483.1,104,483.1z"/>
	<path id="XMLID_505_" class="st5" d="M92.8,481.7c-1.4,0-1.4,1.6,0,1.6C94.1,483.4,94.1,481.7,92.8,481.7z"/>
	<path id="XMLID_504_" class="st5" d="M105,471.2c-1.4,0-1.4,1.7,0,1.7C106.4,472.9,106.4,471.2,105,471.2z"/>
	<path id="XMLID_503_" class="st5" d="M104,467.5c-1.3,0-1.3,1.5,0,1.5C105.3,469,105.3,467.5,104,467.5z"/>
	<path id="XMLID_502_" class="st5" d="M98.1,476.7c-2.2,0-2.2,2.6,0,2.6C100.3,479.3,100.3,476.7,98.1,476.7z"/>
	<path id="XMLID_501_" class="st5" d="M604.5,477.5c-0.1-0.1-0.3-0.2-0.5-0.3c-0.1-0.1-0.3-0.2-0.5-0.3c-0.1-0.1-0.3-0.1-0.4-0.2
		c-0.2-0.1-0.5-0.2-0.8-0.2c-0.3,0-0.6,0-0.9,0c-0.2,0.1-0.3,0.1-0.5,0.2c-0.3,0.1-0.5,0.2-0.6,0.4c-0.1,0.1-0.2,0.2-0.3,0.4
		c-0.1,0.2-0.2,0.4-0.2,0.6c0,0.1,0.1,0.3,0.1,0.4c0.1,0.2,0.1,0.3,0.3,0.4c0,0,0,0,0,0c0,0.2,0.1,0.5,0.3,0.7
		c0.2,0.3,0.5,0.5,0.9,0.7c0.4,0.2,0.8,0.3,1.3,0.3c0.3,0,0.7,0,1-0.2c0.3-0.1,0.6-0.2,0.8-0.4c0.3-0.2,0.5-0.5,0.6-0.8
		C605.4,478.7,605.1,478,604.5,477.5z"/>
	<path id="XMLID_500_" class="st5" d="M580.7,475.1c-1.4,0-1.4,1.7,0,1.7C582.1,476.8,582.1,475.1,580.7,475.1z"/>
	<path id="XMLID_499_" class="st5" d="M597.7,466.2c-1.1,0-1.1,1.3,0,1.3C598.8,467.5,598.8,466.2,597.7,466.2z"/>
	<path id="XMLID_498_" class="st5" d="M598.4,463.1c-0.7,0-0.7,0.8,0,0.8C599.1,463.9,599.1,463.1,598.4,463.1z"/>
	<path id="XMLID_497_" class="st5" d="M591,468.3c-1.4,0-1.4,1.7,0,1.7C592.4,470,592.4,468.3,591,468.3z"/>
	<path id="XMLID_496_" class="st5" d="M585.9,461.1c-1.2,0-1.2,1.4,0,1.4C587,462.5,587,461.1,585.9,461.1z"/>
	<path id="XMLID_495_" class="st5" d="M595.5,449.9c-0.9,0-0.9,1.1,0,1.1C596.4,451,596.4,449.9,595.5,449.9z"/>
	<path id="XMLID_494_" class="st5" d="M594.7,437.9c-1,0-1,1.2,0,1.2C595.7,439.1,595.7,437.9,594.7,437.9z"/>
	<path id="XMLID_493_" class="st5" d="M568.9,479.3c-2.9,0-2.9,3.5,0,3.5C571.8,482.8,571.8,479.3,568.9,479.3z"/>
	<path id="XMLID_492_" class="st5" d="M200,249.6c0-0.2,0-0.3-0.1-0.5c-0.1-0.2-0.2-0.3-0.4-0.4c-0.2-0.1-0.3-0.2-0.5-0.3
		c-0.2-0.1-0.4-0.1-0.7-0.1c-0.2,0-0.3,0-0.5,0c-0.3,0.1-0.5,0.2-0.8,0.3l-0.3,0.3c-0.2,0.2-0.2,0.4-0.2,0.7c0,0.2-0.1,0.4-0.1,0.5
		c0,0.2,0,0.4,0.2,0.5c0.1,0.2,0.2,0.3,0.4,0.4c0.2,0.1,0.4,0.2,0.6,0.3c0.2,0.1,0.4,0.1,0.7,0.1c0.2,0,0.3,0,0.5,0
		c0.3-0.1,0.6-0.2,0.8-0.4c0.1-0.1,0.2-0.2,0.3-0.3c0.2-0.2,0.2-0.4,0.2-0.7C200.1,250,200,249.8,200,249.6z"/>
	<path id="XMLID_491_" class="st5" d="M185.7,243.6c-1.5,0-1.5,1.8,0,1.8C187.2,245.4,187.2,243.6,185.7,243.6z"/>
	<path id="XMLID_490_" class="st5" d="M200.5,238.1c-1.2,0-1.2,1.5,0,1.5C201.7,239.6,201.7,238.1,200.5,238.1z"/>
	<path id="XMLID_489_" class="st5" d="M192.4,229.3c-0.8,0-0.8,0.9,0,0.9C193.2,230.2,193.2,229.3,192.4,229.3z"/>
	<path id="XMLID_488_" class="st5" d="M189.4,223.1c-0.7,0-0.7,0.8,0,0.8C190.1,223.9,190.1,223.1,189.4,223.1z"/>
	<path id="XMLID_487_" class="st5" d="M203.5,218.7c-1.5,0-1.5,1.8,0,1.8C204.9,220.4,204.9,218.7,203.5,218.7z"/>
	<path id="XMLID_486_" class="st5" d="M194.6,215.3c-1.5,0-1.5,1.8,0,1.8C196.1,217,196.1,215.3,194.6,215.3z"/>
	<path id="XMLID_485_" class="st5" d="M262.5,147.6c-1.7,0-1.7,2,0,2C264.2,149.7,264.2,147.6,262.5,147.6z"/>
	<path id="XMLID_484_" class="st5" d="M241.1,148.3c-1.5,0-1.5,1.8,0,1.8C242.7,150.1,242.7,148.3,241.1,148.3z"/>
	<path id="XMLID_483_" class="st5" d="M249.2,135c-0.9,0-0.9,1.1,0,1.1C250.2,136.1,250.2,135,249.2,135z"/>
	<path id="XMLID_482_" class="st5" d="M248.5,128.7c-1.1,0-1.1,1.3,0,1.3C249.6,130,249.6,128.7,248.5,128.7z"/>
	<path id="XMLID_481_" class="st5" d="M38.8,303.9c-3.2,0-3.2,3.8,0,3.8C42,307.7,42,303.9,38.8,303.9z"/>
	<path id="XMLID_480_" class="st5" d="M31.5,321.8c-1.6,0-1.6,1.9,0,1.9C33.1,323.7,33.1,321.8,31.5,321.8z"/>
	<path id="XMLID_479_" class="st5" d="M25.6,313.4c-0.5,0-0.5,0.6,0,0.6C26,314,26,313.4,25.6,313.4z"/>
	<path id="XMLID_478_" class="st5" d="M39.6,317.3c-1.6,0-1.6,1.9,0,1.9C41.2,319.2,41.2,317.3,39.6,317.3z"/>
	<path id="XMLID_477_" class="st5" d="M54.3,320.8c-1.4,0-1.4,1.7,0,1.7C55.8,322.5,55.8,320.8,54.3,320.8z"/>
	<path id="XMLID_476_" class="st5" d="M39.6,310.6c-1.4,0-1.4,1.7,0,1.7C41,312.3,41,310.6,39.6,310.6z"/>
	<path id="XMLID_475_" class="st5" d="M58.8,310.5c-1.5,0-1.5,1.8,0,1.8C60.3,312.3,60.3,310.5,58.8,310.5z"/>
	<path id="XMLID_474_" class="st5" d="M124.5,295.7c-1.7,0-1.7,2.1,0,2.1C126.2,297.7,126.2,295.7,124.5,295.7z"/>
	<path id="XMLID_473_" class="st5" d="M120,304.7c-1.9,0-1.9,2.2,0,2.2C121.9,306.9,121.9,304.7,120,304.7z"/>
	<path id="XMLID_472_" class="st5" d="M134.1,299.8c-1.5,0-1.5,1.8,0,1.8C135.6,301.6,135.6,299.8,134.1,299.8z"/>
	<path id="XMLID_471_" class="st5" d="M209.4,310.6c-1.4,0-1.4,1.7,0,1.7C210.8,312.3,210.8,310.6,209.4,310.6z"/>
	<path id="XMLID_470_" class="st5" d="M179.8,298.5c-0.8,0-0.8,1,0,1C180.7,299.5,180.7,298.5,179.8,298.5z"/>
	<path id="XMLID_469_" class="st5" d="M171.7,278.5c-1,0-1,1.2,0,1.2C172.7,279.7,172.7,278.5,171.7,278.5z"/>
	<path id="XMLID_468_" class="st5" d="M149.6,270.3c-0.5,0-0.6,0.7,0,0.7C150.1,270.9,150.1,270.3,149.6,270.3z"/>
	<path id="XMLID_467_" class="st5" d="M842,371.9c-1.3,0-1.3,1.6,0,1.6C843.3,373.5,843.3,371.9,842,371.9z"/>
	<path id="XMLID_466_" class="st5" d="M816.9,364.7c-1.1,0-1.1,1.3,0,1.3C818,366,818,364.7,816.9,364.7z"/>
	<path id="XMLID_465_" class="st5" d="M837.6,356.5c-0.5,0-0.5,0.6,0,0.6C838.1,357.1,838.1,356.5,837.6,356.5z"/>
	<path id="XMLID_464_" class="st5" d="M829.5,354.1c-0.8,0-0.8,1,0,1C830.3,355,830.3,354.1,829.5,354.1z"/>
	<path id="XMLID_463_" class="st5" d="M819.1,317.7c-0.9,0-0.9,1.1,0,1.1C820,318.8,820,317.7,819.1,317.7z"/>
	<path id="XMLID_462_" class="st5" d="M809.5,316.7c-0.7,0-0.7,0.9,0,0.9C810.3,317.5,810.3,316.7,809.5,316.7z"/>
	<path id="XMLID_461_" class="st5" d="M818.3,311.3c0,0,0-0.1-0.1-0.1c-0.1-0.1-0.1-0.1-0.2-0.2c0,0,0.1,0,0.1,0.1
		c-0.1-0.1-0.2-0.1-0.3-0.2c-0.1-0.1-0.1-0.1-0.2-0.2c0,0,0,0.1,0.1,0.1c0-0.1-0.1-0.1-0.1-0.2c-0.1-0.1-0.1-0.2-0.1-0.3
		c0,0,0-0.1-0.1-0.1c0,0-0.1-0.1-0.1-0.1c-0.1-0.1-0.2-0.1-0.3-0.1c-0.1,0-0.2,0-0.3,0.1c-0.1,0-0.2,0.1-0.2,0.2
		c0,0.1-0.1,0.3,0,0.4c0,0.1,0,0.2,0,0.3c0,0.1,0.1,0.2,0.1,0.3c0.2,0.3,0.5,0.5,0.8,0.7c0.1,0.1,0.3,0.1,0.5,0
		c0.1,0,0.3-0.1,0.4-0.2C818.3,311.6,818.3,311.4,818.3,311.3z"/>
	<path id="XMLID_460_" class="st5" d="M811,306.9c-0.1,0-0.1,0.1,0,0.1C811.1,307,811.1,306.9,811,306.9z"/>
	<path id="XMLID_459_" class="st5" d="M820.6,298c-0.7,0-0.7,0.9,0,0.9C821.3,298.8,821.3,298,820.6,298z"/>
	<path id="XMLID_458_" class="st5" d="M804.4,295.8c-0.6,0-0.6,0.7,0,0.7C805,296.5,805,295.8,804.4,295.8z"/>
	<path id="XMLID_457_" class="st5" d="M819.1,277.8c-0.3,0-0.3,0.4,0,0.4C819.4,278.1,819.4,277.8,819.1,277.8z"/>
	<path id="XMLID_456_" class="st5" d="M809.5,244.5c-1,0-1,1.2,0,1.2C810.6,245.7,810.6,244.5,809.5,244.5z"/>
	<path id="XMLID_455_" class="st5" d="M838.3,268.7c-1.2,0-1.2,1.5,0,1.5C839.6,270.2,839.6,268.7,838.3,268.7z"/>
	<path id="XMLID_454_" class="st5" d="M837.6,288.2c-1,0-1,1.2,0,1.2C838.6,289.3,838.6,288.2,837.6,288.2z"/>
	<path id="XMLID_453_" class="st5" d="M853.8,323.7c0-0.1-0.1-0.1-0.2-0.2c-0.1-0.1-0.2-0.1-0.3-0.1c-0.1,0-0.3,0-0.4,0
		c-0.2,0-0.5,0.1-0.7,0.1c0,0-0.1,0-0.1,0c-0.1,0-0.1,0.1-0.2,0.1c0,0-0.1,0.1-0.1,0.1c0,0.1-0.1,0.1-0.1,0.2c0,0,0,0.1,0,0.1
		c0,0,0,0.1,0.1,0.1c0,0.1,0.1,0.1,0.2,0.1c0.1,0,0.1,0.1,0.2,0.1c0.2,0,0.5,0.1,0.7,0.1c0.1,0,0.3,0,0.4,0c0.1,0,0.2-0.1,0.3-0.1
		c0.1-0.1,0.2-0.2,0.2-0.4C853.8,323.8,853.8,323.8,853.8,323.7z"/>
	<path id="XMLID_452_" class="st5" d="M866.8,327.7c-0.1-0.2-0.3-0.4-0.5-0.5c-0.2-0.1-0.4-0.3-0.6-0.4c-0.4-0.3-0.7-0.6-1.1-0.9
		c-0.2-0.2-0.6-0.2-0.8,0c-0.2,0.2-0.2,0.5,0,0.6c0.4,0.3,0.8,0.6,1.1,0.8c0.2,0.1,0.4,0.3,0.6,0.4c0.2,0.2,0.5,0.3,0.7,0.4
		C866.6,328.3,867,328,866.8,327.7z"/>
	<path id="XMLID_451_" class="st5" d="M856.8,330.8c-0.8,0-0.8,1,0,1C857.6,331.8,857.6,330.8,856.8,330.8z"/>
	<path id="XMLID_450_" class="st5" d="M867.1,337.6c-0.9,0-0.9,1.1,0,1.1C868,338.6,868,337.6,867.1,337.6z"/>
	<path id="XMLID_449_" class="st5" d="M862,353.4c-0.1,0-0.1,0.1,0,0.1C862,353.5,862,353.4,862,353.4z"/>
	<path id="XMLID_448_" class="st5" d="M846.5,342.7c-0.8,0-0.8,0.9,0,0.9C847.2,343.7,847.2,342.7,846.5,342.7z"/>
	<path id="XMLID_447_" class="st5" d="M860.5,367c-1,0-1,1.1,0,1.1C861.4,368.2,861.4,367,860.5,367z"/>
	<path id="XMLID_446_" class="st5" d="M867.9,367.5c-0.1,0-0.1,0.1,0,0.1S867.9,367.5,867.9,367.5z"/>
	<path id="XMLID_445_" class="st5" d="M846.5,103.5c-1.5,0-1.5,1.8,0,1.8C848,105.3,848,103.5,846.5,103.5z"/>
	<path id="XMLID_444_" class="st5" d="M827.3,102.2c-0.9,0-0.9,1.1,0,1.1C828.2,103.2,828.2,102.2,827.3,102.2z"/>
	<path id="XMLID_443_" class="st5" d="M840.5,89.8c-0.7,0-0.7,0.9,0,0.9C841.3,90.6,841.3,89.8,840.5,89.8z"/>
	<path id="XMLID_442_" class="st5" d="M833.2,83.5c-0.8,0-0.8,1,0,1C834,84.5,834,83.5,833.2,83.5z"/>
	<path id="XMLID_441_" class="st5" d="M839.1,76.2c-0.7,0-0.7,0.8,0,0.8C839.7,77,839.7,76.2,839.1,76.2z"/>
	<path id="XMLID_440_" class="st5" d="M836.1,67c-0.9,0-0.9,1.1,0,1.1C837,68.1,837,67,836.1,67z"/>
	<path id="XMLID_439_" class="st5" d="M822.8,65.3c-0.8,0-0.8,1,0,1C823.6,66.3,823.6,65.3,822.8,65.3z"/>
	<path id="XMLID_438_" class="st5" d="M825,50.2c-0.5,0-0.5,0.6,0,0.6C825.5,50.8,825.5,50.2,825,50.2z"/>
	<path id="XMLID_437_" class="st5" d="M817.7,28.4c-1,0-1,1.2,0,1.2C818.6,29.5,818.6,28.4,817.7,28.4z"/>
	<path id="XMLID_436_" class="st5" d="M834.6,21c-1,0-1,1.2,0,1.2C835.6,22.2,835.6,21,834.6,21z"/>
	<path id="XMLID_435_" class="st5" d="M845.7,20.5c-0.8,0-0.8,1,0,1C846.5,21.5,846.5,20.5,845.7,20.5z"/>
	<path id="XMLID_434_" class="st5" d="M841.5,35.6c-0.1-0.1-0.3-0.1-0.5,0c-0.4,0.2-0.6,0.5-0.8,0.9c-0.1,0.2-0.1,0.4-0.1,0.6
		c-0.5,0.3-0.4,1.1,0.4,1.1c0.8,0,0.9-0.8,0.4-1.1c0,0,0,0,0-0.1c0,0,0,0,0,0c0,0,0,0,0,0c0-0.1,0-0.1,0.1-0.2c0,0,0-0.1,0-0.1
		c0-0.1,0,0,0,0c0,0,0,0,0,0c0,0,0-0.1,0-0.1c0,0,0,0,0,0c0,0,0-0.1,0.1-0.1c0-0.1,0.1-0.1,0.2-0.2c0,0,0.1-0.1,0,0
		c0,0,0.1-0.1,0.1-0.1C841.7,35.8,841.7,35.7,841.5,35.6z"/>
	<path id="XMLID_433_" class="st5" d="M846.5,32.4c-0.9,0-0.9,1,0,1C847.3,33.4,847.3,32.4,846.5,32.4z"/>
	<path id="XMLID_432_" class="st5" d="M844.2,29c-0.9,0-0.9,1.1,0,1.1C845.1,30,845.1,29,844.2,29z"/>
	<path id="XMLID_431_" class="st5" d="M851.6,26.2c-0.7,0-0.7,0.9,0,0.9C852.4,27.1,852.4,26.2,851.6,26.2z"/>
	<path id="XMLID_430_" class="st5" d="M891.5,95.2c-1.1,0-1.1,1.3,0,1.3C892.6,96.5,892.6,95.2,891.5,95.2z"/>
	<path id="XMLID_429_" class="st5" d="M898.1,77.8c-0.9,0-0.9,1.1,0,1.1C899,78.8,899,77.8,898.1,77.8z"/>
	<path id="XMLID_428_" class="st5" d="M896.7,75.1c-0.7,0-0.7,0.8,0,0.8C897.3,75.9,897.3,75.1,896.7,75.1z"/>
	<path id="XMLID_427_" class="st5" d="M907.7,72.9c-0.6,0-0.6,0.7,0,0.7C908.3,73.5,908.3,72.9,907.7,72.9z"/>
	<path id="XMLID_426_" class="st5" d="M909.9,68.8c-0.8,0-0.8,0.9,0,0.9C910.7,69.7,910.7,68.8,909.9,68.8z"/>
	<path id="XMLID_425_" class="st5" d="M905.3,66.2c0-0.1-0.1-0.1-0.1-0.1c-0.1,0-0.1-0.1-0.2-0.1c-0.1,0-0.1,0-0.2,0
		c-0.2,0-0.3,0-0.4,0.1c0,0-0.1,0.1-0.1,0.1c-0.1,0.1-0.1,0.1-0.1,0.2l0.1,0.6c0,0.1,0,0.1,0,0.1c0,0,0.1,0.1,0.1,0.1
		c0.1,0.1,0.2,0.1,0.4,0.1c0.1,0,0.3,0,0.4-0.1c0,0,0.1-0.1,0.1-0.1c0-0.1,0.1-0.1,0.1-0.2l0.1-0.6
		C905.4,66.3,905.4,66.3,905.3,66.2z"/>
	<path id="XMLID_424_" class="st5" d="M910.7,64.5c-0.3,0-0.3,0.4,0,0.4C911,64.9,911,64.5,910.7,64.5z"/>
	<path id="XMLID_423_" class="st5" d="M915.1,61.4c-0.7,0-0.7,0.9,0,0.9C915.8,62.3,915.8,61.4,915.1,61.4z"/>
	<path id="XMLID_422_" class="st5" d="M901.8,59.1c-0.8,0-0.8,0.9,0,0.9C902.6,60.1,902.6,59.1,901.8,59.1z"/>
	<path id="XMLID_421_" class="st5" d="M905.5,48.9c-0.8,0-0.8,1,0,1C906.3,49.9,906.3,48.9,905.5,48.9z"/>
	<path id="XMLID_420_" class="st5" d="M891.5,36.3c-1,0-1,1.2,0,1.2C892.5,37.5,892.5,36.3,891.5,36.3z"/>
	<path id="XMLID_419_" class="st5" d="M904,25.1c-0.8,0-0.8,0.9,0,0.9C904.8,26,904.8,25.1,904,25.1z"/>
	<path id="XMLID_418_" class="st5" d="M907.8,16.1c0-0.2-0.1-0.3-0.3-0.4c0,0-0.1,0-0.1-0.1c0,0,0,0,0,0l-0.1-0.2
		c-0.1-0.1-0.2-0.2-0.3-0.3c-0.1-0.1-0.2-0.1-0.3-0.1c-0.1-0.1-0.3-0.1-0.5-0.1c-0.1,0-0.2,0-0.3,0l-0.3,0.1
		c-0.1,0.1-0.2,0.1-0.3,0.2c-0.1,0.1-0.1,0.2-0.2,0.3c0,0,0,0,0,0c-0.2,0.1-0.3,0.2-0.3,0.4c-0.1,0.1-0.1,0.3-0.1,0.5
		c0,0.2,0,0.3,0.1,0.5c0.1,0.1,0.2,0.3,0.3,0.4c0.1,0.1,0.3,0.2,0.5,0.2c0.2,0.1,0.4,0.1,0.6,0.1c0.1,0,0.3,0,0.4,0
		c0.3-0.1,0.5-0.2,0.7-0.3c0.1-0.1,0.2-0.2,0.2-0.2c0.1-0.2,0.2-0.4,0.2-0.6C907.8,16.4,907.8,16.2,907.8,16.1z"/>
	<path id="XMLID_417_" class="st5" d="M920.3,36.7c-1.3,0-1.3,1.5,0,1.5C921.5,38.2,921.5,36.7,920.3,36.7z"/>
	<path id="XMLID_416_" class="st5" d="M921,47.6C920.9,47.6,920.9,47.7,921,47.6C921.1,47.7,921.1,47.6,921,47.6z"/>
	<path id="XMLID_415_" class="st5" d="M939.5,34.3c-0.6,0-0.6,0.7,0,0.7C940.1,35,940.1,34.3,939.5,34.3z"/>
	<path id="XMLID_414_" class="st5" d="M752.7,174c-1.2,0-1.2,1.4,0,1.4C753.9,175.4,753.9,174,752.7,174z"/>
	<path id="XMLID_413_" class="st5" d="M770.4,166.2c-0.9,0-0.9,1.1,0,1.1C771.4,167.4,771.4,166.2,770.4,166.2z"/>
	<path id="XMLID_412_" class="st5" d="M765.3,161.2c-0.6,0-0.8,0.5-0.5,0.8c0,0.1,0,0.2,0,0.3c0,0.1,0,0.1,0,0.1
		c0,0,0.1,0.1,0.1,0.1c0.1,0.1,0.2,0.1,0.3,0.1c0.1,0,0.3,0,0.3-0.1c0,0,0.1-0.1,0.1-0.1c0-0.1,0.1-0.1,0.1-0.2l0-0.3
		C766,161.7,765.9,161.2,765.3,161.2z"/>
	<path id="XMLID_411_" class="st5" d="M756.4,165.7c-0.9,0-0.9,1.1,0,1.1C757.3,166.8,757.3,165.7,756.4,165.7z"/>
	<path id="XMLID_410_" class="st5" d="M686.1,192c-0.1-0.2-0.2-0.3-0.4-0.5c-0.1-0.1-0.2-0.1-0.3-0.2c-0.2-0.1-0.4-0.1-0.7-0.1
		c-0.1,0-0.2,0-0.4,0c-0.2,0-0.3,0-0.5,0c-0.1,0-0.1,0-0.2,0c-0.1,0-0.2,0.1-0.3,0.1c-0.2,0.1-0.3,0.2-0.4,0.3
		c-0.1,0.1-0.1,0.1-0.2,0.2c-0.1,0.1-0.1,0.3-0.1,0.4c0,0.1,0,0.2,0,0.3c0,0.1,0.1,0.2,0.1,0.2c0.1,0.1,0.2,0.2,0.4,0.3
		c0.1,0.1,0.3,0.2,0.5,0.2c0.1,0,0.1,0,0.2,0c0,0,0,0,0,0c0.1,0,0.3,0,0.4,0c0,0,0,0,0,0l0.1,0c0.1,0,0.2,0,0.4,0
		c0.2,0,0.4,0,0.5-0.1c0.2,0,0.3-0.1,0.4-0.2c0.1-0.1,0.2-0.2,0.3-0.3c0.1-0.1,0.1-0.3,0.1-0.4L686.1,192z"/>
	<path id="XMLID_409_" class="st5" d="M644.3,202.8c0-0.1-0.1-0.2-0.2-0.2c-0.1-0.1-0.3-0.2-0.4-0.2c-0.2,0-0.3,0-0.5,0
		c-0.2,0-0.4,0.1-0.6,0.1c-0.1,0-0.1,0-0.2,0.1c-0.1,0-0.2,0.1-0.2,0.2c-0.1,0-0.1,0.1-0.1,0.1c-0.1,0.1-0.1,0.2-0.1,0.2
		c0,0.1,0,0.1,0,0.2c0,0.1,0.1,0.1,0.1,0.2c0.1,0.1,0.1,0.1,0.2,0.2c0.1,0.1,0.2,0.1,0.3,0.1c0.2,0,0.4,0.1,0.6,0.1
		c0.2,0,0.3,0,0.5,0c0.2,0,0.3-0.1,0.4-0.2c0.1,0,0.1-0.1,0.2-0.1c0.1-0.1,0.1-0.2,0.1-0.4C644.4,203,644.4,202.9,644.3,202.8z"/>
	<path id="XMLID_408_" class="st5" d="M639,199c-1.1,0-1.1,1.3,0,1.3C640.1,200.3,640.1,199,639,199z"/>
	<path id="XMLID_407_" class="st5" d="M648.6,195.3c-0.6,0-0.6,0.8,0,0.8C649.2,196.1,649.2,195.3,648.6,195.3z"/>
	<path id="XMLID_406_" class="st5" d="M655.7,198.4C655.7,198.3,655.7,198.3,655.7,198.4L655.7,198.4c-0.1-0.1-0.1-0.1-0.2-0.2
		c-0.1,0-0.1-0.1-0.2-0.1c-0.1,0-0.1,0-0.2,0c-0.1,0-0.1,0-0.2,0c-0.1,0-0.3,0-0.4,0c-0.1,0-0.2,0-0.3,0c-0.1,0-0.2,0.1-0.2,0.1
		c-0.1,0-0.1,0.1-0.1,0.2c0,0.1-0.1,0.1-0.1,0.2c0,0,0,0.1,0,0.1c0,0.1,0.1,0.2,0.2,0.2c0,0,0.1,0.1,0.1,0.1c0.1,0,0.2,0.1,0.3,0.1
		c0.1,0,0.3,0,0.4,0c0.1,0,0.1,0,0.2,0c0.1,0,0.1,0,0.2,0c0,0,0.1,0,0.1,0c0.1,0,0.2-0.1,0.2-0.2c0,0,0,0,0,0c0-0.1,0.1-0.1,0.1-0.2
		C655.8,198.5,655.8,198.4,655.7,198.4z"/>
	<path id="XMLID_405_" class="st5" d="M661.2,199.2c-0.9,0-0.9,1,0,1C662,200.2,662,199.2,661.2,199.2z"/>
	<path id="XMLID_404_" class="st5" d="M645.7,223.4c-1.2,0-1.2,1.4,0,1.4C646.9,224.8,646.9,223.4,645.7,223.4z"/>
	<path id="XMLID_403_" class="st5" d="M641.2,212.2c-0.9,0-0.9,1.1,0,1.1C642.2,213.3,642.2,212.2,641.2,212.2z"/>
	<path id="XMLID_402_" class="st5" d="M648.6,211.2c-0.7,0-0.7,0.8,0,0.8C649.3,212,649.3,211.2,648.6,211.2z"/>
	<path id="XMLID_401_" class="st5" d="M659.7,208.2c-0.9,0-0.9,1.1,0,1.1C660.6,209.3,660.6,208.2,659.7,208.2z"/>
	<path id="XMLID_400_" class="st5" d="M711.4,170.9c0,0,0-0.1-0.1-0.1c0-0.1-0.1-0.2-0.2-0.2c0,0-0.1-0.1-0.1-0.1c0,0,0,0,0,0
		c0,0,0,0,0,0c-0.1,0-0.2-0.1-0.3-0.1c-0.1,0-0.2,0-0.3,0.1c0,0,0,0,0,0c0,0,0,0,0,0c-0.1,0-0.1,0-0.1,0.1c-0.1,0-0.1,0.1-0.1,0.2
		c0,0.1-0.1,0.1-0.1,0.2c0,0.1-0.1,0.2-0.1,0.3c0,0.1,0,0.2,0,0.4c0,0.1,0.1,0.2,0.2,0.3c0.1,0,0.1,0.1,0.2,0.1
		c0.1,0.1,0.3,0.1,0.5,0.1c0.1,0,0.2,0,0.4-0.1c0.1,0,0.2-0.1,0.3-0.1c0.1-0.1,0.2-0.2,0.2-0.3c0-0.1,0-0.2,0-0.4
		C711.5,171,711.4,171,711.4,170.9z"/>
	<path id="XMLID_399_" class="st5" d="M700.3,166.2c-1,0-1,1.2,0,1.2C701.3,167.4,701.3,166.2,700.3,166.2z"/>
	<path id="XMLID_398_" class="st5" d="M719.5,152.2c-0.7,0-0.7,0.8,0,0.8C720.2,153,720.2,152.2,719.5,152.2z"/>
	<path id="XMLID_397_" class="st5" d="M717.3,143.6c-0.9,0-0.9,1.1,0,1.1C718.2,144.6,718.2,143.6,717.3,143.6z"/>
	<path id="XMLID_396_" class="st5" d="M724.6,140.3c-0.7,0-0.7,0.9,0,0.9C725.4,141.1,725.4,140.3,724.6,140.3z"/>
	<path id="XMLID_395_" class="st5" d="M720.2,138.1c-0.5,0-0.5,0.6,0,0.6C720.7,138.7,720.7,138.1,720.2,138.1z"/>
	<path id="XMLID_394_" class="st5" d="M716.5,116.7c-2.2,0-2.2,2.6,0,2.6C718.7,119.3,718.7,116.7,716.5,116.7z"/>
	<path id="XMLID_393_" class="st5" d="M335.6,264.4c-0.9,0-0.9,1.1,0,1.1C336.5,265.5,336.5,264.4,335.6,264.4z"/>
	<path id="XMLID_392_" class="st5" d="M325.3,262.1c-0.9,0-0.9,1.1,0,1.1C326.2,263.2,326.2,262.1,325.3,262.1z"/>
	<path id="XMLID_391_" class="st5" d="M324.5,256.5c-0.9,0-0.9,1.1,0,1.1C325.4,257.5,325.4,256.5,324.5,256.5z"/>
	<path id="XMLID_390_" class="st5" d="M309,256.4c-0.9,0-0.9,1.1,0,1.1C309.9,257.5,309.9,256.4,309,256.4z"/>
	<path id="XMLID_389_" class="st5" d="M305.3,245.8c-0.7,0-0.7,0.8,0,0.8C306,246.6,306,245.8,305.3,245.8z"/>
	<path id="XMLID_388_" class="st5" d="M289.8,232.2c-0.6,0-0.6,0.8,0,0.8C290.5,233,290.5,232.2,289.8,232.2z"/>
	<path id="XMLID_387_" class="st5" d="M268.4,208.3c-0.8,0-0.8,0.9,0,0.9C269.2,209.2,269.2,208.3,268.4,208.3z"/>
	<path id="XMLID_386_" class="st5" d="M297.2,229.8c-0.9,0-0.9,1.1,0,1.1C298.1,230.9,298.1,229.8,297.2,229.8z"/>
	<path id="XMLID_385_" class="st5" d="M314.2,233.3c-0.8,0-0.8,0.9,0,0.9C315,234.2,315,233.3,314.2,233.3z"/>
	<path id="XMLID_384_" class="st5" d="M315.7,242.3c-0.9,0-0.9,1.1,0,1.1C316.6,243.3,316.6,242.3,315.7,242.3z"/>
	<path id="XMLID_383_" class="st5" d="M330.4,236.2c-0.7,0-0.7,0.8,0,0.8C331.1,237,331.1,236.2,330.4,236.2z"/>
	<path id="XMLID_382_" class="st5" d="M276.5,266.1c-0.8,0-0.8,1,0,1C277.4,267.1,277.4,266.1,276.5,266.1z"/>
	<path id="XMLID_381_" class="st5" d="M252.2,257.8c-0.6,0-0.6,0.7,0,0.7C252.8,258.5,252.8,257.8,252.2,257.8z"/>
	<path id="XMLID_380_" class="st5" d="M245.5,243.1c-0.4,0-0.4,0.5,0,0.5C245.9,243.6,245.9,243.1,245.5,243.1z"/>
	<path id="XMLID_379_" class="st5" d="M229.3,236.6c-0.9,0-0.9,1.1,0,1.1C230.2,237.7,230.2,236.6,229.3,236.6z"/>
	<path id="XMLID_378_" class="st5" d="M238.2,232.1c-0.8,0-0.8,1,0,1C239,233.1,239,232.1,238.2,232.1z"/>
	<path id="XMLID_377_" class="st5" d="M237.4,242.3c-0.8,0-0.8,1,0,1C238.3,243.3,238.3,242.3,237.4,242.3z"/>
	<path id="XMLID_376_" class="st5" d="M230,227.6c-0.8,0-0.8,0.9,0,0.9C230.8,228.5,230.8,227.6,230,227.6z"/>
	<path id="XMLID_375_" class="st5" d="M235.7,223.4c0,0,0-0.1-0.1-0.1c0-0.1-0.1-0.1-0.1-0.1c-0.1,0-0.1-0.1-0.2-0.1
		c-0.2,0-0.3,0-0.5,0c-0.1,0-0.2,0-0.4,0c-0.1,0-0.2,0-0.2,0c-0.1,0-0.1,0.1-0.2,0.1c-0.1,0-0.1,0.1-0.1,0.2c0,0.1-0.1,0.1-0.1,0.2
		c0,0.1,0.1,0.3,0.2,0.3c0.1,0.1,0.3,0.2,0.5,0.1c0.1,0,0.2,0,0.4,0c0.2,0,0.3,0,0.5,0c0,0,0.1,0,0.1,0c0.1,0,0.1-0.1,0.2-0.1
		c0,0,0.1-0.1,0.1-0.1c0-0.1,0.1-0.1,0-0.2C235.7,223.5,235.7,223.4,235.7,223.4z"/>
	<path id="XMLID_374_" class="st5" d="M228.6,219.6c-0.8,0-0.8,1,0,1C229.4,220.6,229.4,219.6,228.6,219.6z"/>
	<path id="XMLID_373_" class="st5" d="M235.2,209.5c-0.7,0-0.7,0.8,0,0.8C235.9,210.3,235.9,209.5,235.2,209.5z"/>
	<path id="XMLID_372_" class="st5" d="M218.8,199.2c-0.1,0-0.1-0.1-0.2-0.1c-0.1-0.1-0.3-0.1-0.4-0.1c-0.1,0-0.2,0-0.3,0.1
		c-0.1,0-0.2,0.1-0.3,0.1c-0.1,0.1-0.2,0.2-0.2,0.3c0,0.1,0,0.2,0,0.3c0,0.2,0.1,0.4,0.1,0.5c0,0,0,0.1,0.1,0.1
		c0,0.1,0.1,0.1,0.2,0.2c0,0,0.1,0.1,0.2,0.1c0.1,0,0.2,0.1,0.3,0c0.1,0,0.1,0,0.2,0c0.1,0,0.1,0,0.2-0.1c0.1,0,0.2-0.1,0.2-0.1
		c0.1-0.1,0.1-0.1,0.1-0.2c0-0.2,0.1-0.4,0.1-0.5c0-0.1,0-0.2,0-0.3C219,199.4,218.9,199.3,218.8,199.2z"/>
	<path id="XMLID_371_" class="st5" d="M213.1,183.8c-0.9,0-0.9,1.1,0,1.1C214,184.9,214,183.8,213.1,183.8z"/>
	<path id="XMLID_370_" class="st5" d="M218.2,171.3c-2,0-2,2.4,0,2.4C220.3,173.7,220.3,171.3,218.2,171.3z"/>
	<path id="XMLID_369_" class="st5" d="M155.5,230.9c-1,0-1,1.1,0,1.1C156.4,232,156.4,230.9,155.5,230.9z"/>
	<path id="XMLID_368_" class="st5" d="M162.5,229c0,0-0.1-0.1-0.1-0.1c0,0-0.1-0.1-0.2-0.1c-0.2-0.1-0.4-0.1-0.7-0.2
		c-0.1,0-0.3,0-0.4,0c-0.1,0-0.2,0.1-0.3,0.1c-0.1,0.1-0.2,0.2-0.2,0.4c0,0.1,0,0.1,0.1,0.2c0,0.1,0.1,0.1,0.2,0.2
		c0.1,0.1,0.2,0.1,0.3,0.1c0.1,0,0.3,0,0.4,0c0.2-0.1,0.4-0.1,0.7-0.2l0.1,0c0.1,0,0.1-0.1,0.1-0.1c0.1-0.1,0.1-0.1,0.1-0.2
		C162.6,229.1,162.6,229.1,162.5,229z"/>
	<path id="XMLID_367_" class="st5" d="M171.7,234.8c-1.1,0-1.1,1.3,0,1.3C172.8,236.1,172.8,234.8,171.7,234.8z"/>
	<path id="XMLID_366_" class="st5" d="M158.4,236.4c-1.2,0-1.2,1.4,0,1.4C159.6,237.8,159.6,236.4,158.4,236.4z"/>
	<path id="XMLID_365_" class="st5" d="M171,223.4c-1.1,0-1.1,1.3,0,1.3C172.1,224.7,172.1,223.4,171,223.4z"/>
	<path id="XMLID_364_" class="st5" d="M269.2,308.2c-0.7,0-0.7,0.9,0,0.9C269.9,309,269.9,308.2,269.2,308.2z"/>
	<path id="XMLID_363_" class="st5" d="M269.9,301.5c-0.6,0-0.6,0.7,0,0.7C270.5,302.1,270.5,301.5,269.9,301.5z"/>
	<path id="XMLID_362_" class="st5" d="M259.6,296.7c-0.9,0-0.9,1.1,0,1.1C260.5,297.8,260.5,296.7,259.6,296.7z"/>
	<path id="XMLID_361_" class="st5" d="M69.1,198.7c0-0.2-0.1-0.4-0.2-0.6c-0.1-0.2-0.3-0.3-0.6-0.4c-0.1-0.1-0.2-0.1-0.4-0.1
		c-0.2,0-0.3,0-0.5,0c-0.2,0-0.4,0-0.6,0c-0.1,0-0.2,0-0.4,0c-0.2,0-0.3,0.1-0.5,0.2c-0.1,0-0.2,0.1-0.2,0.2
		c-0.1,0.1-0.2,0.2-0.2,0.4l0,0.3c0,0.1,0,0.2,0,0.3c0,0.1,0.1,0.3,0.2,0.4c0.1,0.1,0.2,0.2,0.4,0.3c0.1,0,0.2,0.1,0.2,0.1
		c0,0,0,0,0,0c0.1,0.1,0.1,0.1,0.2,0.2c0.1,0.1,0.3,0.2,0.4,0.2c0.1,0,0.2,0.1,0.3,0.1c0.2,0,0.4,0,0.5,0c0.1,0,0.2-0.1,0.3-0.1
		c0.1-0.1,0.2-0.1,0.3-0.2c0.1-0.1,0.2-0.2,0.3-0.3c0.1-0.1,0.1-0.2,0.1-0.3C69,199,69.1,198.9,69.1,198.7z"/>
	<path id="XMLID_360_" class="st5" d="M49.9,192.3c-0.9,0-0.9,1.1,0,1.1C50.8,193.4,50.8,192.3,49.9,192.3z"/>
	<path id="XMLID_359_" class="st5" d="M36.6,178.5c-0.4,0-0.4,0.5,0,0.5C37,178.9,37,178.5,36.6,178.5z"/>
	<path id="XMLID_358_" class="st5" d="M47,171.9c-0.9,0-0.9,1.1,0,1.1C47.9,173,47.9,171.9,47,171.9z"/>
	<path id="XMLID_357_" class="st5" d="M58.8,177c-0.9,0-0.9,1.1,0,1.1C59.7,178.1,59.7,177,58.8,177z"/>
	<path id="XMLID_356_" class="st5" d="M64.7,174.1c-1,0-1,1.2,0,1.2C65.7,175.4,65.7,174.1,64.7,174.1z"/>
	<path id="XMLID_355_" class="st5" d="M64.7,169.3c-0.6,0-0.6,0.8,0,0.8C65.3,170,65.3,169.3,64.7,169.3z"/>
	<path id="XMLID_354_" class="st5" d="M59.5,167.6c-0.5,0-0.5,0.6,0,0.6C60,168.2,60,167.6,59.5,167.6z"/>
	<path id="XMLID_353_" class="st5" d="M24.8,170.2c-1,0-1,1.1,0,1.1C25.8,171.3,25.8,170.2,24.8,170.2z"/>
	<path id="XMLID_352_" class="st5" d="M18.9,158.9c-0.8,0-0.8,1,0,1C19.7,159.9,19.7,158.9,18.9,158.9z"/>
	<path id="XMLID_351_" class="st5" d="M309.8,276.7c-1.1,0-1.1,1.4,0,1.4C310.9,278.1,310.9,276.7,309.8,276.7z"/>
	<path id="XMLID_350_" class="st5" d="M797.1,134c-0.9,0-0.9,1.1,0,1.1C798,135.1,798,134,797.1,134z"/>
	<path id="XMLID_349_" class="st5" d="M786.8,131.7c-0.9,0-0.9,1.1,0,1.1C787.7,132.9,787.7,131.7,786.8,131.7z"/>
	<path id="XMLID_348_" class="st5" d="M786,126.1c-0.9,0-0.9,1.1,0,1.1C786.9,127.1,786.9,126.1,786,126.1z"/>
	<path id="XMLID_347_" class="st5" d="M770.5,126.1c-0.9,0-0.9,1.1,0,1.1C771.4,127.2,771.4,126.1,770.5,126.1z"/>
	<path id="XMLID_346_" class="st5" d="M766.8,115.4c-0.7,0-0.7,0.8,0,0.8C767.5,116.3,767.5,115.4,766.8,115.4z"/>
	<path id="XMLID_345_" class="st5" d="M751.3,101.8c-0.6,0-0.6,0.8,0,0.8C752,102.6,752,101.8,751.3,101.8z"/>
	<path id="XMLID_344_" class="st5" d="M758.7,99.4c-0.9,0-0.9,1.1,0,1.1C759.6,100.5,759.6,99.4,758.7,99.4z"/>
	<path id="XMLID_343_" class="st5" d="M775.7,102.9c-0.8,0-0.8,0.9,0,0.9C776.5,103.8,776.5,102.9,775.7,102.9z"/>
	<path id="XMLID_342_" class="st5" d="M777.2,111.9c-0.9,0-0.9,1.1,0,1.1C778,113,778,111.9,777.2,111.9z"/>
	<path id="XMLID_341_" class="st5" d="M791.9,105.8c-0.7,0-0.7,0.8,0,0.8C792.6,106.6,792.6,105.8,791.9,105.8z"/>
	<path id="XMLID_340_" class="st5" d="M738,135.8c-0.8,0-0.8,1,0,1C738.8,136.7,738.8,135.8,738,135.8z"/>
	<path id="XMLID_339_" class="st5" d="M771.3,146.4c-1.1,0-1.1,1.4,0,1.4C772.4,147.7,772.4,146.4,771.3,146.4z"/>
	<path id="XMLID_338_" class="st5" d="M372.5,354.1C372.5,354.1,372.5,354.2,372.5,354.1c0-0.1-0.1-0.2-0.1-0.4
		c0-0.1-0.1-0.2-0.1-0.2c-0.1-0.1-0.2-0.2-0.3-0.3c-0.1-0.1-0.2-0.1-0.3-0.1c-0.2-0.1-0.3-0.1-0.5-0.1l-0.4,0
		c-0.1,0-0.2,0.1-0.3,0.1c-0.2,0.1-0.3,0.2-0.4,0.3c-0.1,0.1-0.2,0.2-0.2,0.3l-0.2,0.5c0,0,0,0,0-0.1c-0.1,0.1-0.1,0.3-0.1,0.4
		c0,0.2,0.1,0.4,0.2,0.6c0.3,0.4,0.8,0.6,1.3,0.6c0.5,0,1-0.2,1.3-0.6c0.1-0.2,0.2-0.4,0.2-0.6C372.5,354.4,372.5,354.2,372.5,354.1
		z"/>
	<path id="XMLID_337_" class="st5" d="M390.3,349.3c0-0.1-0.1-0.2-0.2-0.3c-0.1,0-0.1-0.1-0.2-0.1c-0.1-0.1-0.3-0.1-0.4-0.1
		c-0.2,0-0.3,0-0.5,0c-0.1,0-0.1,0-0.1,0c0,0,0,0,0,0c0,0-0.1,0-0.1,0c-0.1,0-0.1,0-0.2,0.1c-0.1,0-0.1,0-0.2,0.1
		c-0.1,0-0.1,0.1-0.2,0.1c0,0-0.1,0.1-0.1,0.1c0,0.1-0.1,0.1-0.1,0.2c0,0,0,0.1,0,0.1l0.1,0.1c0,0.1,0.1,0.1,0.2,0.2
		c0.1,0,0.1,0.1,0.2,0.1c0.1,0,0.1,0,0.2,0.1c0,0,0.1,0,0.1,0c0,0,0,0,0,0c0.1,0,0.1,0,0.2,0c0.2,0,0.3,0,0.5,0c0.1,0,0.2,0,0.3-0.1
		c0.1,0,0.2-0.1,0.3-0.1c0.1-0.1,0.1-0.1,0.2-0.2c0.1-0.1,0.1-0.2,0.1-0.3L390.3,349.3z"/>
	<path id="XMLID_336_" class="st5" d="M377.7,346.8c-0.7,0-0.7,0.8,0,0.8C378.4,347.6,378.4,346.8,377.7,346.8z"/>
	<path id="XMLID_335_" class="st5" d="M387.9,348.2c0,0,0-0.1-0.1-0.1c0-0.1-0.1-0.1-0.2-0.1c-0.1,0-0.1-0.1-0.2-0.1
		c-0.2,0-0.5-0.1-0.7-0.1c-0.1,0-0.3,0-0.4,0c-0.1,0-0.2,0.1-0.3,0.1c-0.1,0.1-0.2,0.2-0.2,0.4c0,0.1,0,0.1,0.1,0.2
		c0,0.1,0.1,0.1,0.1,0.2c0.1,0.1,0.2,0.1,0.3,0.1c0.1,0,0.3,0,0.4,0l0.7-0.1c0,0,0.1,0,0.1,0c0.1,0,0.1-0.1,0.2-0.1
		c0,0,0.1-0.1,0.1-0.1c0-0.1,0.1-0.1,0.1-0.2C387.9,348.3,387.9,348.2,387.9,348.2z"/>
	<path id="XMLID_334_" class="st5" d="M403.6,354.9c0-0.1-0.1-0.1-0.1-0.2c-0.1-0.1-0.1-0.1-0.2-0.2c-0.1-0.1-0.2-0.1-0.3-0.1
		c-0.2,0-0.5-0.1-0.7-0.1c-0.2,0-0.4,0-0.5,0c-0.2,0-0.3,0.1-0.4,0.2c-0.1,0.1-0.1,0.1-0.2,0.2c-0.1,0.1-0.1,0.3-0.1,0.4
		c0,0.1,0,0.2,0.1,0.3c0,0.1,0.1,0.2,0.2,0.2c0.1,0.1,0.3,0.2,0.4,0.2c0.2,0,0.4,0,0.5,0c0.2,0,0.5-0.1,0.7-0.1c0.1,0,0.1,0,0.2-0.1
		c0.1,0,0.2-0.1,0.2-0.2c0.1,0,0.1-0.1,0.1-0.1c0.1-0.1,0.1-0.2,0.1-0.2C403.6,355.1,403.6,355,403.6,354.9z"/>
	<path id="XMLID_333_" class="st5" d="M402.8,338.6c-1.1,0-1.1,1.4,0,1.4C403.9,339.9,403.9,338.6,402.8,338.6z"/>
	<path id="XMLID_332_" class="st5" d="M397.6,338.8c-0.1,0-0.1,0-0.2,0c-0.6-0.5-1.3-1-1.9-1.4c-0.2-0.1-0.4,0.1-0.2,0.2
		c0.6,0.5,1.3,1,1.9,1.5c-0.1,0.2,0.1,0.5,0.5,0.5C398.3,339.6,398.3,338.8,397.6,338.8z"/>
	<path id="XMLID_331_" class="st5" d="M304.8,481.2C304.8,481.2,304.8,481.2,304.8,481.2c0-0.1,0-0.2-0.1-0.2c0-0.1-0.1-0.2-0.1-0.3
		c-0.1-0.1-0.1-0.2-0.2-0.3c-0.1-0.1-0.2-0.3-0.4-0.3c-0.1-0.1-0.2-0.1-0.3-0.2c-0.2-0.1-0.4-0.1-0.6-0.1c-0.1,0-0.3,0-0.4,0
		c-0.1,0-0.3,0.1-0.4,0.1c-0.2,0.1-0.3,0.2-0.4,0.3c-0.1,0.1-0.2,0.3-0.3,0.4c0,0.1-0.1,0.2-0.1,0.3c0,0,0,0.1,0,0.1c0,0,0,0,0,0.1
		c-0.1,0.3-0.1,0.4,0,0.7c0.1,0.2,0.2,0.4,0.5,0.6c0.2,0.1,0.3,0.2,0.5,0.3c0.2,0.1,0.4,0.1,0.6,0.1c0.1,0,0.3,0,0.4,0
		c0.3-0.1,0.5-0.2,0.7-0.3c0,0,0,0,0,0c0.2-0.1,0.3-0.3,0.4-0.4c0-0.1,0.1-0.1,0.1-0.2C304.9,481.7,304.9,481.5,304.8,481.2z"/>
	<path id="XMLID_330_" class="st5" d="M278.8,481.7c-0.8,0-0.8,0.9,0,0.9C279.5,482.6,279.6,481.7,278.8,481.7z"/>
	<path id="XMLID_329_" class="st5" d="M278.8,474.4c-0.7,0-0.7,0.8,0,0.8C279.5,475.2,279.5,474.4,278.8,474.4z"/>
	<path id="XMLID_328_" class="st5" d="M297.2,466.5c-0.6,0-0.6,0.8,0,0.8C297.8,467.2,297.8,466.5,297.2,466.5z"/>
	<path id="XMLID_327_" class="st5" d="M336.3,464.6c-1,0-1,1.2,0,1.2C337.3,465.7,337.3,464.6,336.3,464.6z"/>
	<path id="XMLID_326_" class="st5" d="M327.2,458.9c0-0.1,0-0.2-0.1-0.2c-0.1-0.1-0.2-0.1-0.3-0.1c-0.3,0-0.4,0.1-0.4,0.3
		c0,0.4-0.1,0.8-0.1,1.1c0,0.1,0.1,0.2,0.2,0.3c0.1,0.1,0.3,0.1,0.4,0.1c0.1,0,0.3,0,0.4-0.1c0.1-0.1,0.2-0.2,0.2-0.3
		C327.3,459.7,327.2,459.3,327.2,458.9z"/>
	<path id="XMLID_325_" class="st5" d="M337.5,452c-0.1-0.3-0.8-0.3-0.9,0c0,0.1,0,0.1,0,0.2c0,0,0,0,0,0.1c0,0,0,0.1,0,0.1
		c0,0.1-0.1,0.1-0.1,0.2c0,0,0,0,0,0.1c0,0,0,0.1-0.1,0.1c-0.2,0.3-0.4,0.5-0.6,0.7c0.1-0.1,0,0,0,0c0,0-0.1,0.1-0.1,0.1
		c-0.1,0.1-0.1,0.1-0.2,0.2c-0.1,0.1-0.3,0.2-0.4,0.4c-0.2,0.2-0.5,0.4-0.6,0.7c-0.1,0.2-0.1,0.5,0.2,0.6c0.3,0.1,0.6,0,0.8-0.2
		c0.1-0.1,0.2-0.2,0.3-0.3c0.1-0.1,0.1-0.1,0.2-0.2c0,0,0,0,0.1-0.1c0,0,0.1-0.1,0.1-0.1c0.3-0.3,0.6-0.5,0.8-0.8
		c0.2-0.2,0.5-0.5,0.6-0.8c0.1-0.2,0.2-0.3,0.2-0.5C337.6,452.3,337.5,452.2,337.5,452z"/>
	<path id="XMLID_324_" class="st5" d="M329,444.8c-0.8,0-0.8,1,0,1C329.8,445.8,329.8,444.8,329,444.8z"/>
	<path id="XMLID_323_" class="st5" d="M331.9,438.5c-0.9,0-0.9,1.1,0,1.1C332.8,439.6,332.8,438.5,331.9,438.5z"/>
	<path id="XMLID_322_" class="st5" d="M333.4,435.1c-1,0-1,1.1,0,1.1C334.4,436.2,334.4,435.1,333.4,435.1z"/>
	<path id="XMLID_321_" class="st5" d="M373.3,425c-0.8,0-0.8,1,0,1C374.1,425.9,374.1,425,373.3,425z"/>
	<path id="XMLID_320_" class="st5" d="M376.9,409.1c-0.8,0-0.8,1,0,1C377.8,410.1,377.8,409.1,376.9,409.1z"/>
	<path id="XMLID_319_" class="st5" d="M371.7,403.4c-0.1,0-0.1-0.1-0.2-0.1c-0.1-0.1-0.3-0.1-0.5-0.1c-0.1,0-0.3,0-0.4,0.1
		c-0.1,0-0.2,0.1-0.3,0.2c-0.1,0.1-0.2,0.2-0.2,0.3c0,0.1,0,0.3,0,0.4c0,0.1,0.1,0.2,0.1,0.3c0.1,0.1,0.1,0.3,0.2,0.4
		c0.1,0.1,0.1,0.1,0.2,0.2c0.1,0,0.2,0.1,0.3,0.1c0.1,0,0.2,0,0.3-0.1c0.1,0,0.2-0.1,0.2-0.2c0.1-0.1,0.2-0.2,0.2-0.4
		c0-0.1,0.1-0.2,0.1-0.3c0-0.1,0-0.3,0-0.4C371.9,403.6,371.8,403.5,371.7,403.4z"/>
	<path id="XMLID_318_" class="st5" d="M180.5,437.4c0,0,0-0.1-0.1-0.1c0-0.1-0.1-0.1-0.1-0.2c-0.1-0.2-0.2-0.4-0.4-0.6
		c-0.2-0.2-0.4-0.3-0.6-0.4c-0.2-0.1-0.3-0.1-0.5-0.2c-0.4-0.1-0.8-0.1-1.1,0c-0.2,0-0.3,0.1-0.5,0.2c0,0,0,0,0,0
		c-0.1,0-0.3,0.1-0.4,0.1c-0.1,0.1-0.2,0.1-0.4,0.2c-0.1,0.1-0.2,0.2-0.3,0.3c-0.1,0.2-0.2,0.3-0.2,0.5c0,0.1,0,0.2,0,0.4
		c0,0.1,0,0.2,0.1,0.3c0,0.1,0.1,0.2,0.2,0.2c0,0.1,0,0.1,0,0.2c0,0,0,0,0,0c0.1,0.2,0.2,0.4,0.4,0.6c0.1,0.1,0.1,0.1,0.2,0.2
		c0.3,0.2,0.6,0.4,1,0.4c0.4,0.1,0.8,0.1,1.2,0c0.4-0.1,0.7-0.2,1-0.4c0.3-0.2,0.5-0.5,0.6-0.7c0,0,0,0,0,0
		C180.6,438.1,180.6,437.6,180.5,437.4z"/>
	<path id="XMLID_317_" class="st5" d="M144.4,438.9c-1.2,0-1.2,1.4,0,1.4C145.6,440.4,145.6,438.9,144.4,438.9z"/>
	<path id="XMLID_316_" class="st5" d="M142.9,435.3c-0.6,0-0.6,0.8,0,0.8C143.6,436.1,143.6,435.3,142.9,435.3z"/>
	<path id="XMLID_315_" class="st5" d="M142.2,426.3c-1.4,0-1.4,1.7,0,1.7C143.6,428,143.6,426.3,142.2,426.3z"/>
	<path id="XMLID_314_" class="st5" d="M151.1,437.7c-1.3,0-1.3,1.6,0,1.6C152.4,439.3,152.4,437.7,151.1,437.7z"/>
	<path id="XMLID_313_" class="st5" d="M132.6,443c-1,0-1,1.2,0,1.2C133.6,444.2,133.6,443,132.6,443z"/>
	<path id="XMLID_312_" class="st5" d="M117.1,430.6c-0.9,0-0.9,1.1,0,1.1C118,431.7,118,430.6,117.1,430.6z"/>
	<path id="XMLID_311_" class="st5" d="M45.5,412.3c-1.1,0-1.1,1.4,0,1.4C46.6,413.7,46.6,412.3,45.5,412.3z"/>
	<path id="XMLID_310_" class="st5" d="M38.1,415.3c-0.9,0-0.9,1.1,0,1.1C39,416.3,39,415.3,38.1,415.3z"/>
	<path id="XMLID_309_" class="st5" d="M26.3,412.3c-1.1,0-1.1,1.4,0,1.4C27.4,413.7,27.4,412.3,26.3,412.3z"/>
	<path id="XMLID_308_" class="st5" d="M30,404.5c-0.9,0-0.9,1.1,0,1.1C30.9,405.6,30.9,404.5,30,404.5z"/>
	<path id="XMLID_307_" class="st5" d="M30,401c-1,0-1,1.2,0,1.2C31,402.2,31,401,30,401z"/>
	<path id="XMLID_306_" class="st5" d="M16,391.3c-1.1,0-1.1,1.3,0,1.3C17,392.6,17,391.3,16,391.3z"/>
	<path id="XMLID_305_" class="st5" d="M47,398.3c-0.1-0.3-0.3-0.6-0.6-0.8l-0.5-0.3c-0.4-0.2-0.7-0.2-1.2-0.2l-0.6,0.1
		c-0.3,0.1-0.6,0.2-0.8,0.3c-0.2,0.1-0.4,0.3-0.6,0.5c0,0,0,0.1-0.1,0.1c0,0,0,0,0,0c-0.1,0.1-0.2,0.2-0.2,0.3
		c-0.1,0.2-0.2,0.3-0.1,0.5c0,0.1,0,0.2,0.1,0.3c0.1,0.1,0.1,0.2,0.2,0.3c0,0,0.1,0.1,0.1,0.1c0,0,0.1,0.1,0.1,0.1l0.4,0.4
		c0.2,0.2,0.5,0.3,0.7,0.4c0.3,0.1,0.6,0.2,0.9,0.2c0.3,0,0.6,0,0.9-0.2c0.3-0.1,0.5-0.2,0.7-0.4c0.2-0.2,0.4-0.3,0.5-0.6
		c0.1-0.2,0.2-0.4,0.2-0.7C47,398.6,47,398.5,47,398.3z"/>
	<path id="XMLID_304_" class="st5" d="M18.9,442.3c0,0-0.1-0.1-0.1-0.1c-0.1-0.1-0.2-0.2-0.3-0.2c0,0,0.1,0,0.1,0.1
		c-0.3-0.2-0.6-0.4-0.9-0.6c-0.1-0.1-0.1-0.1-0.2-0.2c0.1,0,0.1,0,0.2-0.1c0.2-0.1,0.2-0.3,0.2-0.5c-0.1-0.2-0.2-0.3-0.4-0.3
		c-0.2-0.1-0.5,0-0.8,0c-0.3,0-0.6,0.2-0.7,0.4c-0.1,0.3-0.1,0.5,0,0.8c0.1,0.3,0.3,0.5,0.5,0.7c0.3,0.3,0.7,0.6,1.2,0.8
		c0.1,0.1,0.4,0.1,0.6,0.1c0.2,0,0.4-0.1,0.5-0.3C18.9,442.6,19,442.5,18.9,442.3z"/>
	<path id="XMLID_303_" class="st5" d="M40.8,442.2L40.8,442.2c-0.1-0.1-0.1-0.1-0.1-0.1c-0.1,0-0.1-0.1-0.2-0.1c0,0-0.1,0-0.1-0.1
		c-0.1,0-0.2-0.1-0.3-0.1c-0.3-0.1-0.7-0.1-1,0c-0.3,0.1-0.5,0.4-0.5,0.7c0,0.3,0.2,0.5,0.5,0.7c0.3,0.1,0.7,0.1,1,0
		c0.1,0,0.2-0.1,0.3-0.1c0,0,0.1,0,0.1-0.1c0.1,0,0.1-0.1,0.2-0.1c0,0,0.1-0.1,0.1-0.1c0,0,0,0,0,0c0.1-0.1,0.1-0.1,0.1-0.2
		C40.9,442.4,40.9,442.3,40.8,442.2z"/>
	<path id="XMLID_302_" class="st5" d="M47,444c-1.2,0-1.2,1.4,0,1.4C48.1,445.4,48.1,444,47,444z"/>
	<path id="XMLID_301_" class="st5" d="M828.8,172.5c-0.2-0.1-0.5-0.2-0.8-0.2c-0.3,0-0.6,0.1-0.8,0.2l0,0c0,0,0,0,0,0
		c-0.1,0-0.1,0-0.2,0c-0.1,0-0.2,0.1-0.3,0.1c-0.2,0.1-0.3,0.1-0.4,0.3c-0.1,0.1-0.1,0.1-0.2,0.2c-0.1,0.1-0.1,0.2-0.1,0.4
		c0,0.1,0,0.2,0,0.3c0,0.1,0.1,0.2,0.1,0.2c0.1,0.1,0.2,0.2,0.3,0.3c0.1,0.1,0.3,0.1,0.4,0.2c0.1,0,0.1,0,0.2,0c0,0,0,0,0,0
		c0.2,0.1,0.5,0.2,0.8,0.2c0.3,0,0.6-0.1,0.8-0.2c0.5-0.2,0.8-0.6,0.8-1C829.5,173.2,829.2,172.8,828.8,172.5z"/>
	<path id="XMLID_300_" class="st5" d="M827.9,165.9C827.9,165.9,827.9,165.9,827.9,165.9c0-0.1,0-0.1,0-0.1c0-0.1,0-0.1-0.1-0.2
		c-0.1-0.1-0.1-0.2-0.2-0.4c-0.1-0.1-0.2-0.2-0.4-0.3c-0.2-0.1-0.4-0.1-0.6-0.1c-0.1,0-0.2,0-0.3,0c-0.2,0-0.4,0.1-0.5,0.2
		c-0.1,0.1-0.2,0.2-0.2,0.3c-0.1,0.1-0.1,0.2-0.1,0.3c0,0.2,0.1,0.3,0.2,0.4c0.1,0.1,0.2,0.2,0.4,0.3c0.2,0.1,0.3,0.1,0.5,0.2
		c0.1,0,0.2,0,0.2,0.1c0,0,0,0,0,0c0,0,0,0,0,0c0,0,0,0,0.1,0c0,0,0.1,0,0.1,0c0.1,0,0.2,0,0.2,0c0.1,0,0.2,0,0.4,0
		c0.1,0,0.2-0.1,0.3-0.1c0.1-0.1,0.1-0.1,0.2-0.2c0-0.1,0-0.2,0-0.3C827.9,166,827.9,166,827.9,165.9z"/>
	<path id="XMLID_299_" class="st5" d="M836.1,171.2c-1.2,0-1.2,1.5,0,1.5C837.3,172.6,837.3,171.2,836.1,171.2z"/>
	<path id="XMLID_298_" class="st5" d="M842,170.1c-1,0-1,1.2,0,1.2C843.1,171.4,843.1,170.1,842,170.1z"/>
	<path id="XMLID_297_" class="st5" d="M840.5,163.9c-1,0-1,1.2,0,1.2C841.6,165.1,841.6,163.9,840.5,163.9z"/>
	<path id="XMLID_296_" class="st5" d="M847.9,154.9c-0.9,0-0.9,1,0,1C848.8,156,848.8,154.9,847.9,154.9z"/>
	<path id="XMLID_295_" class="st5" d="M853.8,147.5c-0.9,0-0.9,1.1,0,1.1C854.8,148.6,854.8,147.5,853.8,147.5z"/>
	<path id="XMLID_294_" class="st5" d="M887.1,153.9c-0.7,0-0.7,0.8,0,0.8C887.8,154.7,887.8,153.9,887.1,153.9z"/>
	<path id="XMLID_293_" class="st5" d="M883.4,149.7c-0.1,0-0.1,0.1,0,0.1S883.4,149.7,883.4,149.7z"/>
	<path id="XMLID_292_" class="st5" d="M886.3,146.4c-1,0-1,1.1,0,1.1C887.3,147.5,887.3,146.4,886.3,146.4z"/>
	<path id="XMLID_291_" class="st5" d="M895.9,143c-0.9,0-0.9,1,0,1C896.8,144.1,896.8,143,895.9,143z"/>
	<path id="XMLID_290_" class="st5" d="M898.1,133.6c-0.5,0-0.5,0.6,0,0.6C898.6,134.2,898.6,133.6,898.1,133.6z"/>
	<path id="XMLID_289_" class="st5" d="M899.6,129.5c-0.8,0-0.8,0.9,0,0.9C900.4,130.4,900.4,129.5,899.6,129.5z"/>
	<path id="XMLID_288_" class="st5" d="M938.7,128.2c0-0.1-0.1-0.2-0.1-0.2c-0.1-0.1-0.2-0.2-0.4-0.2c-0.2,0-0.4,0-0.5,0.1
		c-0.1,0.1-0.2,0.1-0.2,0.2c-0.1,0.1-0.1,0.2-0.1,0.2c0,0.1-0.1,0.1-0.1,0.2c-0.1,0.1-0.2,0.2-0.3,0.3c0,0-0.1,0.1-0.1,0.1
		c-0.1,0-0.2-0.1-0.3-0.1c-0.1,0-0.2,0-0.3,0.1c0,0,0,0,0,0c-0.1,0-0.2,0.1-0.3,0.2c-0.1,0.1-0.1,0.2-0.1,0.3c0,0.1-0.1,0.2-0.1,0.3
		c-0.1,0.2,0,0.5,0.2,0.6c0.1,0,0.1,0.1,0.2,0.1c0.1,0.1,0.3,0.1,0.4,0.1c0.1,0,0.2,0,0.3-0.1c0.1,0,0.2-0.1,0.3-0.1
		c0.1-0.1,0.2-0.2,0.2-0.3c0.3-0.2,0.6-0.4,0.8-0.7c0.2-0.2,0.3-0.4,0.4-0.6c0-0.1,0.1-0.2,0.1-0.3
		C938.7,128.4,938.7,128.3,938.7,128.2z"/>
	<path id="XMLID_287_" class="st5" d="M929.1,124.4c-0.8,0-0.8,0.9,0,0.9C929.9,125.3,929.9,124.4,929.1,124.4z"/>
	<path id="XMLID_286_" class="st5" d="M935.8,119.8c-0.7,0-0.7,0.9,0,0.9C936.5,120.7,936.5,119.8,935.8,119.8z"/>
	<path id="XMLID_285_" class="st5" d="M943.9,114.6c-0.9,0-0.9,1.1,0,1.1C944.8,115.7,944.8,114.6,943.9,114.6z"/>
	<path id="XMLID_284_" class="st5" d="M938,107.3c-0.9,0-0.9,1,0,1C938.9,108.3,938.9,107.3,938,107.3z"/>
	<path id="XMLID_283_" class="st5" d="M961.6,87.4c-0.9,0-0.9,1.1,0,1.1C962.5,88.5,962.5,87.4,961.6,87.4z"/>
	<path id="XMLID_282_" class="st5" d="M961.6,103.8c-0.1,0-0.1-0.1-0.2-0.1c-0.2-0.1-0.3-0.1-0.5-0.1c-0.1,0-0.3,0-0.4,0.1
		c-0.1,0-0.2,0.1-0.3,0.2c-0.1,0.1-0.2,0.2-0.3,0.3c0,0.1,0,0.3,0,0.4c0.1,0.2,0.1,0.4,0.2,0.5c0,0.1,0.1,0.1,0.1,0.2
		c0.1,0.1,0.1,0.1,0.2,0.2c0.1,0,0.1,0.1,0.2,0.1c0.1,0,0.2,0.1,0.3,0.1c0.1,0,0.1,0,0.2,0c0.1,0,0.1,0,0.2-0.1
		c0.1,0,0.2-0.1,0.2-0.2c0.1-0.1,0.1-0.1,0.2-0.2c0.1-0.2,0.1-0.4,0.2-0.5c0-0.1,0-0.3,0-0.4C961.8,104.1,961.7,103.9,961.6,103.8z"
		/>
	<path id="XMLID_281_" class="st5" d="M971.2,102.9c0-0.1-0.1-0.1-0.1-0.2c0,0,0-0.1-0.1-0.1c-0.1-0.1-0.1-0.1-0.2-0.2
		c-0.1-0.1-0.2-0.2-0.4-0.3c-0.1-0.1-0.2-0.1-0.3-0.2c-0.1,0-0.2-0.1-0.4-0.1c-0.1,0-0.3,0-0.4,0.1c-0.1,0-0.2,0.1-0.3,0.2
		c-0.1,0.1-0.1,0.1-0.2,0.2c-0.1,0.1-0.1,0.3-0.1,0.4l0,0.2c0,0.1,0.1,0.2,0.3,0.3c0.1,0.1,0.3,0.2,0.4,0.3c0.1,0,0.1,0.1,0.2,0.1
		c0,0,0,0,0,0c0,0,0,0,0,0c0,0,0,0,0.1,0c0,0,0.1,0,0.1,0c0.1,0,0.2,0.1,0.2,0.1c0.1,0,0.1,0,0.2,0.1c0.1,0,0.2,0,0.3,0
		c0.1,0,0.1,0,0.2,0c0.1,0,0.2-0.1,0.3-0.1c0,0,0.1-0.1,0.1-0.1c0-0.1,0.1-0.1,0.1-0.2c0-0.1,0-0.2,0-0.3
		C971.3,103.1,971.2,103,971.2,102.9z"/>
	<path id="XMLID_280_" class="st5" d="M720.1,346.9c-0.1-0.2-0.2-0.4-0.4-0.5c-0.1-0.1-0.2-0.1-0.3-0.2c-0.2-0.1-0.5-0.2-0.8-0.2
		c-0.1,0-0.1,0-0.2,0c-0.1,0-0.1,0-0.2,0c0,0,0,0,0,0c0,0,0,0-0.1,0l-0.2,0c-0.1,0-0.2,0-0.3,0.1c-0.1,0-0.2,0.1-0.3,0.1
		c-0.2,0.1-0.3,0.2-0.4,0.3c-0.1,0.1-0.1,0.1-0.2,0.2c-0.1,0.1-0.1,0.3-0.1,0.4c0,0.1,0,0.2,0,0.3c0,0.1,0.1,0.2,0.1,0.2
		c0.1,0.1,0.2,0.2,0.3,0.3c0.1,0.1,0.3,0.2,0.5,0.2c0.1,0,0.2,0,0.3,0.1c0.2,0,0.5,0.1,0.7,0.1c0.2,0,0.4,0,0.6-0.1
		c0.2,0,0.3-0.1,0.5-0.2c0.1-0.1,0.2-0.2,0.3-0.4c0.1-0.1,0.1-0.3,0.1-0.4C720.1,347.1,720.1,347,720.1,346.9z"/>
	<path id="XMLID_279_" class="st5" d="M710.8,343.4c-0.1-0.1-0.1-0.2-0.2-0.2c0,0-0.1-0.1-0.1-0.1c-0.1-0.1-0.2-0.2-0.3-0.2
		c0,0,0,0,0,0c-0.1,0-0.2-0.1-0.3-0.1c-0.1,0-0.2,0-0.3,0.1c0,0,0,0,0,0c-0.1,0-0.2,0.1-0.3,0.2c0,0-0.1,0.1-0.1,0.1
		c-0.1,0.1-0.1,0.2-0.2,0.2c-0.2,0.2-0.2,0.6,0,0.8c0.2,0.2,0.5,0.4,0.9,0.4c0.4,0,0.7-0.2,0.9-0.4C711,343.9,711,343.6,710.8,343.4
		z"/>
	<path id="XMLID_278_" class="st5" d="M721.5,337.9c0-0.1-0.1-0.1-0.1-0.2c0-0.1-0.1-0.1-0.1-0.2c-0.1-0.1-0.2-0.2-0.2-0.4
		c-0.1-0.1-0.2-0.2-0.3-0.3c-0.1-0.1-0.3-0.1-0.5-0.1l-0.3,0c-0.2,0-0.3,0.1-0.4,0.2c-0.1,0.1-0.2,0.1-0.2,0.2
		c-0.1,0.1-0.1,0.2-0.1,0.3c0,0.1,0,0.3,0.1,0.4c0.1,0.1,0.2,0.2,0.3,0.3c0.2,0.1,0.3,0.1,0.5,0.2c0.1,0,0.1,0.1,0.2,0.1
		c0.1,0,0.2,0.1,0.3,0.1c0,0,0.1,0,0.1,0c0.1,0,0.2,0,0.3,0c0.1,0,0.2-0.1,0.3-0.1c0.1-0.1,0.1-0.1,0.1-0.2
		C721.5,338.1,721.5,338.1,721.5,337.9C721.5,338,721.5,337.9,721.5,337.9z"/>
	<path id="XMLID_277_" class="st5" d="M713.6,331.9c-0.9,0-0.9,1.1,0,1.1C714.5,333,714.5,331.9,713.6,331.9z"/>
	<path id="XMLID_276_" class="st5" d="M722.4,323c-0.6,0-0.6,0.7,0,0.7C723,323.7,723,323,722.4,323z"/>
	<path id="XMLID_275_" class="st5" d="M718,320.6c-0.8,0-0.8,1,0,1C718.8,321.6,718.8,320.6,718,320.6z"/>
	<path id="XMLID_274_" class="st5" d="M715.1,317.2c-0.9,0-0.9,1,0,1C715.9,318.2,715.9,317.2,715.1,317.2z"/>
	<path id="XMLID_273_" class="st5" d="M721,313.2c-0.8,0-0.8,1,0,1C721.8,314.2,721.8,313.2,721,313.2z"/>
	<path id="XMLID_272_" class="st5" d="M726.9,304.7c-0.8,0-0.8,0.9,0,0.9C727.6,305.7,727.6,304.7,726.9,304.7z"/>
	<path id="XMLID_271_" class="st5" d="M675.9,311.8c-1.2,0-1.2,1.5,0,1.5C677.2,313.3,677.2,311.8,675.9,311.8z"/>
	<path id="XMLID_270_" class="st5" d="M668.5,305c-1.2,0-1.2,1.5,0,1.5C669.8,306.5,669.8,305,668.5,305z"/>
	<path id="XMLID_269_" class="st5" d="M673.7,300.7c-0.9,0-0.9,1.1,0,1.1C674.7,301.8,674.7,300.7,673.7,300.7z"/>
	<path id="XMLID_268_" class="st5" d="M678.9,298.3c-0.1,0-0.1,0.1,0,0.1C679,298.4,679,298.3,678.9,298.3z"/>
	<path id="XMLID_267_" class="st5" d="M669.3,293.3c-0.9,0-0.9,1.1,0,1.1C670.2,294.4,670.2,293.3,669.3,293.3z"/>
	<path id="XMLID_266_" class="st5" d="M673.7,289.4c-0.8,0-0.8,0.9,0,0.9C674.5,290.3,674.5,289.4,673.7,289.4z"/>
	<path id="XMLID_265_" class="st5" d="M678.9,288c-0.4,0-0.4,0.4,0,0.4C679.3,288.4,679.3,288,678.9,288z"/>
	<path id="XMLID_264_" class="st5" d="M665.6,283.1c-0.9,0-0.9,1.1,0,1.1C666.5,284.2,666.5,283.1,665.6,283.1z"/>
	<path id="XMLID_263_" class="st5" d="M655.3,281.9c-0.9,0-0.9,1.1,0,1.1C656.2,283.1,656.2,281.9,655.3,281.9z"/>
	<path id="XMLID_262_" class="st5" d="M646.4,272.4c-0.8,0-0.8,1,0,1C647.2,273.4,647.2,272.4,646.4,272.4z"/>
	<path id="XMLID_261_" class="st5" d="M653,264.4c-0.8,0-0.8,1,0,1C653.9,265.4,653.9,264.4,653,264.4z"/>
	<path id="XMLID_260_" class="st5" d="M644.2,262.8c-0.8,0-0.8,0.9,0,0.9C644.9,263.7,644.9,262.8,644.2,262.8z"/>
	<path id="XMLID_259_" class="st5" d="M645.7,260.5c-0.8,0-0.8,1,0,1C646.5,261.4,646.5,260.5,645.7,260.5z"/>
	<path id="XMLID_258_" class="st5" d="M637.5,261.6c-0.3,0-0.5,0.1-0.6,0.3c-0.4,0.3-0.7,0.6-1,0.9c0,0-0.1,0.1-0.1,0.1c0,0,0,0,0,0
		c-0.1,0.1-0.2,0.1-0.3,0.2c0,0-0.1,0.1-0.1,0.1c0,0,0,0,0,0c0,0,0,0-0.1,0c-0.1,0-0.2,0.1-0.3,0.1c0,0-0.1,0.1-0.1,0.1
		c-0.1,0.1-0.2,0.2-0.1,0.4c0,0.1,0.2,0.3,0.4,0.3c0.1,0,0.2,0,0.3,0c0.2,0,0.3,0,0.4-0.1c0.2-0.1,0.3-0.1,0.4-0.2
		c0.2-0.2,0.4-0.3,0.6-0.5c0.1-0.1,0.2-0.2,0.2-0.3c0,0,0.1-0.1,0.1-0.1c0,0,0,0,0.1-0.1c0,0,0,0,0,0c0,0,0,0,0,0c0,0,0,0,0.1-0.1
		c0,0,0.1-0.1,0.1-0.1c0,0,0.1-0.1,0.1-0.1C638.4,262.4,638.3,261.6,637.5,261.6z"/>
	<path id="XMLID_257_" class="st5" d="M624.3,259.3c-0.9,0-0.9,1.1,0,1.1C625.2,260.4,625.2,259.3,624.3,259.3z"/>
	<path id="XMLID_256_" class="st5" d="M664.9,277.4c-1,0-1,1.2,0,1.2C665.9,278.6,665.9,277.4,664.9,277.4z"/>
	<path id="XMLID_255_" class="st5" d="M672.2,265.7c-0.6,0-0.6,0.8,0,0.8C672.9,266.4,672.9,265.7,672.2,265.7z"/>
	<path id="XMLID_254_" class="st5" d="M661.9,263.3c-0.8,0-0.8,1,0,1C662.7,264.3,662.7,263.3,661.9,263.3z"/>
	<path id="XMLID_253_" class="st5" d="M673,260.2c-0.4,0-0.4,0.5,0,0.5C673.4,260.6,673.4,260.2,673,260.2z"/>
	<path id="XMLID_252_" class="st5" d="M675.2,244.1c-1.6,0-1.6,1.9,0,1.9C676.8,246,676.8,244.1,675.2,244.1z"/>
	<path id="XMLID_251_" class="st5" d="M688.5,260.8c-1.1,0-1.1,1.4,0,1.4C689.6,262.2,689.6,260.8,688.5,260.8z"/>
	<path id="XMLID_250_" class="st5" d="M692.2,281.7c-1.3,0-1.3,1.6,0,1.6C693.5,283.3,693.5,281.7,692.2,281.7z"/>
	<path id="XMLID_249_" class="st5" d="M659.1,293.9c-0.1-0.3-0.3-0.6-0.6-0.8c-0.2-0.1-0.3-0.2-0.5-0.3c-0.4-0.2-0.8-0.3-1.3-0.3
		c-0.3,0-0.7,0-1,0.2c-0.3,0.1-0.6,0.2-0.8,0.4c-0.2,0.2-0.4,0.4-0.5,0.6c-0.2,0.2-0.2,0.5-0.2,0.7c0,0.2,0.1,0.3,0.1,0.5
		c0.1,0.3,0.3,0.6,0.6,0.8c0.2,0.1,0.3,0.2,0.5,0.3c0.4,0.2,0.8,0.3,1.3,0.3c0.3,0,0.7,0,1-0.2c0.3-0.1,0.6-0.2,0.8-0.4
		c0.2-0.2,0.4-0.4,0.5-0.6c0.2-0.2,0.2-0.5,0.2-0.7C659.2,294.3,659.2,294.1,659.1,293.9z"/>
	<path id="XMLID_248_" class="st5" d="M523,351.4c-0.1-0.2-0.2-0.3-0.4-0.5c-0.1-0.1-0.2-0.1-0.3-0.2c-0.2-0.1-0.5-0.1-0.7-0.1
		c-0.2,0-0.4,0-0.5,0.1c-0.2,0-0.3,0.1-0.5,0.2c-0.2,0.1-0.3,0.3-0.4,0.5c-0.1,0.2-0.1,0.4,0,0.6c0.1,0.1,0.1,0.3,0.2,0.4
		c0,0.1,0.1,0.2,0.1,0.2c0.1,0.1,0.2,0.2,0.3,0.3c0.1,0.1,0.2,0.1,0.3,0.1c0.1,0.1,0.3,0.1,0.5,0.1c0.1,0,0.2,0,0.3,0
		c0.1,0,0.2-0.1,0.3-0.1c0.1-0.1,0.3-0.1,0.3-0.2c0.1-0.1,0.2-0.2,0.2-0.3c0.1-0.1,0.1-0.3,0.2-0.4
		C523.1,351.8,523.1,351.6,523,351.4z"/>
	<path id="XMLID_247_" class="st5" d="M515,343.7c-1,0-1,1.2,0,1.2C516,345,516,343.7,515,343.7z"/>
	<path id="XMLID_246_" class="st5" d="M528.3,340.1c-0.4,0-0.8,0-1.2,0.1c-0.2,0-0.3,0.1-0.5,0.1c-0.1-0.1-0.3-0.1-0.5-0.1
		c-1.1,0-1.1,1.3,0,1.3c0.6,0,0.8-0.3,0.8-0.7c0.1,0,0.2-0.1,0.4-0.1c0.4-0.1,0.7-0.2,1.1-0.2c0.1,0,0.2-0.1,0.2-0.2
		C528.5,340.2,528.4,340.1,528.3,340.1z"/>
	<path id="XMLID_245_" class="st5" d="M519.4,337.5c-1,0-1,1.2,0,1.2C520.4,338.7,520.4,337.5,519.4,337.5z"/>
	<path id="XMLID_244_" class="st5" d="M523.1,331.3c-0.9,0-0.9,1.1,0,1.1C524.1,332.4,524.1,331.3,523.1,331.3z"/>
	<path id="XMLID_243_" class="st5" d="M523.1,327c-0.5,0-0.5,0.6,0,0.6C523.6,327.6,523.6,327,523.1,327z"/>
	<path id="XMLID_242_" class="st5" d="M517.9,319.4c-1,0-1,1.1,0,1.1C518.9,320.5,518.9,319.4,517.9,319.4z"/>
	<path id="XMLID_241_" class="st5" d="M518.7,308.2c-0.7,0-0.7,0.9,0,0.9C519.4,309,519.4,308.2,518.7,308.2z"/>
	<path id="XMLID_240_" class="st5" d="M523.9,299.8c-0.4,0-0.4,0.5,0,0.5C524.3,300.4,524.3,299.8,523.9,299.8z"/>
	<path id="XMLID_239_" class="st5" d="M522.4,289.5c-0.6,0-0.6,0.7,0,0.7C522.9,290.2,522.9,289.5,522.4,289.5z"/>
	<path id="XMLID_238_" class="st5" d="M545.2,351.9c0-0.2-0.1-0.3-0.1-0.5c0-0.1-0.1-0.2-0.1-0.2c-0.1-0.1-0.2-0.2-0.3-0.3
		c-0.1-0.1-0.2-0.1-0.3-0.1c-0.2-0.1-0.3-0.1-0.5-0.1c-0.1,0-0.2,0-0.3,0l-0.3,0.1c-0.2,0.1-0.3,0.1-0.4,0.3
		c-0.1,0.1-0.2,0.2-0.2,0.3c0,0.2-0.1,0.3-0.1,0.5c-0.1,0.2-0.1,0.4,0,0.6c0.1,0.2,0.2,0.4,0.4,0.5c0.1,0.1,0.2,0.1,0.3,0.2
		c0.2,0.1,0.5,0.2,0.7,0.2c0.2,0,0.4,0,0.6-0.1c0.2,0,0.3-0.1,0.5-0.2c0.2-0.1,0.3-0.3,0.4-0.5C545.3,352.3,545.3,352.1,545.2,351.9
		z"/>
	<path id="XMLID_237_" class="st5" d="M532,351.7c-1,0-1,1.1,0,1.1C532.9,352.9,532.9,351.7,532,351.7z"/>
	<path id="XMLID_236_" class="st5" d="M538.6,345c-0.8,0-0.8,1,0,1C539.4,346,539.4,345,538.6,345z"/>
	<path id="XMLID_235_" class="st5" d="M531.8,330.4c0-0.1-0.1-0.2-0.2-0.3c0,0,0,0-0.1,0c0,0,0-0.1,0-0.1c0-0.1-0.1-0.1-0.1-0.2
		c-0.1-0.1-0.1-0.2-0.3-0.2c-0.1,0-0.1-0.1-0.2-0.1c-0.1,0-0.2-0.1-0.4-0.1c-0.1,0-0.2,0-0.3,0c-0.1,0-0.2,0.1-0.2,0.1
		c-0.1,0-0.2,0.1-0.3,0.2c-0.1,0.1-0.1,0.2-0.2,0.3c0,0,0,0.1,0,0.1c-0.1,0.1-0.2,0.2-0.2,0.3c-0.1,0.1-0.1,0.3-0.1,0.4
		c0,0.1,0,0.3,0.1,0.4c0.1,0.1,0.1,0.2,0.3,0.3c0.1,0.1,0.3,0.2,0.4,0.2c0.2,0.1,0.3,0.1,0.5,0.1c0.1,0,0.2,0,0.4,0
		c0.2,0,0.4-0.1,0.6-0.3c0.1-0.1,0.1-0.1,0.2-0.2c0.1-0.2,0.2-0.3,0.2-0.5C531.8,330.6,531.8,330.5,531.8,330.4z"/>
	<path id="XMLID_234_" class="st5" d="M561.5,438.5c-0.9,0-0.9,1.1,0,1.1C562.4,439.6,562.4,438.5,561.5,438.5z"/>
	<path id="XMLID_233_" class="st5" d="M549.7,430c-0.9,0-0.9,1.1,0,1.1C550.6,431.1,550.6,430,549.7,430z"/>
	<path id="XMLID_232_" class="st5" d="M560,423.2c-0.9,0-0.9,1.1,0,1.1C560.9,424.3,560.9,423.2,560,423.2z"/>
	<path id="XMLID_231_" class="st5" d="M547.5,417.6c-0.8,0-0.8,0.9,0,0.9C548.3,418.5,548.3,417.6,547.5,417.6z"/>
	<path id="XMLID_230_" class="st5" d="M551.9,413.7c-0.7,0-0.7,0.9,0,0.9C552.7,414.6,552.7,413.7,551.9,413.7z"/>
	<path id="XMLID_229_" class="st5" d="M512.8,401.4c-2.4,0-2.4,2.8,0,2.8C515.1,404.2,515.1,401.4,512.8,401.4z"/>
	<path id="XMLID_228_" class="st5" d="M504.7,395.3c-1,0-1,1.2,0,1.2C505.7,396.6,505.7,395.3,504.7,395.3z"/>
	<path id="XMLID_227_" class="st5" d="M511.3,389.8c-0.8,0-0.8,1,0,1C512.1,390.8,512.1,389.8,511.3,389.8z"/>
	<path id="XMLID_226_" class="st5" d="M511.8,383c-0.1-0.1-0.1-0.2-0.2-0.3c-0.1-0.1-0.2-0.1-0.3-0.1c-0.1,0-0.3,0.1-0.3,0.1
		c-0.1,0.1-0.1,0.2-0.2,0.3c-0.1,0.1-0.1,0.2-0.2,0.3c0,0.1,0,0.2,0,0.3c0,0.1,0.1,0.2,0.2,0.2c0.1,0.1,0.3,0.2,0.5,0.2
		c0.1,0,0.2,0,0.3,0c0.1,0,0.2-0.1,0.2-0.1c0.1-0.1,0.1-0.1,0.2-0.2c0-0.1,0-0.2,0-0.3C511.9,383.2,511.8,383.1,511.8,383z"/>
	<path id="XMLID_225_" class="st5" d="M514,379.1c-0.1-0.1-0.3-0.2-0.5-0.2c-0.1,0-0.2,0-0.3,0c-0.1,0-0.2,0.1-0.2,0.1
		c-0.2,0.1-0.2,0.3-0.2,0.5c0,0.1,0.1,0.2,0.1,0.3c0,0,0,0.1,0,0.1c0,0.1,0,0.1,0.1,0.1l0.1,0.1c0,0.1,0.1,0.1,0.2,0.1
		c0.1,0,0.1,0,0.2,0c0.1,0,0.2,0,0.2,0c0.1,0,0.1-0.1,0.2-0.1c0,0,0,0,0-0.1c0,0,0.1-0.1,0.1-0.1c0,0,0-0.1,0-0.1
		c0-0.1,0.1-0.2,0.1-0.3C514.2,379.5,514.2,379.3,514,379.1z"/>
	<path id="XMLID_224_" class="st5" d="M520.9,384.6c-0.9,0-0.9,1.1,0,1.1C521.8,385.7,521.8,384.6,520.9,384.6z"/>
	<path id="XMLID_223_" class="st5" d="M523.9,377.3c-0.9,0-0.9,1.1,0,1.1C524.8,378.4,524.8,377.3,523.9,377.3z"/>
	<path id="XMLID_222_" class="st5" d="M413.9,428.3c-0.9,0-0.9,1,0,1C414.7,429.4,414.7,428.3,413.9,428.3z"/>
	<path id="XMLID_221_" class="st5" d="M413.1,418.1c-0.9,0-0.9,1.1,0,1.1C414.1,419.2,414.1,418.1,413.1,418.1z"/>
	<path id="XMLID_220_" class="st5" d="M419.8,417c-0.8,0-0.8,1,0,1C420.6,418,420.6,417,419.8,417z"/>
	<path id="XMLID_219_" class="st5" d="M419,408.4c-0.9,0-0.9,1.1,0,1.1C420,409.6,420,408.4,419,408.4z"/>
	<path id="XMLID_218_" class="st5" d="M417.5,404c-0.8,0-0.8,1,0,1C418.4,405,418.4,404,417.5,404z"/>
	<path id="XMLID_217_" class="st5" d="M425.6,421.5c-0.1,0-0.1-0.1-0.2-0.1c-0.1-0.1-0.3-0.1-0.5-0.1c-0.1,0-0.3,0-0.4,0.1
		c-0.1,0-0.2,0.1-0.3,0.2c-0.1,0.1-0.2,0.2-0.2,0.3c0,0.1,0,0.3,0,0.4c0.1,0.2,0.1,0.3,0.2,0.5c0,0,0,0.1,0.1,0.1
		c0,0.1,0.1,0.1,0.2,0.2c0,0,0.1,0.1,0.2,0.1c0.1,0,0.2,0.1,0.3,0c0.1,0,0.1,0,0.2,0c0.1,0,0.1,0,0.2-0.1c0.1,0,0.2-0.1,0.2-0.1
		c0.1-0.1,0.1-0.1,0.1-0.2c0.1-0.2,0.1-0.3,0.2-0.5c0-0.1,0-0.3,0-0.4C425.8,421.7,425.7,421.6,425.6,421.5z"/>
	<path id="XMLID_216_" class="st5" d="M419,419.4c-0.1-0.2-0.2-0.4-0.4-0.6c-0.1-0.1-0.2-0.1-0.2-0.2c-0.2-0.2-0.5-0.3-0.8-0.4
		c-0.3-0.1-0.7-0.1-1,0c-0.6,0.1-1.2,0.5-1.3,1c-0.2,0.5,0,1.1,0.5,1.4c0.5,0.4,1.2,0.5,1.9,0.4l0.3-0.1c0.6-0.1,1-0.5,1.2-0.9
		C419.1,419.9,419.1,419.6,419,419.4z"/>
	<path id="XMLID_215_" class="st5" d="M445.6,412.9c-1.1,0-1.1,1.3,0,1.3C446.7,414.2,446.7,412.9,445.6,412.9z"/>
	<path id="XMLID_214_" class="st5" d="M430.1,415.3c-0.9,0-0.9,1.1,0,1.1C431,416.3,431,415.3,430.1,415.3z"/>
	<path id="XMLID_213_" class="st5" d="M435.3,410.8c-0.8,0-0.8,1,0,1C436.1,411.8,436.1,410.8,435.3,410.8z"/>
	<path id="XMLID_212_" class="st5" d="M430.1,406.9c-0.7,0-0.7,0.8,0,0.8C430.8,407.7,430.8,406.9,430.1,406.9z"/>
	<path id="XMLID_211_" class="st5" d="M432.3,403.6c-0.5,0-0.6,0.7,0,0.7C432.9,404.2,432.9,403.6,432.3,403.6z"/>
	<path id="XMLID_210_" class="st5" d="M418.8,385.9c-0.1-0.1-0.3-0.2-0.5-0.2c-0.1,0-0.2,0-0.3,0.1c-0.1,0-0.2,0.1-0.2,0.1
		c-0.1,0.1-0.2,0.2-0.2,0.3c0,0.1,0,0.2,0,0.3c0,0.2,0.1,0.4,0.1,0.5l0.1,0.1c0,0.1,0.1,0.1,0.2,0.1c0,0,0.1,0.1,0.1,0.1
		c0.1,0,0.2,0,0.2,0c0.1,0,0.1,0,0.2,0l0.2,0c0.1,0,0.1-0.1,0.2-0.1c0.1,0,0.1-0.1,0.1-0.2c0-0.2,0.1-0.4,0.1-0.5c0-0.1,0-0.2,0-0.3
		C419,386.1,418.9,386,418.8,385.9z"/>
	<path id="XMLID_209_" class="st5" d="M418,368.3c0-0.1,0-0.2,0-0.3c0-0.1-0.1-0.2-0.2-0.3c-0.1-0.1-0.1-0.1-0.2-0.2
		c-0.1-0.1-0.3-0.2-0.5-0.2c0,0-0.1,0-0.1,0c0,0-0.1,0-0.1,0c0,0-0.1,0-0.1,0c-0.1,0-0.1,0-0.2,0c-0.2,0-0.4,0-0.5,0
		c-0.2,0-0.3,0-0.5,0.1c-0.2,0.1-0.3,0.2-0.4,0.3c-0.1,0.1-0.2,0.2-0.2,0.4c0,0.1,0,0.2,0,0.3c0,0.2,0.1,0.4,0.2,0.5
		c0.1,0.1,0.1,0.1,0.2,0.2c0.2,0.1,0.4,0.2,0.6,0.3c0,0,0,0,0.1,0c0,0,0,0,0,0c0.1,0.1,0.2,0.2,0.4,0.2c0.1,0,0.2,0.1,0.3,0.1
		c0.2,0,0.3,0,0.5,0c0.1,0,0.2,0,0.3-0.1c0.2,0,0.3-0.1,0.4-0.2l0.2-0.2c0.1-0.1,0.2-0.3,0.2-0.5C418,368.5,418,368.4,418,368.3z"/>
	<path id="XMLID_208_" class="st5" d="M388,379.5c-0.9,0-0.9,1.1,0,1.1C388.9,380.6,388.9,379.5,388,379.5z"/>
	<path id="XMLID_207_" class="st5" d="M391,384.1c-0.9,0-0.9,1.1,0,1.1C391.9,385.1,391.9,384.1,391,384.1z"/>
	<path id="XMLID_206_" class="st5" d="M380.6,388c-0.9,0-0.9,1.1,0,1.1C381.5,389.1,381.5,388,380.6,388z"/>
	<path id="XMLID_205_" class="st5" d="M374,385.8c-0.8,0-0.8,1,0,1C374.8,386.8,374.8,385.8,374,385.8z"/>
	<path id="XMLID_204_" class="st5" d="M364.5,374.8c0-0.1-0.1-0.1-0.1-0.2c-0.1-0.1-0.1-0.1-0.2-0.2c-0.1-0.1-0.2-0.1-0.3-0.1
		l-0.3-0.1c-0.2,0-0.4-0.1-0.6-0.1c-0.1,0-0.3,0-0.4,0.1c-0.1,0-0.2,0.1-0.3,0.2c-0.1,0.1-0.2,0.2-0.2,0.2c-0.1,0.1-0.1,0.2-0.1,0.3
		l0,0.2c0,0.1,0.1,0.2,0.3,0.3c0.1,0,0.1,0.1,0.2,0.1c0.2,0.1,0.3,0.1,0.5,0.1c0.2,0,0.4,0,0.6-0.1l0.3-0.1c0.1,0,0.1,0,0.2-0.1
		c0.1,0,0.2-0.1,0.2-0.2c0.1,0,0.1-0.1,0.1-0.1c0.1-0.1,0.1-0.2,0.1-0.3C364.5,374.9,364.5,374.9,364.5,374.8z"/>
	<path id="XMLID_203_" class="st5" d="M397.9,482.9c-0.1-0.2-0.2-0.3-0.3-0.5c-0.1-0.2-0.3-0.3-0.5-0.4c0,0-0.1,0-0.1-0.1
		c0,0,0,0,0,0c-0.1-0.1-0.2-0.1-0.3-0.1c-0.1-0.1-0.3-0.1-0.5-0.1c-0.1,0-0.2,0-0.3,0c-0.1,0-0.2,0.1-0.3,0.1
		c-0.1,0-0.1,0.1-0.1,0.1c-0.1,0-0.1,0-0.2,0.1c-0.1,0.1-0.3,0.1-0.4,0.2c-0.2,0.1-0.3,0.3-0.4,0.5c-0.1,0.2-0.2,0.4-0.2,0.6
		c0,0.2,0,0.4,0.2,0.6c0.1,0.2,0.2,0.3,0.4,0.5c0.2,0.1,0.4,0.2,0.6,0.3c0.2,0.1,0.5,0.1,0.7,0.1c0.2,0,0.3,0,0.5-0.1
		c0.3-0.1,0.6-0.2,0.8-0.4c0.1-0.1,0.2-0.2,0.3-0.3c0.2-0.2,0.3-0.5,0.3-0.7C398,483.2,398,483.1,397.9,482.9z"/>
	<path id="XMLID_202_" class="st5" d="M384.3,478.8c-0.9,0-0.9,1.1,0,1.1C385.2,479.9,385.2,478.8,384.3,478.8z"/>
	<path id="XMLID_201_" class="st5" d="M396.4,476.8c-0.1-0.1-0.2-0.1-0.3-0.1c-0.1,0-0.2,0-0.3,0.1c-0.3,0.2-0.5,0.4-0.8,0.5
		c-0.1,0.1-0.1,0.2-0.1,0.3c0,0.1,0.1,0.2,0.1,0.3c0.1,0.1,0.2,0.1,0.3,0.1c0.1,0,0.2,0,0.3-0.1c0.2-0.2,0.5-0.4,0.7-0.6
		c0.1-0.1,0.1-0.1,0.1-0.2C396.6,477,396.5,476.9,396.4,476.8z"/>
	<path id="XMLID_200_" class="st5" d="M390.7,470.7C390.7,470.7,390.7,470.7,390.7,470.7c0-0.1-0.1-0.2-0.1-0.2c0,0-0.1-0.1-0.2-0.1
		c-0.1,0-0.1,0-0.2,0c-0.1,0-0.3,0-0.4,0.1c0,0-0.1,0.1-0.1,0.1c0,0,0,0.1,0,0.1c-0.7,0.3-0.6,1.4,0.5,1.4
		C391.3,472.2,391.5,471.1,390.7,470.7z"/>
	<path id="XMLID_199_" class="st5" d="M383.9,463.8C383.9,463.8,383.9,463.7,383.9,463.8c-0.1-0.1-0.1-0.1-0.2-0.1
		c-0.1,0-0.2,0-0.3-0.1c-0.1,0-0.1,0-0.2,0l-0.4,0c-0.1,0-0.2,0-0.2,0c-0.1,0-0.1,0.1-0.2,0.1c-0.1,0-0.1,0.1-0.1,0.2
		c0,0.1-0.1,0.1-0.1,0.2c0,0.1,0.1,0.3,0.2,0.3c0,0,0.1,0.1,0.1,0.1c0.1,0,0.2,0.1,0.3,0.1c0.1,0,0.3,0,0.4,0c0.1,0,0.1,0,0.2,0
		c0.1,0,0.2,0,0.3-0.1c0,0,0.1-0.1,0.1-0.1c0,0,0,0,0.1,0c0,0,0.1-0.1,0.1-0.1c0,0,0-0.1,0-0.1C384.1,463.9,384,463.8,383.9,463.8z"
		/>
	<path id="XMLID_198_" class="st5" d="M390.2,460.8c-0.7,0-0.7,0.8,0,0.8C390.9,461.6,390.9,460.8,390.2,460.8z"/>
	<path id="XMLID_197_" class="st5" d="M392.5,453.4c-0.8,0-0.8,0.9,0,0.9C393.2,454.3,393.2,453.4,392.5,453.4z"/>
	<path id="XMLID_196_" class="st5" d="M401.3,469.7c-0.9,0-0.9,1.1,0,1.1C402.3,470.8,402.3,469.7,401.3,469.7z"/>
	<path id="XMLID_195_" class="st5" d="M420.5,460.7c-0.9,0-0.9,1.1,0,1.1C421.4,461.7,421.4,460.7,420.5,460.7z"/>
	<path id="XMLID_194_" class="st5" d="M335.6,501c-0.7,0-0.7,0.9,0,0.9C336.4,501.9,336.4,501,335.6,501z"/>
	<g id="XMLID_191_">
		<path id="XMLID_193_" class="st5" d="M342.3,500.4C342.4,500.4,342.3,500.4,342.3,500.4L342.3,500.4z"/>
		<path id="XMLID_192_" class="st5" d="M345.5,497.3c-0.1-0.1-0.4-0.1-0.5,0c-0.1,0.1-0.1,0.1-0.2,0.2c0,0,0,0.1,0,0.1c0,0,0,0,0,0
			c0,0,0,0,0,0c0,0-0.1,0.1-0.1,0.1c0,0,0,0,0,0c0,0,0,0-0.1,0.1c-0.2,0.2-0.5,0.4-0.8,0.6c-0.1,0.1-0.3,0.2-0.4,0.3
			c0,0-0.1,0.1,0,0c0,0-0.1,0-0.1,0.1c-0.1,0-0.2,0.1-0.2,0.1c-0.3,0.2-0.6,0.4-1,0.5c-0.3,0.2-0.6,0.4-0.9,0.6
			c-0.2,0.2-0.2,0.5,0,0.7c0.2,0.2,0.6,0.2,0.9,0c0.1-0.1,0.2-0.1,0.3-0.2c0,0,0,0,0,0c0,0,0,0,0,0c0,0,0.1,0,0.1-0.1
			c0.1,0,0.2-0.1,0.2-0.1c0.3-0.2,0.7-0.4,1-0.5c0.4-0.2,0.7-0.4,1.1-0.7c0.3-0.2,0.6-0.4,0.8-0.7
			C345.6,498,345.8,497.6,345.5,497.3z"/>
	</g>
	<path id="XMLID_190_" class="st5" d="M335.6,489.6c-0.9,0-0.9,1,0,1C336.5,490.6,336.5,489.6,335.6,489.6z"/>
	<path id="XMLID_189_" class="st5" d="M348.9,493c-0.8,0-0.8,1,0,1C349.7,494,349.7,493,348.9,493z"/>
	<path id="XMLID_188_" class="st5" d="M348.3,488.8c-0.3-0.2-0.6-0.3-0.9-0.5c0,0,0.1,0,0,0c0,0,0,0,0,0c0,0-0.1,0-0.1-0.1
		c0,0-0.1,0-0.1-0.1c0,0,0,0,0,0c0,0,0,0,0,0c0-0.1-0.1-0.1-0.1-0.2c0,0,0-0.1-0.1-0.1c0,0,0,0,0-0.1c0,0,0,0,0,0c0,0,0,0,0,0
		c0-0.1-0.2-0.2-0.3-0.1c-0.1,0-0.2,0.1-0.2,0.2c0,0.2,0.1,0.3,0.2,0.4c0.1,0.1,0.2,0.2,0.3,0.3c0.3,0.2,0.7,0.4,1,0.5
		c0.1,0.1,0.3,0,0.4-0.1C348.5,489,348.5,488.9,348.3,488.8z"/>
	<path id="XMLID_187_" class="st5" d="M354.1,482.6c-0.2,0-0.2,0.2,0,0.2C354.3,482.9,354.3,482.6,354.1,482.6z"/>
	<path id="XMLID_186_" class="st5" d="M261,350.3c-1.4,0-1.4,1.6,0,1.6C262.4,352,262.4,350.3,261,350.3z"/>
	<path id="XMLID_185_" class="st5" d="M249.2,350c-1,0-1,1.2,0,1.2C250.2,351.2,250.2,350,249.2,350z"/>
	<path id="XMLID_184_" class="st5" d="M253.3,346.3c-0.1,0-0.1-0.1-0.2-0.1c-0.1,0-0.2,0-0.3,0c0,0-0.1,0-0.1,0c0,0-0.1,0-0.1,0
		c-0.1,0-0.1,0.1-0.2,0.1c0,0,0,0,0,0c0,0,0,0,0,0c-0.1,0-0.1,0.1-0.2,0.1c-0.1,0.1-0.3,0.2-0.4,0.3c-0.1,0-0.1,0.1-0.1,0.2
		c0,0.1-0.1,0.1-0.1,0.2c0,0.1,0,0.1,0.1,0.2c0,0.1,0.1,0.1,0.1,0.2c0.1,0.1,0.3,0.2,0.5,0.2c0.1,0,0.1,0,0.2,0
		c0.1,0,0.2-0.1,0.3-0.1c0.1-0.1,0.2-0.2,0.3-0.3c0.1-0.1,0.1-0.1,0.2-0.2c0,0,0,0,0,0c0,0,0.1-0.1,0.1-0.1c0,0,0-0.1,0.1-0.1l0,0
		c0,0,0,0,0,0c0,0,0-0.1,0-0.1c0-0.1,0-0.1,0-0.2C253.4,346.4,253.3,346.4,253.3,346.3z"/>
	<path id="XMLID_183_" class="st5" d="M252.2,342.7c-0.9,0-0.9,1.1,0,1.1C253.1,343.7,253.1,342.7,252.2,342.7z"/>
	<path id="XMLID_182_" class="st5" d="M241,343.3c0,0,0-0.1,0-0.1c0-0.1-0.1-0.1-0.1-0.2c0-0.1-0.1-0.1-0.2-0.1c0,0,0,0,0,0
		c0,0,0,0,0,0c-0.1,0-0.2-0.1-0.3-0.1c-0.1,0-0.2,0-0.3,0.1c0,0,0,0,0,0c0,0-0.1,0.1-0.1,0.1c-0.1,0.1-0.2,0.2-0.2,0.2
		c0,0,0,0.1,0,0.1l-0.1,0.3c0,0.1,0,0.2,0,0.3c0,0.1,0.1,0.2,0.2,0.3c0.1,0.1,0.3,0.2,0.5,0.2c0.1,0,0.2,0,0.3,0
		c0.1,0,0.2-0.1,0.2-0.1c0.1-0.1,0.2-0.2,0.2-0.3c0-0.1,0-0.2,0-0.3L241,343.3z"/>
	<path id="XMLID_181_" class="st5" d="M237.4,334.1c-0.9,0-0.9,1.1,0,1.1C238.4,335.3,238.4,334.1,237.4,334.1z"/>
	<path id="XMLID_180_" class="st5" d="M269.6,346.8c-0.1-0.3-0.3-0.5-0.5-0.7l-0.4-0.2c-0.2-0.1-0.4-0.2-0.7-0.2c-0.2,0-0.4,0-0.7,0
		c-0.2,0-0.5,0.1-0.7,0.2c-0.2,0.1-0.4,0.2-0.6,0.4c-0.2,0.1-0.3,0.3-0.4,0.5c-0.1,0.2-0.1,0.4,0,0.6c0,0.2,0.1,0.4,0.2,0.6
		c0.2,0.2,0.4,0.4,0.7,0.5c0.2,0.1,0.3,0.1,0.5,0.2c0.3,0.1,0.7,0.1,1,0c0.3,0,0.5-0.1,0.7-0.3c0.2-0.1,0.4-0.2,0.5-0.4
		c0.2-0.2,0.3-0.5,0.3-0.8L269.6,346.8z"/>
	<path id="XMLID_179_" class="st5" d="M251.5,361.3c-1.1,0-1.1,1.3,0,1.3C252.6,362.6,252.6,361.3,251.5,361.3z"/>
	<path id="XMLID_178_" class="st5" d="M224.9,360.3c-0.7,0-0.7,0.9,0,0.9C225.6,361.2,225.6,360.3,224.9,360.3z"/>
	<path id="XMLID_177_" class="st5" d="M235.9,373.2c-0.2,0-0.2,0.2,0,0.2C236.1,373.4,236.1,373.2,235.9,373.2z"/>
	<path id="XMLID_176_" class="st5" d="M374.6,272.4c-0.1,0-0.1-0.1-0.2-0.1c-0.1-0.1-0.3-0.1-0.4-0.1c-0.1,0-0.2,0-0.3,0.1
		c-0.1,0-0.2,0.1-0.3,0.1c-0.1,0.1-0.2,0.2-0.2,0.3c0,0.1,0,0.2,0,0.3c0,0.1,0,0.2,0.1,0.3c0,0,0,0.1,0,0.1c0,0.1,0.2,0.3,0.4,0.3
		c0,0,0,0,0,0c0.1,0,0.2,0.1,0.3,0.1c0.1,0,0.2,0,0.3-0.1c0,0,0,0,0,0c0,0,0,0,0,0c0.1,0,0.1,0,0.2-0.1c0.1,0,0.1-0.1,0.1-0.2
		c0,0,0-0.1,0-0.1c0,0,0,0,0,0c0,0,0-0.1,0-0.1c0-0.1,0-0.2,0.1-0.3c0-0.1,0-0.2,0-0.3C374.7,272.6,374.7,272.5,374.6,272.4z"/>
	<path id="XMLID_175_" class="st5" d="M362.9,273c-0.7,0-0.7,0.8,0,0.8C363.6,273.8,363.6,273,362.9,273z"/>
	<path id="XMLID_174_" class="st5" d="M366.6,267.4c-0.6,0-0.6,0.7,0,0.7C367.2,268.1,367.2,267.4,366.6,267.4z"/>
	<path id="XMLID_173_" class="st5" d="M366.6,264.4c-0.8,0-0.8,1,0,1C367.4,265.4,367.4,264.4,366.6,264.4z"/>
	<path id="XMLID_172_" class="st5" d="M357.8,265.6c-0.7,0-0.7,0.9,0,0.9C358.5,266.5,358.5,265.6,357.8,265.6z"/>
	<path id="XMLID_171_" class="st5" d="M361.4,258.1c-0.9,0-0.9,1.1,0,1.1C362.3,259.2,362.3,258.1,361.4,258.1z"/>
	<path id="XMLID_170_" class="st5" d="M353.3,258.2c-0.7,0-0.7,0.9,0,0.9C354.1,259.1,354.1,258.2,353.3,258.2z"/>
	<path id="XMLID_169_" class="st5" d="M356.1,241.4c-0.1-0.2-0.2-0.3-0.3-0.4c-0.1-0.1-0.2-0.1-0.3-0.2c-0.2-0.1-0.4-0.1-0.7-0.1
		c-0.2,0-0.3,0-0.5,0.1c-0.2,0-0.3,0.1-0.4,0.2c-0.3,0.3-0.5,0.6-0.3,1c0,0.1,0.1,0.3,0.1,0.4c0,0.1,0.1,0.1,0.1,0.2
		c0.1,0.1,0.2,0.2,0.3,0.2c0.1,0.1,0.2,0.1,0.3,0.1c0.1,0.1,0.3,0.1,0.4,0.1c0.1,0,0.2,0,0.3,0c0.1,0,0.2-0.1,0.3-0.1
		c0.1-0.1,0.2-0.1,0.3-0.2c0.1-0.1,0.2-0.2,0.2-0.3c0-0.1,0.1-0.3,0.1-0.4C356.1,241.8,356.1,241.6,356.1,241.4z"/>
	<path id="XMLID_168_" class="st5" d="M827.4,348.1c-0.9,0-0.9,1.1,0,1.1C828.3,349.2,828.3,348.1,827.4,348.1z"/>
	<path id="XMLID_167_" class="st5" d="M817.1,345.8c-0.9,0-0.9,1.1,0,1.1C818,347,818,345.8,817.1,345.8z"/>
	<path id="XMLID_166_" class="st5" d="M816.3,340.2c-0.9,0-0.9,1.1,0,1.1C817.2,341.2,817.2,340.2,816.3,340.2z"/>
	<path id="XMLID_165_" class="st5" d="M800.8,340.2c-0.9,0-0.9,1.1,0,1.1C801.7,341.3,801.7,340.2,800.8,340.2z"/>
	<path id="XMLID_164_" class="st5" d="M797.1,329.5c-0.7,0-0.7,0.8,0,0.8C797.8,330.4,797.8,329.5,797.1,329.5z"/>
	<path id="XMLID_163_" class="st5" d="M549.4,61.2c-0.9,0-0.9,1.1,0,1.1C550.3,62.2,550.3,61.2,549.4,61.2z"/>
	<path id="XMLID_162_" class="st5" d="M539,58.9c-0.9,0-0.9,1.1,0,1.1C540,60,540,58.9,539,58.9z"/>
	<path id="XMLID_161_" class="st5" d="M538.3,53.2c-0.9,0-0.9,1.1,0,1.1C539.2,54.3,539.2,53.2,538.3,53.2z"/>
	<path id="XMLID_160_" class="st5" d="M522.8,53.2c-0.9,0-0.9,1.1,0,1.1C523.7,54.3,523.7,53.2,522.8,53.2z"/>
	<path id="XMLID_159_" class="st5" d="M519.1,42.6c-0.7,0-0.7,0.8,0,0.8C519.8,43.4,519.8,42.6,519.1,42.6z"/>
	<path id="XMLID_158_" class="st5" d="M781.6,315.9c-0.6,0-0.6,0.8,0,0.8C782.3,316.7,782.3,315.9,781.6,315.9z"/>
	<path id="XMLID_157_" class="st5" d="M789,313.5c-0.9,0-0.9,1.1,0,1.1C789.9,314.6,789.9,313.5,789,313.5z"/>
	<path id="XMLID_156_" class="st5" d="M806,317c-0.8,0-0.8,0.9,0,0.9C806.7,317.9,806.7,317,806,317z"/>
	<path id="XMLID_155_" class="st5" d="M807.5,326c-0.9,0-0.9,1.1,0,1.1C808.3,327.1,808.3,326,807.5,326z"/>
	<path id="XMLID_154_" class="st5" d="M822.2,319.9c-0.7,0-0.7,0.8,0,0.8C822.9,320.7,822.9,319.9,822.2,319.9z"/>
	<path id="XMLID_153_" class="st5" d="M801.5,360.5c-1.1,0-1.1,1.4,0,1.4C802.7,361.8,802.7,360.5,801.5,360.5z"/>
	<path id="XMLID_152_" class="st5" d="M854.7,356.8c-0.7,0-0.7,0.8,0,0.8C855.4,357.6,855.4,356.8,854.7,356.8z"/>
	<path id="XMLID_151_" class="st5" d="M858.4,351.1c-0.6,0-0.6,0.7,0,0.7C859,351.9,859,351.1,858.4,351.1z"/>
	<path id="XMLID_150_" class="st5" d="M858.4,348.2c-0.8,0-0.8,1,0,1C859.2,349.2,859.2,348.2,858.4,348.2z"/>
	<path id="XMLID_149_" class="st5" d="M849.5,349.4c-0.7,0-0.7,0.9,0,0.9C850.3,350.2,850.3,349.4,849.5,349.4z"/>
	<path id="XMLID_148_" class="st5" d="M853.2,341.9c-0.9,0-0.9,1.1,0,1.1C854.1,343,854.1,341.9,853.2,341.9z"/>
	<path id="XMLID_147_" class="st5" d="M845.1,342c-0.7,0-0.7,0.9,0,0.9C845.9,342.9,845.9,342,845.1,342z"/>
	<path id="XMLID_146_" class="st5" d="M847.8,325.1c-0.1-0.2-0.2-0.3-0.3-0.4c-0.1-0.1-0.2-0.1-0.3-0.2c-0.2-0.1-0.4-0.1-0.7-0.1
		c-0.2,0-0.3,0-0.5,0.1c-0.2,0-0.3,0.1-0.4,0.2c-0.3,0.3-0.5,0.6-0.3,1c0,0.1,0.1,0.3,0.1,0.4c0,0.1,0.1,0.1,0.1,0.2
		c0.1,0.1,0.2,0.2,0.3,0.2c0.1,0.1,0.2,0.1,0.3,0.1c0.1,0.1,0.3,0.1,0.4,0.1c0.1,0,0.2,0,0.3,0c0.1,0,0.2-0.1,0.3-0.1
		c0.1-0.1,0.2-0.1,0.3-0.2c0.1-0.1,0.2-0.2,0.2-0.3c0-0.1,0.1-0.3,0.1-0.4C847.9,325.5,847.9,325.3,847.8,325.1z"/>
	<path id="XMLID_145_" class="st5" d="M376.2,264.2c-2.1,0-2.1,2.6,0,2.6C378.3,266.8,378.4,264.2,376.2,264.2z"/>
	<path id="XMLID_144_" class="st5" d="M768.5,48.7c-0.9,0-0.9,1.1,0,1.1C769.4,49.7,769.4,48.7,768.5,48.7z"/>
	<path id="XMLID_143_" class="st5" d="M758.2,46.4c-0.9,0-0.9,1.1,0,1.1C759.1,47.5,759.1,46.4,758.2,46.4z"/>
	<path id="XMLID_142_" class="st5" d="M757.4,40.7c-0.9,0-0.9,1.1,0,1.1C758.3,41.8,758.3,40.7,757.4,40.7z"/>
	<path id="XMLID_141_" class="st5" d="M741.9,40.7c-0.9,0-0.9,1.1,0,1.1C742.8,41.8,742.8,40.7,741.9,40.7z"/>
	<path id="XMLID_140_" class="st5" d="M738.2,30.1c-0.7,0-0.7,0.8,0,0.8C739,30.9,739,30.1,738.2,30.1z"/>
	<path id="XMLID_139_" class="st5" d="M722.7,16.5c-0.6,0-0.6,0.8,0,0.8C723.4,17.3,723.4,16.5,722.7,16.5z"/>
	<path id="XMLID_138_" class="st5" d="M730.1,14.1c-0.9,0-0.9,1.1,0,1.1C731,15.1,731,14.1,730.1,14.1z"/>
	<path id="XMLID_137_" class="st5" d="M747.1,17.5c-0.8,0-0.8,0.9,0,0.9C747.9,18.5,747.9,17.5,747.1,17.5z"/>
	<path id="XMLID_136_" class="st5" d="M748.6,26.6c-0.9,0-0.9,1.1,0,1.1C749.5,27.6,749.5,26.6,748.6,26.6z"/>
	<path id="XMLID_135_" class="st5" d="M763.3,20.4c-0.7,0-0.7,0.8,0,0.8C764,21.2,764,20.4,763.3,20.4z"/>
	<path id="XMLID_134_" class="st5" d="M709.5,50.4c-0.8,0-0.8,1,0,1C710.3,51.4,710.3,50.4,709.5,50.4z"/>
	<path id="XMLID_133_" class="st5" d="M742.7,61c-1.1,0-1.1,1.4,0,1.4C743.8,62.4,743.8,61,742.7,61z"/>
	<path id="XMLID_132_" class="st5" d="M807.5,56.7c-0.1,0-0.1-0.1-0.2-0.1c-0.1-0.1-0.3-0.1-0.4-0.1c-0.1,0-0.2,0-0.3,0.1
		c-0.1,0-0.2,0.1-0.3,0.1c-0.1,0.1-0.2,0.2-0.2,0.3c0,0.1,0,0.2,0,0.3c0,0.1,0,0.2,0.1,0.3c0,0,0,0.1,0,0.1c0,0.1,0.2,0.3,0.4,0.3
		c0,0,0,0,0,0c0.1,0,0.2,0.1,0.3,0.1c0.1,0,0.2,0,0.3-0.1c0,0,0,0,0,0c0,0,0,0,0,0c0.1,0,0.1,0,0.2-0.1c0.1,0,0.1-0.1,0.1-0.2
		c0,0,0-0.1,0-0.1c0,0,0,0,0,0c0,0,0-0.1,0-0.1c0-0.1,0-0.2,0.1-0.3c0-0.1,0-0.2,0-0.3C807.7,56.9,807.6,56.8,807.5,56.7z"/>
	<path id="XMLID_131_" class="st5" d="M795.8,57.3c-0.7,0-0.7,0.8,0,0.8C796.5,58.1,796.5,57.3,795.8,57.3z"/>
	<path id="XMLID_130_" class="st5" d="M799.5,51.7c-0.6,0-0.6,0.7,0,0.7C800.1,52.4,800.1,51.7,799.5,51.7z"/>
	<path id="XMLID_129_" class="st5" d="M799.5,48.7c-0.8,0-0.8,1,0,1C800.3,49.7,800.3,48.7,799.5,48.7z"/>
	<path id="XMLID_128_" class="st5" d="M790.7,49.9c-0.7,0-0.7,0.9,0,0.9C791.4,50.8,791.4,49.9,790.7,49.9z"/>
	<path id="XMLID_127_" class="st5" d="M794.4,42.4c-0.9,0-0.9,1.1,0,1.1C795.3,43.5,795.3,42.4,794.4,42.4z"/>
	<path id="XMLID_126_" class="st5" d="M786.2,42.5c-0.7,0-0.7,0.9,0,0.9C787,43.4,787,42.5,786.2,42.5z"/>
	<path id="XMLID_125_" class="st5" d="M789,25.7c-0.1-0.2-0.2-0.3-0.3-0.4c-0.1-0.1-0.2-0.1-0.3-0.2c-0.2-0.1-0.4-0.1-0.7-0.1
		c-0.2,0-0.3,0-0.5,0.1c-0.2,0-0.3,0.1-0.4,0.2c-0.3,0.3-0.5,0.6-0.3,1c0,0.1,0.1,0.3,0.1,0.4c0,0.1,0.1,0.1,0.1,0.2
		c0.1,0.1,0.2,0.2,0.3,0.2c0.1,0.1,0.2,0.1,0.3,0.1c0.1,0.1,0.3,0.1,0.4,0.1c0.1,0,0.2,0,0.3,0c0.1,0,0.2-0.1,0.3-0.1
		c0.1-0.1,0.2-0.1,0.3-0.2c0.1-0.1,0.2-0.2,0.2-0.3c0-0.1,0.1-0.3,0.1-0.4C789,26,789,25.9,789,25.7z"/>
	<path id="XMLID_124_" class="st5" d="M809.1,48.5c-2.1,0-2.1,2.6,0,2.6C811.3,51,811.3,48.5,809.1,48.5z"/>
	<path id="XMLID_123_" class="st5" d="M399.8,205.3c-1.1,0-1.1,1.3,0,1.3C400.9,206.6,400.9,205.3,399.8,205.3z"/>
	<path id="XMLID_122_" class="st5" d="M391,201.3C390.9,201.3,390.9,201.4,391,201.3C391.1,201.4,391.1,201.3,391,201.3z"/>
	<path id="XMLID_121_" class="st5" d="M393.2,195.2c-0.9,0-0.9,1.1,0,1.1C394.1,196.2,394.1,195.2,393.2,195.2z"/>
	<path id="XMLID_120_" class="st5" d="M396.9,190.1c-0.9,0-0.9,1,0,1C397.7,191.1,397.7,190.1,396.9,190.1z"/>
	<path id="XMLID_119_" class="st5" d="M387.3,188.3c-1,0-1,1.1,0,1.1C388.2,189.5,388.2,188.3,387.3,188.3z"/>
	<path id="XMLID_118_" class="st5" d="M390.2,182.2c-0.8,0-0.8,0.9,0,0.9C391,183.1,391,182.2,390.2,182.2z"/>
	<path id="XMLID_117_" class="st5" d="M393.2,178.8c-0.8,0-0.8,1,0,1C394,179.8,394,178.8,393.2,178.8z"/>
	<path id="XMLID_116_" class="st5" d="M379.9,181.6c-0.9,0-0.9,1.1,0,1.1C380.8,182.6,380.8,181.6,379.9,181.6z"/>
	<path id="XMLID_115_" class="st5" d="M382.9,170.8c-0.9,0-0.9,1,0,1C383.7,171.8,383.7,170.8,382.9,170.8z"/>
	<path id="XMLID_114_" class="st5" d="M364.4,169.7c-0.8,0-0.8,1,0,1C365.2,170.7,365.2,169.7,364.4,169.7z"/>
	<path id="XMLID_113_" class="st5" d="M350.4,161.9c-0.6,0-0.6,0.8,0,0.8C351,162.6,351,161.9,350.4,161.9z"/>
	<path id="XMLID_112_" class="st5" d="M354.1,146.4c-0.8,0-0.8,1,0,1C354.9,147.4,354.9,146.4,354.1,146.4z"/>
	<path id="XMLID_111_" class="st5" d="M340.8,144.4c-2.3,0-2.3,2.8,0,2.8C343.1,147.2,343.1,144.4,340.8,144.4z"/>
	<path id="XMLID_110_" class="st5" d="M337.8,157.7c-1,0-1,1.2,0,1.2C338.8,158.9,338.8,157.7,337.8,157.7z"/>
	<path id="XMLID_109_" class="st5" d="M343.7,149.8c-0.9,0-0.9,1.1,0,1.1C344.7,150.9,344.7,149.8,343.7,149.8z"/>
	<path id="XMLID_108_" class="st5" d="M337.8,149.9c-0.8,0-0.8,0.9,0,0.9C338.6,150.8,338.6,149.9,337.8,149.9z"/>
	<path id="XMLID_107_" class="st5" d="M296.5,153.2c-0.9,0-0.9,1.1,0,1.1C297.4,154.3,297.4,153.2,296.5,153.2z"/>
	<path id="XMLID_106_" class="st5" d="M284.7,152.2c-0.7,0-0.7,0.9,0,0.9C285.4,153,285.4,152.2,284.7,152.2z"/>
	<path id="XMLID_105_" class="st5" d="M292.1,147c-0.9,0-0.9,1.1,0,1.1C292.9,148,292.9,147,292.1,147z"/>
	<path id="XMLID_104_" class="st5" d="M285.4,141.9c-0.8,0-0.8,1,0,1C286.3,142.9,286.3,141.9,285.4,141.9z"/>
	<path id="XMLID_103_" class="st5" d="M292.8,136.8c-0.8,0-0.8,1,0,1C293.6,137.8,293.6,136.8,292.8,136.8z"/>
	<path id="XMLID_102_" class="st5" d="M288.8,126.3c-0.1-0.2-0.2-0.3-0.3-0.4c-0.1-0.1-0.2-0.2-0.3-0.3c-0.1-0.1-0.2-0.1-0.4-0.2
		c-0.1,0-0.3-0.1-0.4-0.1c-0.2-0.1-0.5-0.1-0.7,0c-0.2,0-0.3,0-0.5,0.1c-0.2,0-0.3,0.1-0.4,0.2c-0.1,0.1-0.2,0.1-0.3,0.2
		c-0.1,0.1-0.2,0.2-0.2,0.3c-0.1,0.2-0.2,0.3-0.2,0.5c0,0.1,0,0.2,0.1,0.4c0.1,0.1,0.1,0.2,0.2,0.3c0.1,0.1,0.2,0.2,0.3,0.3
		c0.1,0.1,0.2,0.1,0.4,0.2c0.1,0,0.3,0.1,0.4,0.1c0.2,0.1,0.5,0.1,0.7,0c0.2,0,0.3,0,0.5-0.1c0.2-0.1,0.4-0.2,0.6-0.3
		c0.1-0.1,0.2-0.2,0.3-0.3c0.1-0.1,0.2-0.2,0.3-0.3c0.1-0.1,0.1-0.2,0.1-0.4C288.8,126.4,288.8,126.3,288.8,126.3z"/>
	<path id="XMLID_101_" class="st5" d="M290.8,193.7c0-0.1-0.1-0.2-0.2-0.3c-0.3-0.2-0.7-0.3-1-0.2c-0.2,0-0.5,0.1-0.7,0.1
		c-0.1,0-0.1,0-0.2,0.1c-0.1,0-0.2,0.1-0.2,0.2c-0.1,0-0.1,0.1-0.1,0.1c-0.1,0.1-0.1,0.2-0.1,0.3c0,0.1,0,0.1,0,0.2
		c0,0.1,0.1,0.1,0.1,0.2c0.1,0.1,0.1,0.1,0.2,0.2c0.1,0.1,0.2,0.1,0.3,0.1c0.2,0,0.5,0.1,0.7,0.1c0.2,0,0.4,0,0.6,0
		c0.2,0,0.3-0.1,0.5-0.2c0.1-0.1,0.1-0.1,0.2-0.2c0.1-0.1,0.1-0.3,0.1-0.4C290.9,193.9,290.9,193.8,290.8,193.7z"/>
	<path id="XMLID_100_" class="st5" d="M279.4,191.3l0-0.1c0-0.1-0.1-0.2-0.2-0.2c0,0-0.1-0.1-0.1-0.1c0,0,0,0,0,0
		c-0.1,0-0.2-0.1-0.3-0.1c-0.1,0-0.2,0-0.3,0.1c0,0,0,0,0,0c0,0-0.1,0.1-0.1,0.1c-0.1,0.1-0.1,0.1-0.2,0.2c0,0,0,0.1,0,0.1
		c0,0.1-0.1,0.2-0.1,0.3c0,0.1,0,0.2,0,0.3c0,0.1,0.1,0.2,0.2,0.3c0.1,0,0.1,0.1,0.2,0.1c0.1,0.1,0.3,0.1,0.4,0.1
		c0.1,0,0.2,0,0.3-0.1c0.1,0,0.2-0.1,0.3-0.1c0.1-0.1,0.2-0.2,0.2-0.3c0-0.1,0-0.2,0-0.3C279.5,191.5,279.5,191.4,279.4,191.3z"/>
	<path id="XMLID_99_" class="st5" d="M280.2,185c-0.9,0-0.9,1.1,0,1.1C281.2,186.1,281.2,185,280.2,185z"/>
	<path id="XMLID_98_" class="st5" d="M272.9,185c-0.9,0-0.9,1.1,0,1.1C273.8,186.1,273.8,185,272.9,185z"/>
	<path id="XMLID_97_" class="st5" d="M271.4,180.4C271.3,180.4,271.3,180.5,271.4,180.4C271.5,180.5,271.5,180.4,271.4,180.4z"/>
	<path id="XMLID_96_" class="st5" d="M266.2,175.2c-0.2,0-0.2,0.3,0,0.3C266.4,175.4,266.4,175.2,266.2,175.2z"/>
	<path id="XMLID_95_" class="st5" d="M44.7,350.6c-0.8,0-0.8,1,0,1C45.6,351.7,45.6,350.6,44.7,350.6z"/>
	<path id="XMLID_94_" class="st5" d="M49.9,354.2c-0.5,0-0.6,0.7,0,0.7C50.5,354.9,50.5,354.2,49.9,354.2z"/>
	<path id="XMLID_93_" class="st5" d="M38.1,354.3c-1.4,0-1.4,1.6,0,1.6C39.5,355.9,39.5,354.3,38.1,354.3z"/>
	<path id="XMLID_92_" class="st5" d="M32.9,352.2c-0.1,0-0.1,0.1,0,0.1C33,352.3,33,352.2,32.9,352.2z"/>
	<path id="XMLID_91_" class="st5" d="M33.7,344.4c-0.9,0-0.9,1.1,0,1.1C34.6,345.4,34.6,344.4,33.7,344.4z"/>
	<path id="XMLID_90_" class="st5" d="M30.7,341.8c-0.5,0-0.5,0.6,0,0.6C31.2,342.4,31.2,341.8,30.7,341.8z"/>
	<path id="XMLID_89_" class="st5" d="M53.6,351.2c-0.9,0-0.9,1,0,1C54.5,352.2,54.5,351.2,53.6,351.2z"/>
	<path id="XMLID_88_" class="st5" d="M61.7,349.5c-0.9,0-0.9,1,0,1C62.6,350.5,62.6,349.5,61.7,349.5z"/>
	<path id="XMLID_87_" class="st5" d="M51.4,341.5c-0.9,0-0.9,1.1,0,1.1C52.3,342.6,52.3,341.5,51.4,341.5z"/>
	<path id="XMLID_86_" class="st5" d="M73.5,345.5c-1,0-1,1.2,0,1.2C74.5,346.6,74.5,345.5,73.5,345.5z"/>
	<path id="XMLID_85_" class="st5" d="M78.7,353.1c-2.4,0-2.4,2.9,0,2.9C81.1,356,81.1,353.1,78.7,353.1z"/>
	<path id="XMLID_84_" class="st5" d="M734.2,451.4c-1.2,0-1.2,1.5,0,1.5C735.5,452.8,735.5,451.4,734.2,451.4z"/>
	<path id="XMLID_83_" class="st5" d="M724.6,447c-0.9,0-0.9,1.1,0,1.1C725.6,448.1,725.6,447,724.6,447z"/>
	<path id="XMLID_82_" class="st5" d="M731.3,441.9c-0.9,0-0.9,1.1,0,1.1C732.2,443,732.2,441.9,731.3,441.9z"/>
	<path id="XMLID_81_" class="st5" d="M738.7,436.2C738.6,436.2,738.6,436.3,738.7,436.2C738.8,436.3,738.8,436.2,738.7,436.2z"/>
	<path id="XMLID_80_" class="st5" d="M729.8,431.7c-0.9,0-0.9,1,0,1C730.7,432.8,730.7,431.7,729.8,431.7z"/>
	<path id="XMLID_79_" class="st5" d="M734.4,444.6c0,0-0.1,0-0.1-0.1c-0.1,0-0.1,0-0.2,0c0,0-0.1,0-0.1,0c-0.1,0-0.1,0.1-0.2,0.1
		c-0.1,0-0.1,0.1-0.2,0.1l-0.1,0c0,0,0,0-0.1,0c-0.7,0-0.7,0.9,0,0.9c0.4,0,0.6-0.2,0.6-0.5c0,0,0,0,0.1-0.1c0.1,0,0.1-0.1,0.2-0.1
		c0,0,0.1-0.1,0.1-0.1c0,0,0-0.1,0.1-0.1c0,0,0-0.1,0-0.1C734.5,444.7,734.5,444.6,734.4,444.6z"/>
	<path id="XMLID_78_" class="st5" d="M726.9,441.3c-0.1,0-0.1,0.1,0,0.1C726.9,441.4,726.9,441.3,726.9,441.3z"/>
	<path id="XMLID_77_" class="st5" d="M737.6,443c0-0.1-0.1-0.3-0.3-0.3c-0.2,0-0.4,0.1-0.4,0.2c-0.1,0.3-0.2,0.6-0.3,0.9
		c0,0.1-0.1,0.1-0.1,0.2c0,0,0,0,0,0c0,0,0,0,0,0c0,0,0,0.1-0.1,0.1c0,0,0,0-0.1,0.1c-0.7,0.1-0.7,1,0.2,1c0.5,0,0.7-0.4,0.6-0.7
		c0.1-0.2,0.2-0.4,0.3-0.6C737.6,443.7,737.6,443.4,737.6,443z"/>
	<path id="XMLID_76_" class="st5" d="M726.1,441.5c-0.6,0-0.6,0.8,0,0.8C726.8,442.3,726.8,441.5,726.1,441.5z"/>
	<path id="XMLID_75_" class="st5" d="M746.8,428.3c-0.9,0-0.9,1.1,0,1.1C747.7,429.4,747.7,428.3,746.8,428.3z"/>
	<path id="XMLID_74_" class="st5" d="M736.5,417.6c-0.8,0-0.8,0.9,0,0.9C737.2,418.5,737.2,417.6,736.5,417.6z"/>
	<path id="XMLID_73_" class="st5" d="M773.4,414.1c-1,0-1,1.2,0,1.2C774.4,415.3,774.4,414.1,773.4,414.1z"/>
	<path id="XMLID_72_" class="st5" d="M779.3,433.9c-1.1,0-1.1,1.3,0,1.3C780.4,435.2,780.4,433.9,779.3,433.9z"/>
	<path id="XMLID_71_" class="st5" d="M484.7,49.3c-2.1,0-2.1,2.5,0,2.5C486.8,51.7,486.8,49.3,484.7,49.3z"/>
	<path id="XMLID_70_" class="st5" d="M470,48.3c-0.8,0-0.8,1,0,1C470.8,49.3,470.8,48.3,470,48.3z"/>
	<path id="XMLID_69_" class="st5" d="M477.3,34.6c-1,0-1,1.2,0,1.2C478.3,35.8,478.3,34.6,477.3,34.6z"/>
	<path id="XMLID_68_" class="st5" d="M468.5,30.7c-0.9,0-0.9,1.1,0,1.1C469.4,31.8,469.4,30.7,468.5,30.7z"/>
	<path id="XMLID_67_" class="st5" d="M471.4,26.2c-0.9,0-0.9,1.1,0,1.1C472.3,27.2,472.3,26.2,471.4,26.2z"/>
	<path id="XMLID_66_" class="st5" d="M478.8,19.4c-0.7,0-0.7,0.9,0,0.9C479.6,20.3,479.6,19.4,478.8,19.4z"/>
	<path id="XMLID_65_" class="st5" d="M537.1,34.1c-0.9,0-0.9,1.1,0,1.1C538.1,35.2,538.1,34.1,537.1,34.1z"/>
	<path id="XMLID_64_" class="st5" d="M569.6,44.7c-1.2,0-1.2,1.4,0,1.4C570.8,46.1,570.8,44.7,569.6,44.7z"/>
	<path id="XMLID_63_" class="st5" d="M563,42.3c-0.4,0-0.4,0.4,0,0.4C563.4,42.8,563.4,42.3,563,42.3z"/>
	<path id="XMLID_62_" class="st5" d="M571.8,35.8c-0.8,0-0.8,1,0,1C572.7,36.8,572.7,35.8,571.8,35.8z"/>
	<path id="XMLID_61_" class="st5" d="M562.2,29.5c-0.9,0-0.9,1.1,0,1.1C563.2,30.6,563.2,29.5,562.2,29.5z"/>
	<path id="XMLID_60_" class="st5" d="M571.8,24.4c-1,0-1,1.1,0,1.1C572.8,25.6,572.8,24.4,571.8,24.4z"/>
	<path id="XMLID_59_" class="st5" d="M574.1,21.6c-1,0-1,1.2,0,1.2C575,22.7,575,21.6,574.1,21.6z"/>
</g>
</svg>
