<?xml version="1.0" encoding="utf-8"?>
<!-- Generator: Adobe Illustrator 19.0.0, SVG Export Plug-In . SVG Version: 6.00 Build 0)  -->
<svg version="1.1" id="Слой_1" xmlns="http://www.w3.org/2000/svg" xmlns:xlink="http://www.w3.org/1999/xlink" x="0px" y="0px"
	 viewBox="0 0 971.3 500" style="enable-background:new 0 0 971.3 500;" xml:space="preserve">
<style type="text/css">
	.st0{fill:url(#XMLID_6_);}
	.st1{fill:url(#XMLID_7_);}
	.st2{fill:url(#XMLID_8_);}
	.st3{fill:url(#XMLID_9_);}
</style>
<linearGradient id="XMLID_6_" gradientUnits="userSpaceOnUse" x1="624.2574" y1="38.5384" x2="331.6999" y2="169.814">
	<stop  offset="0.2298" style="stop-color:#312D31"/>
	<stop  offset="1" style="stop-color:#1D5582"/>
</linearGradient>
<path id="XMLID_4_" class="st0" d="M628.4,91.3c-8,21.2-33.1,36.7-61.1,40.1c-25.6,3.2-60.1-9.8-78.1-23.1
	c-17.8-13.2-23.7-36.1-22.6-51.8s23.5-42.2,81.7-42.2s77.1,33.8,77.1,33.8C632,62.1,633.7,77.2,628.4,91.3z"/>
<linearGradient id="XMLID_7_" gradientUnits="userSpaceOnUse" x1="372.9564" y1="433.9537" x2="783.052" y2="-276.3527">
	<stop  offset="0.2298" style="stop-color:#312D31"/>
	<stop  offset="1" style="stop-color:#1D5582"/>
</linearGradient>
<path id="XMLID_3_" class="st1" d="M971.3,0v209.7c-15.4,0.9-35.5-28.4-58.8-51.8c-28.4-28.4-50.8,13-54.4,44.3
	c-3.5,31.3,9.5,62.2,23,91.8c8.8,19.4,18.1,39.7,14.4,60c-3.7,20.4-25.1,40.4-51.7,39.6c-31.1-1-50.3-27.6-79.8-35.2
	c-8.4-2.2-16.9-2.6-25.1-1.7c-28.9,3.2-55.4,23.2-68.6,44.8c-17,27.8-21.8,59.7-42.6,86c-3.5,4.4-7.7,8.6-12.6,12.5H-0.6V250.9
	c28.7,20,75.3,23.8,108.1,7.5c64.4-31.9,55.3-113.9,117.1-148.9c39.3-22.3,94.9-17.3,139.4-2.1c44.5,15.3,83.2,39.4,127.6,54.9
	c44.4,15.5,99.7,21.1,139.6-0.4c36.2-19.5,53.6-90.8,109.8-117.4S891.3,67.4,971.3,0L971.3,0z"/>
<linearGradient id="XMLID_8_" gradientUnits="userSpaceOnUse" x1="418.254" y1="507.9437" x2="298.3173" y2="195.4979">
	<stop  offset="0.2298" style="stop-color:#312D31"/>
	<stop  offset="1" style="stop-color:#1D5582"/>
</linearGradient>
<path id="XMLID_2_" class="st2" d="M739,356.7c-28.9,3.2-55.4,23.2-68.6,44.8c-17,27.8-21.8,59.7-42.6,86
	c-3.5,4.4-7.7,8.6-12.6,12.5H-0.6v-71.4c20.6-1.5,42.1-1.1,62.6-2.4c50.4-3.1,99.4-17.8,139.5-41.5c23.2-13.8,50.4-31.7,77.8-23.9
	c19.1,5.4,30.3,22.1,49.8,26.8c19.3,4.6,39.4-4.2,55.9-13.3c26.6-14.6,51.6-31,74.7-48.7c18.4-14.1,39-30.3,64.9-29.5
	c19.2,0.6,35.5,10.6,53.7,15.4c26.7,7,57.1,2.1,80.7-9.7c20.9-10.4,41.4-27.4,50.8-45.4c0.9-1.7,1.7-3.3,2.6-4.8
	c0.2-0.4,0.5-0.8,0.8-1.2c1-1.5,2.2-2.9,3.8-3.7h0c0.5-0.3,1-0.5,1.5-0.7c0.7-0.2,1.6-0.4,2.5-0.4h0c0.6,0,1.3,0,2.1,0.1
	c0.6,0.1,1.2,0.2,1.8,0.3c0.9,0.2,1.9,0.5,2.9,0.8c0.6,0.2,1.1,0.4,1.6,0.6c0.5,0.3,1.1,0.5,1.5,0.8c0.1,0.1,0.2,0.1,0.3,0.2
	c1.9,1.1,3.4,2.5,4.4,4.1l0,0c0.7,1,1.2,2.1,1.5,3.3c0,0.1,0.1,0.2,0.1,0.3c0.4,1.4,0.6,2.9,0.6,4.4c0,0.8,0,1.5-0.1,2.3
	c-0.3,3.5-1.4,7.1-2.5,10.1c-2.6,6.9-5.9,14.1-3.8,21.2c3,10.3,16.4,17,21.1,26.8C758.5,333,749.8,346.3,739,356.7z"/>
<linearGradient id="XMLID_9_" gradientUnits="userSpaceOnUse" x1="189.4453" y1="120.7193" x2="-85.1115" y2="230.358">
	<stop  offset="0.2298" style="stop-color:#312D31"/>
	<stop  offset="1" style="stop-color:#1D5582"/>
</linearGradient>
<path id="XMLID_1_" class="st3" d="M118.6,154.2c-4.7,4.5-10.8,8-15.8,12.3c-11.1,9.8-13.4,21.1-12,34.3c0.5,4.4,1,8.8-0.4,13
	c-2.8,8.1-13,13.4-23.7,14.9c-0.5,0.1-1,0.2-1.6,0.2c-20.5,2.6-44.4-2.8-61.7-12.7c-1.2-0.7-2.4-1.4-3.6-2.2v-72.3
	c9.8-8.6,22.2-15.4,36-19.9c23.2-7.5,79.9-12.8,88.9,15.9C126.7,143.8,123.4,149.7,118.6,154.2z"/>
</svg>
