<?xml version="1.0" encoding="utf-8"?>
<!-- Generator: Adobe Illustrator 19.0.0, SVG Export Plug-In . SVG Version: 6.00 Build 0)  -->
<svg version="1.1" id="BACKGROUND" xmlns="http://www.w3.org/2000/svg" xmlns:xlink="http://www.w3.org/1999/xlink" x="0px" y="0px"
	 viewBox="0 0 371 448" style="enable-background:new 0 0 371 448;" xml:space="preserve">
<style type="text/css">
	.st0{fill:#D6DBEF;}
	.st1{fill:#CD5CFF;}
	.st2{opacity:0.33;fill:#C5B0CE;}
	.st3{opacity:0.11;fill:#C5B0CE;}
	.st4{opacity:0.1;}
	.st5{fill:#C5B0CE;}
	.st6{opacity:0.33;}
	.st7{fill:#00D9FF;}
	.st8{opacity:0.21;}
	.st9{opacity:0.4;fill:#00003D;}
	.st10{fill:#FFFFFF;}
	.st11{fill:#541BFF;}
	.st12{opacity:0.15;}
	.st13{fill:#00003D;}
</style>
<g>
	<g>
		<g>
			<path class="st0" d="M257.4,189.3L231.7,176c-0.4-0.2-0.4-0.6-0.2-1.1l2.3-5.3c1.1-2.4,3.2-4.2,5.7-4.7c0,0,20.6-6.7,24.6-11.7
				l16.4-20.5l-21.3,51.8l-1.1,2.6L257.4,189.3z"/>
			<polygon class="st1" points="258.3,187.1 232.4,173 233.5,170.6 259.4,184.5 			"/>
			<path class="st2" d="M262.7,162.1c-1.4,2.7-2.6,5.3-3.8,8.1c-1.1,2.6-2.4,5.2-4.3,7.3c-2.8,3-6.7,4.4-10.8,4
				c-0.9-0.1-1.7-0.3-2.5-0.5l16.1,8.4l23.2-56.7l-9.7,12.1C268.7,150.7,265.7,156.4,262.7,162.1z"/>
		</g>
		<g>
			<path class="st0" d="M299.9,198.7l-2.3,5.3c-0.3,0.5-0.5,0.8-0.9,0.6l-27.1-10l1-2.2l1.2-2.5l24.1-50.6l-4.1,25.9
				c-1,6.3,7.9,26.1,7.9,26.1C300.8,193.6,300.9,196.3,299.9,198.7z"/>
			<polygon class="st1" points="299.4,199.7 298.3,202.2 270.5,192.5 271.7,190 			"/>
			<path class="st2" d="M300.5,194.1c-0.4,0.7-1,1.4-1.5,2c-2,2-4.6,2.8-7.3,2.7c-4.4-0.3-17.3-4.4-19-10.6l-3.1,6.5l27.1,10
				c0.4,0.2,0.7-0.1,0.9-0.6l2.3-5.3C300.5,197.2,300.7,195.6,300.5,194.1z"/>
		</g>
		<g>
			<path class="st0" d="M272.7,195.2l-17.8-7.9l21.2-47.8c3-6.9,7.2-13.1,12.5-18.6l2.5-2.6c1.3-1.4,3.6-1.8,5.5-0.9l0,0
				c1.9,0.9,3.2,2.8,3,4.7l-0.3,3.6c-0.5,7.6-2.3,14.9-5.4,21.7L272.7,195.2z"/>
			<path class="st3" d="M268.6,193.3l-9.6-4.3l15.8-35.7c2.3-5.1,5.2-9.9,8.6-14.2l1.6-2c0.9-1.1,2.2-1.5,3.2-1.1l0,0
				c1,0.5,1.6,1.7,1.4,3.1l-0.4,2.6c-0.9,5.4-2.5,10.8-4.8,15.9L268.6,193.3z"/>
			<path class="st1" d="M295.3,123.4c1.4,0.6,2.7,1.4,3.9,2.3c0,0,0-0.1,0-0.1l0.3-3.6c0.1-1.9-1.1-3.8-3-4.7l0,0
				c-1.9-0.9-4.2-0.5-5.5,0.9l-2.5,2.6c-0.1,0.1-0.2,0.2-0.3,0.3C290.6,121.6,293,122.4,295.3,123.4z"/>
			<path class="st2" d="M299,128.2c0,0.1,0,0.3-0.1,0.4c-1.1,6.2-3.1,12.1-5.7,17.9c-2.8,6.3-6.1,12.4-9.9,18.1
				c-3.4,5.2-15.3,17.5-23.5,11.3l-5,11.4l17.8,7.9l21.2-47.8C296.5,141.3,298.2,134.9,299,128.2z"/>
		</g>
		<g>
			<g>
				<polygon points="258.6,199.2 250.1,194.8 253.6,189.3 261.1,193.2 				"/>
				<polygon class="st0" points="260.8,197.8 250,192.2 258.5,177.2 268.1,182.1 				"/>
				<path class="st2" d="M266.7,181.4c0.6,0.3-1.6,4.1-1.9,4.6c-1.9,3.4-5.5,8.2-10.1,6.9c-1.5-0.4-2.8-1.2-4.1-1.9l-0.7,1.2
					l10.8,5.6l7.3-15.7C268.1,182.1,266.7,181.4,266.7,181.4z"/>
			</g>
			<g>
				<polygon points="261.3,200.4 270.3,203.7 272,197.5 264.1,194.5 				"/>
				<polygon class="st0" points="260.9,197.9 272.3,202.1 277.6,185.6 267.6,181.9 				"/>
				<path class="st2" d="M277.6,185.6l-0.5-0.2c-0.8,4.4-2.5,8.7-6.7,11c-1.9,1-3.9,1.4-6,1c-1.1-0.2-2-0.6-2.8-1.3l-0.7,1.7
					l11.4,4.3L277.6,185.6z"/>
			</g>
		</g>
		<path d="M295.7,131.9c0.2-0.4,0.2-0.8,0.2-1.2c-0.1-0.8-0.5-1.5-1-2.1c-0.6-0.7-1.4-1.3-2.3-1.6c-0.8-0.4-1.8-0.7-2.7-0.6
			c-1,0.1-2.1,0.4-2.8,1.1c-0.3,0.3-0.6,0.9-0.4,1.4c0.2,0.5,0.7,0.7,1.2,0.8c0.3,0.1,1.6,0.6,3,1.2c1.4,0.7,2.6,1.3,2.9,1.5
			c0.4,0.2,0.9,0.5,1.4,0.3C295.4,132.4,295.6,132.2,295.7,131.9z"/>
	</g>
	<g class="st4">
		<path class="st5" d="M251.9,203.8c-1.6,3.8-3.4,7.4-4.6,10.3c-4.6,10.8-10.3,21.3-16.7,31.4c-7.7,12-16.6,23.5-26.6,34.2
			c-3.6,2.8-7.3,5.3-11.2,7.7c-4.4,2.6-9.1,4.9-14,6.1c-5.6,1.4-11.4,1.5-17,1.6c-11.1,0.4-22.2,0.5-33.4,3.4
			c-9.4,2.5-18.4,6.6-26.7,12c-8.2,5.4-15.6,11.9-21.9,19.1c-3.5,4-6.7,8.3-9.7,12.5c-3.5,4.8-6.8,9.7-10,14.6
			c-6.5,10.1-12.5,20.4-17.7,31c-2.8,5.7-5.4,11.4-7.7,17.3c-3.1,6.5-5.8,13.1-8.2,19.7C22,437.3,16.2,441,16.2,441
			c0.9-5.6,2-11.3,3.4-16.9c7.2-29.6,20.6-58.9,38-86.1c8.9-13.9,19-27.5,32.1-38.4c13.1-10.9,29.5-19,45.8-19.9
			c13.4-0.7,26.5,3.4,39.9,1.9c11.4-1.2,21.5-6.6,29.9-14.2c4.5-4.2,8.9-8.6,13-13.2c8.4-9.6,15.4-20.3,22.1-31.2
			c3.3-5.4,6.5-10.9,9.9-16.3C250.7,205.8,251.3,204.8,251.9,203.8z"/>
		<path class="st5" d="M263.4,207.2c-1.6,4.3-3.4,8.4-4.7,11.7c-4.7,12.2-10.5,24.3-17.3,36.2c-8,14.2-17.5,28-28.1,41.3
			c-3.9,3.6-7.9,7.1-12.1,10.4c-4.8,3.7-10,7.1-15.4,9.4c-6.2,2.7-12.7,4.1-18.9,5.5c-12.4,2.9-24.8,5.5-37.2,11.1
			c-10.4,4.7-20.3,11-29.2,18.5c-8.9,7.4-16.9,15.9-23.6,24.7c-3.8,4.9-7.1,10-10.3,15.1c-3.6,5.8-7.2,11.5-10.5,17.4
			c-2.9,5-5.7,10.8-8.2,15c-5.6,9.4-20,17.4-20,17.4c2.7-6.8,5.6-13.6,8.7-20.4c4.8-10.3,10.1-20.6,15.9-30.8
			c9.3-16.3,20-32.7,34.1-46.9c14.1-14.2,32-26.3,50.2-30.9c14.9-3.8,29.8-2.6,44.7-7.1c12.6-3.8,23.7-11.7,32.7-21.5
			c4.9-5.3,9.6-10.9,13.9-16.6c9-11.8,16.3-24.5,23.2-37.2c3.4-6.3,6.8-12.7,10.3-19C262.1,209.5,262.7,208.4,263.4,207.2z"/>
	</g>
</g>
<g>
	<circle class="st1" cx="284.6" cy="24.7" r="20.9"/>
	<g class="st6">
		<g>
			<path class="st5" d="M288.5,45.2c0.8-0.8,1.3-1.8,1.3-2.9c0-1.8-0.5-3.5-0.3-5.3c0.2-1.5,0.7-3,1.6-4.2c2.4-3.1,6.3-3.4,9.9-3.6
				c1.5-0.1,2.9-0.5,4.2-1.2c0.2-1.1,0.3-2.2,0.3-3.4c0-2.9-0.6-5.6-1.6-8c-0.9,3.8-2.6,7.9-6.3,9.5c-1.2,0.5-2.6,0.8-3.9,0.7
				c-1.3-0.1-2.4-0.5-3.7-0.7c-2.2-0.2-3.4,2.5-4.1,4.2c-1.8,3.9-2.8,8.3-5.6,11.6c-0.9,1.1-1.9,1.8-3,2.2c2.3,0.8,4.7,1.3,7.3,1.3
				C286,45.6,287.2,45.4,288.5,45.2z"/>
			<path class="st5" d="M276.2,42.1c0.5-0.2,1-0.5,1.5-0.8c1-1,1.7-2.3,2.3-3.5c1.7-3.6,2.4-7.5,4.5-10.9c0.2-0.9,0.3-1.9,0.5-2.8
				c0.7-3.3,2.7-7.2,6.8-6.1c1.1,0.3,2.4-0.4,3.2-1.4c1.3-1.5,2.5-3.1,3.1-5.1c0.3-0.8,0.4-1.7,0.5-2.5c-2.4-2.1-5.2-3.7-8.4-4.5
				c0,0.2,0,0.4-0.1,0.6c-0.5,2.5-1.5,4.9-3.1,6.8c-1.6,1.9-3.9,2.9-5.8,4.4c-1.5,1.2-2,2.6-2.1,4.5c-0.1,2.8,0.3,5.5,0.2,8.3
				c-0.1,2.6-0.7,5.3-2.5,7.3c-1.7,1.9-4.3,3-6.9,2.8c1.4,1.4,2.9,2.6,4.7,3.6c0.5,0,1.1-0.1,1.6-0.3
				C275.9,42.4,276,42.2,276.2,42.1z"/>
			<path class="st5" d="M271.5,35.1c0.3-0.3,0.8-1.2,1.1-1.7c0.4-0.9,0.6-2,0.8-3c0.6-3.3,0.5-6.9,0.7-10.4c0.2-4,2.3-7.3,5.1-10.1
				c2.1-2.1,4.4-4,6.6-6.1c-0.3,0-0.7,0-1,0c-2,0-3.9,0.3-5.7,0.8c-0.1,0.1-0.3,0.3-0.5,0.3c-3.6,1-6.7,2.8-8.2,6.3
				c-1.3,2.9-1.4,6.3-0.9,9.4c0.4,2.2,0.3,4.3-0.1,6.5c-0.3,2-0.7,4.7-2.3,6.2c-0.3,0.3-0.6,0.5-1,0.6c0.4,0.7,0.8,1.4,1.2,2.1
				C268.8,36.2,270.3,36.4,271.5,35.1z"/>
		</g>
	</g>
</g>
<g>
	<circle class="st7" cx="356" cy="79.6" r="11.6"/>
	<g class="st8">
		<path class="st9" d="M346.8,77.1c2.5-1.5,4.2-4,6-6.2c0.9-1.1,1.9-2,3-2.9c-5.8,0.1-10.5,4.4-11.3,10
			C345.3,77.8,346.1,77.5,346.8,77.1z"/>
		<path class="st9" d="M347.4,82.4c1.3,0.4,2.5-0.2,3.5-1c2.1-1.5,3.8-3.6,5.8-5.2c0.5-0.4,1-0.7,1.5-0.8c0.7-0.2,1.3,0,2-0.2
			c1.2-0.4,2.3-1.4,3.2-2.3c0.4-0.4,0.8-0.8,1.1-1.2c-0.7-0.8-1.6-1.5-2.5-2.1c-0.8,0.3-1.6,0.6-2.4,1c-3,1.6-4.6,4.5-7.1,6.7
			c-2.2,2-5,3.8-8,3.8c0,0.1,0.1,0.3,0.1,0.4C345.6,81.7,346.4,82.1,347.4,82.4z"/>
		<path class="st9" d="M354.4,86.2c1.1,0,1.9,0.8,2.9,0.9c1.3,0.1,2.5-1.6,3.2-2.5c1.1-1.3,2.1-2.6,3.5-3.6c1.2-0.8,2.4-1.4,3.5-2.3
			c-0.1-0.7-0.2-1.5-0.4-2.2c-0.7,0.8-1.4,1.4-2.1,1.9c-1.4,1.1-3,1.5-4.7,2c-1.8,0.5-3.2,1.8-4.7,2.9c-2.2,1.7-4.4,3-7.3,3.1
			c-0.6,0-1.3,0-1.9-0.2c0.3,0.4,0.6,0.8,1,1.2C349.5,88.8,352.1,86.1,354.4,86.2z"/>
		<path class="st7" d="M363.8,88c-1.9,1.2-4,2.1-6.3,2.3c-1.2,0.1-2.4-0.1-3.6-0.2c-1-0.1-2-0.1-3-0.1c1.5,0.8,3.2,1.2,5.1,1.2
			c3.4,0,6.4-1.4,8.5-3.7C364.3,87.6,364,87.8,363.8,88z"/>
	</g>
</g>
<g>
	<circle class="st10" cx="314.1" cy="22.1" r="2.1"/>
	<g class="st8">
		<path class="st9" d="M312.6,21.2c0.5-0.1,0.9-0.5,1.4-0.8c0.2-0.1,0.4-0.3,0.7-0.3c-1-0.3-2.1,0.2-2.5,1.2
			C312.3,21.3,312.5,21.3,312.6,21.2z"/>
		<path class="st9" d="M312.4,22.2c0.2,0.1,0.4,0.1,0.7,0c0.5-0.2,0.9-0.4,1.3-0.6c0.1,0,0.2-0.1,0.3-0.1c0.1,0,0.2,0.1,0.4,0.1
			c0.2,0,0.5-0.1,0.7-0.2c0.1,0,0.2-0.1,0.3-0.1c-0.1-0.2-0.2-0.4-0.3-0.5c-0.2,0-0.3,0-0.5,0c-0.6,0.1-1.1,0.5-1.6,0.8
			c-0.5,0.2-1.1,0.4-1.6,0.2c0,0,0,0.1,0,0.1C312.1,21.9,312.3,22.1,312.4,22.2z"/>
		<path class="st9" d="M313.5,23.2c0.2,0.1,0.3,0.2,0.5,0.3c0.2,0.1,0.5-0.2,0.7-0.3c0.3-0.2,0.5-0.3,0.8-0.4
			c0.2-0.1,0.5-0.1,0.7-0.2c0-0.1,0-0.3,0.1-0.4c-0.2,0.1-0.3,0.2-0.5,0.2c-0.3,0.1-0.6,0.1-0.9,0.1c-0.3,0-0.7,0.1-1,0.3
			c-0.5,0.2-0.9,0.3-1.4,0.1c-0.1,0-0.2-0.1-0.3-0.1c0,0.1,0.1,0.2,0.1,0.3C312.5,23.4,313.1,23.1,313.5,23.2z"/>
		<path class="st7" d="M315,24c-0.4,0.1-0.8,0.2-1.2,0.1c-0.2,0-0.4-0.1-0.6-0.2c-0.2-0.1-0.3-0.1-0.5-0.2c0.2,0.2,0.5,0.4,0.8,0.5
			c0.6,0.2,1.2,0.1,1.7-0.2C315.1,24,315,24,315,24z"/>
	</g>
</g>
<g>
	<circle class="st10" cx="313.2" cy="10.2" r="3"/>
	<g class="st8">
		<path class="st9" d="M315.6,10.6c-0.4-0.6-0.6-1.4-0.8-2.1c-0.1-0.4-0.2-0.7-0.4-1c1.4,0.7,2,2.2,1.6,3.6
			C315.9,11,315.7,10.8,315.6,10.6z"/>
		<path class="st9" d="M314.9,11.8c-0.4,0-0.6-0.3-0.7-0.6c-0.3-0.6-0.5-1.3-0.8-1.9c-0.1-0.1-0.2-0.3-0.3-0.4
			c-0.1-0.1-0.3-0.1-0.4-0.3c-0.2-0.2-0.4-0.6-0.5-0.9c-0.1-0.1-0.1-0.3-0.1-0.4c0.3-0.1,0.5-0.2,0.8-0.2c0.2,0.2,0.3,0.3,0.5,0.5
			c0.5,0.7,0.6,1.6,1,2.4c0.3,0.7,0.8,1.5,1.5,1.8c0,0,0,0.1-0.1,0.1C315.4,11.9,315.2,11.9,314.9,11.8z"/>
		<path class="st9" d="M312.8,12c-0.3-0.1-0.5,0-0.8-0.1c-0.3-0.1-0.4-0.7-0.5-0.9c-0.1-0.4-0.2-0.9-0.4-1.2
			c-0.2-0.3-0.4-0.6-0.6-0.9c0.1-0.2,0.2-0.3,0.3-0.5c0.1,0.3,0.2,0.5,0.3,0.7c0.2,0.4,0.5,0.7,0.9,1c0.4,0.3,0.6,0.8,0.8,1.2
			c0.3,0.7,0.7,1.2,1.4,1.5c0.1,0.1,0.3,0.1,0.5,0.2c-0.1,0.1-0.2,0.1-0.4,0.2C313.7,13.1,313.4,12.2,312.8,12z"/>
		<path class="st7" d="M310.4,11.4c0.3,0.5,0.7,0.9,1.2,1.2c0.3,0.2,0.6,0.2,0.9,0.3c0.3,0.1,0.5,0.2,0.7,0.3
			c-0.4,0-0.9-0.1-1.3-0.3c-0.8-0.4-1.4-1-1.6-1.8C310.3,11.2,310.3,11.3,310.4,11.4z"/>
	</g>
</g>
<g>
	<circle class="st11" cx="339.3" cy="270.6" r="15.1"/>
	<g class="st12">
		<path class="st13" d="M328.6,276.9c0.8-3.7,0.1-7.5-0.3-11.3c-0.2-1.8-0.2-3.6,0-5.4c-5.2,5.5-5.4,13.9-0.9,19.7
			C328,279,328.4,278,328.6,276.9z"/>
		<path class="st13" d="M334.1,281.3c1.6-0.9,2.1-2.5,2.3-4.2c0.5-3.4,0.1-6.8,0.5-10.2c0.1-0.8,0.2-1.5,0.6-2.2
			c0.4-0.8,1.2-1.2,1.6-2c0.7-1.5,0.7-3.4,0.8-5c0-0.7,0-1.4,0-2.1c-1.4,0-2.9,0.1-4.3,0.5c-0.5,1-0.9,2-1.2,3.1
			c-1.3,4.2,0,8.5-0.1,12.8c-0.2,3.9-1,8.1-3.7,11c0.2,0.1,0.3,0.2,0.5,0.3C331.8,282.3,332.9,281.9,334.1,281.3z"/>
		<path class="st13" d="M344,278.1c1-1,2.5-1.1,3.5-2c1.3-1.1,0.7-3.8,0.6-5.2c-0.2-2.2-0.5-4.4-0.1-6.5c0.3-1.8,0.8-3.5,1-5.4
			c-0.7-0.6-1.5-1.2-2.3-1.6c0.1,1.3,0,2.6-0.1,3.7c-0.3,2.3-1.3,4.2-2.4,6.2c-1.2,2.1-1.2,4.7-1.5,7c-0.4,3.6-1.2,6.9-3.7,9.6
			c-0.5,0.6-1.2,1.2-1.9,1.7c0.7,0.1,1.3,0.2,2,0.2C342,285.1,341.8,280.2,344,278.1z"/>
		<path class="st13" d="M354.2,271c-0.6,2.9-1.6,5.7-3.5,8c-1,1.2-2.2,2.2-3.4,3.1c-1,0.8-1.9,1.8-2.8,2.7c2.1-0.7,4.1-2,5.7-3.7
			c3-3.1,4.4-7.3,4.2-11.3C354.3,270.2,354.2,270.6,354.2,271z"/>
	</g>
</g>
</svg>
