<?xml version="1.0" encoding="utf-8"?>
<!-- Generator: Adobe Illustrator 19.0.0, SVG Export Plug-In . SVG Version: 6.00 Build 0)  -->
<svg version="1.1" id="BACKGROUND" xmlns="http://www.w3.org/2000/svg" xmlns:xlink="http://www.w3.org/1999/xlink" x="0px" y="0px"
	 viewBox="0 0 322 248" style="enable-background:new 0 0 322 248;" xml:space="preserve">
<style type="text/css">
	.st0{fill:#0091F1;}
	.st1{opacity:0.33;}
	.st2{fill:#541BFF;}
	.st3{opacity:0.15;}
	.st4{fill:#00003D;}
	.st5{fill:#8178FF;}
	.st6{opacity:0.19;}
	.st7{fill:#CD5CFF;}
	.st8{opacity:0.31;fill:#C5B0CE;}
	.st9{fill:#FFFFFF;}
</style>
<g>
	<circle class="st0" cx="252.9" cy="29.8" r="20.9"/>
	<g class="st1">
		<g>
			<path class="st0" d="M251.9,50.7c-0.9-0.7-1.5-1.6-1.7-2.7c-0.3-1.8,0-3.5-0.4-5.3c-0.4-1.5-1.1-2.9-2.2-4
				c-2.8-2.7-6.7-2.5-10.3-2.2c-1.5,0.1-3-0.1-4.3-0.6c-0.3-1.1-0.6-2.2-0.8-3.3c-0.4-2.8-0.2-5.6,0.5-8.2c1.4,3.7,3.7,7.4,7.6,8.6
				c1.3,0.4,2.6,0.5,3.9,0.2c1.2-0.3,2.3-0.9,3.5-1.2c2.1-0.5,3.7,2.1,4.7,3.6c2.3,3.6,3.9,7.8,7.1,10.8c1,0.9,2.1,1.5,3.2,1.8
				c-2.1,1.1-4.5,1.9-7,2.3C254.4,50.7,253.1,50.7,251.9,50.7z"/>
			<path class="st0" d="M263.7,45.9c-0.6-0.1-1.1-0.3-1.6-0.6c-1.1-0.8-2-2-2.7-3.2c-2.1-3.3-3.4-7.1-5.9-10.2
				c-0.3-0.9-0.6-1.8-0.9-2.7c-1.2-3.1-3.7-6.8-7.5-5.1c-1.1,0.5-2.4-0.1-3.4-0.9c-1.5-1.3-2.9-2.8-3.8-4.6
				c-0.4-0.8-0.6-1.6-0.8-2.4c2.1-2.4,4.7-4.4,7.7-5.6c0.1,0.2,0.1,0.4,0.2,0.6c0.8,2.4,2.1,4.6,4,6.3c1.9,1.7,4.3,2.3,6.4,3.6
				c1.6,1,2.4,2.3,2.7,4.2c0.5,2.7,0.4,5.5,1,8.2c0.5,2.6,1.5,5.1,3.5,6.9c2,1.7,4.7,2.4,7.2,1.8c-1.2,1.6-2.6,3-4.1,4.2
				c-0.5,0-1.1,0-1.6-0.1C264,46.1,263.9,46,263.7,45.9z"/>
			<path class="st0" d="M267.4,38.4c-0.3-0.3-1-1-1.3-1.5c-0.5-0.9-0.9-1.9-1.2-2.8c-1.1-3.2-1.5-6.8-2.1-10.2
				c-0.7-4-3.3-6.9-6.4-9.3c-2.4-1.8-4.9-3.3-7.4-5.1c0.3-0.1,0.7-0.1,1-0.2c2-0.3,3.9-0.2,5.8,0c0.1,0.1,0.3,0.2,0.5,0.3
				c3.7,0.5,7,1.8,9,5.1c1.6,2.7,2.3,6,2.2,9.2c0,2.2,0.3,4.3,1,6.5c0.6,2,1.4,4.5,3.1,5.8c0.3,0.2,0.7,0.4,1,0.5
				c-0.3,0.8-0.6,1.5-0.9,2.3C270.1,39,268.7,39.4,267.4,38.4z"/>
		</g>
	</g>
</g>
<g>
	<circle class="st2" cx="146" cy="47" r="11.6"/>
	<g class="st3">
		<path class="st4" d="M155.1,44.5c-2.5-1.5-4.2-4-6-6.2c-0.9-1.1-1.9-2-3-2.9c5.8,0.1,10.5,4.4,11.3,10
			C156.6,45.3,155.9,44.9,155.1,44.5z"/>
		<path class="st4" d="M154.6,49.8c-1.3,0.4-2.5-0.2-3.5-1c-2.1-1.5-3.8-3.6-5.8-5.2c-0.5-0.4-1-0.7-1.5-0.8c-0.7-0.2-1.3,0-2-0.2
			c-1.2-0.4-2.3-1.4-3.2-2.3c-0.4-0.4-0.8-0.8-1.1-1.2c0.7-0.8,1.6-1.5,2.5-2.1c0.8,0.3,1.6,0.6,2.4,1c3,1.6,4.6,4.5,7.1,6.7
			c2.2,2,5,3.8,8,3.8c0,0.1-0.1,0.3-0.1,0.4C156.4,49.1,155.6,49.5,154.6,49.8z"/>
		<path class="st4" d="M147.6,53.6c-1.1,0-1.9,0.8-2.9,0.9c-1.3,0.1-2.5-1.6-3.2-2.5c-1.1-1.3-2.1-2.6-3.5-3.6
			c-1.2-0.8-2.4-1.4-3.5-2.3c0.1-0.7,0.2-1.5,0.4-2.2c0.7,0.8,1.4,1.4,2.1,1.9c1.4,1.1,3,1.5,4.7,2c1.8,0.5,3.2,1.8,4.7,2.9
			c2.2,1.7,4.4,3,7.3,3.1c0.6,0,1.3,0,1.9-0.2c-0.3,0.4-0.6,0.8-1,1.2C152.4,56.2,149.9,53.5,147.6,53.6z"/>
		<path class="st4" d="M138.2,55.4c1.9,1.2,4,2.1,6.3,2.3c1.2,0.1,2.4-0.1,3.6-0.2c1-0.1,2-0.1,3-0.1c-1.5,0.8-3.2,1.2-5.1,1.2
			c-3.4,0-6.4-1.4-8.5-3.7C137.7,55,138,55.2,138.2,55.4z"/>
	</g>
</g>
<g>
	<path class="st5" d="M316.4,202c0,19.3-15.7,35-35,35c-9.1,0-17.3-3.5-23.6-9.1c-2.8-2.5-5.2-5.5-7-8.8c-0.3-0.6-0.6-1.2-0.9-1.8
		c-1.3-2.7-2.3-5.6-2.9-8.6c-0.4-2.2-0.7-4.4-0.7-6.8c0-2.4,0.2-4.8,0.7-7c0.3-1.7,0.8-3.3,1.4-4.9c4.9-13.4,17.8-23.1,32.9-23.1
		c2.2,0,4.3,0.2,6.4,0.6c1,0.2,2,0.4,3,0.7c3.1,0.9,6,2.1,8.7,3.7c0.6,0.4,1.2,0.8,1.8,1.2c3.4,2.3,6.4,5.3,8.7,8.6
		c2.5,3.5,4.3,7.5,5.4,11.8C316.1,196.3,316.4,199.1,316.4,202z"/>
	<g class="st6">
		<path class="st0" d="M290.8,168.2c-5.3,6.3-10.8,12.4-17.5,17.1c-4.6,3.3-9.7,5.8-14.7,8.3c-2.7,1.4-5.7,2.8-8.7,2.2
			c-1-0.2-1.9-0.6-2.8-0.9c0.3-1.7,0.8-3.3,1.4-4.9c0.2,0,0.4,0,0.6-0.1c8.8-1.2,16.8-6,24-11.3c4.9-3.6,9.7-7.6,14.8-11.1
			C288.8,167.7,289.8,168,290.8,168.2z"/>
		<path class="st0" d="M301.3,173.1c-1.9,3.1-3.9,6.2-5.2,9.6c-2.9,7-3.3,15.5-8.8,20.7c-3,2.8-7,4.1-10.9,5.4
			c-4.6,1.5-9.3,3-13.9,4.5c-4.2,1.3-8.4,2.7-12.5,4c-1.3-2.7-2.3-5.6-2.9-8.6c4-0.9,7.7-2.5,11.1-4.7c2.5-1.7,5.5-3.7,8.2-2.4
			c1.2,0.6,2,1.8,3.2,2.4c2.1,1,4.5,0,6.5-1.2c7.5-4.8,12.3-12.7,17-20.3c2.2-3.5,4.3-7.1,6.5-10.6
			C300.1,172.3,300.7,172.7,301.3,173.1z"/>
		<path class="st0" d="M315.4,193.6c-1.8,4.9-4.3,9.5-7,13.9c-0.7,1.1-1.5,2.3-2.8,2.7c-1.3,0.4-2.9-0.8-2.5-2
			c-3.9,8.8-11.1,16.2-19.9,20.3c-3.5,1.7-7.4,2.8-11.3,2.3c-3-0.4-5.8-1.8-8.8-2.4c-1.7-0.4-3.5-0.5-5.3-0.5
			c-2.8-2.5-5.2-5.5-7-8.8c1.8,0.2,3.6,0.2,5.4,0.1c2.2-0.2,4.5-0.5,6.7,0.1c2.3,0.7,4.1,2.6,6.3,3.7c4.3,2.1,9.6,0.6,13.7-1.9
			c7.6-4.4,13.2-12,15.4-20.5c0.8-3.3,1.2-7,3.5-9.6c0.1,2.3,3,3.7,5.1,2.9c2.1-0.8,3.4-3.1,3.7-5.4c0.3-2.2-0.2-4.5-0.5-6.7
			C312.5,185.3,314.4,189.3,315.4,193.6z"/>
	</g>
</g>
<g>
	<g>
		<circle class="st7" cx="81.9" cy="120.7" r="38.1"/>
		<g>
			<path class="st8" d="M88.5,158.2c3.9-2.7,7.2-6.4,9.9-10.3c2.2-3.2,4-6.6,5.3-10.2c1.4-3.9,2-7.7,1.8-11.8
				c-0.1-3.4-0.9-7.4,0.6-10.6c1.1-2.3,3.2-3.8,4.3-6.1c2-4.3,1.3-9.4-0.4-13.9c-3.1-3.4-6.7-6.2-10.6-8.3c1.9,4.6,2.7,9.6,2.7,14.7
				c0,1.6-0.1,3.5-1,4.9c-1.1,1.7-2.9,1.3-4.5,2c-1.7,0.7-2.4,2.9-2.7,4.6c-0.4,1.8-0.6,3.8-0.6,5.6c0,5,1.1,10,0.3,15
				c-0.8,4.8-2.9,9.4-5.3,13.6c-2.4,4-5.3,7.7-8.5,11.1c-0.1,0.1-0.2,0.2-0.3,0.3C82.5,158.9,85.5,158.7,88.5,158.2z"/>
			<path class="st8" d="M58.8,93.2c-2.4,1-4.6,2.3-6.7,3.8c-1.9,2.3-3.4,4.9-4.7,7.6c3.6-3.5,7.9-6.2,13-7.3c3-0.6,6.5-0.6,9.2,1.1
				c2.2,1.5,3.4,4,3.4,6.6c-0.1,3.2-1.8,6.2-3.9,8.4c-1.4,1.5-3.3,2.8-3.9,4.9c-0.6,2.2,0.3,4.5,0.9,6.6c2.3,8.2-0.8,18.4-7.9,23.3
				c-0.4,0.3-0.9,0.6-1.3,0.8c0.2,0.2,0.4,0.4,0.6,0.5c6.5-0.2,12.1-4.2,16.4-9.3c4.9-5.9,8.2-13.3,9.8-20.7
				c1.5-7.1,1.4-14.5-2.7-20.8c-2.1-3.2-5.1-5.8-8.8-6.9C67.6,90.7,63,91.5,58.8,93.2z"/>
		</g>
	</g>
	<path class="st9" d="M116.2,97.4c16.6-3.7,31.7-5.2,33-1.8c2.2,5.8-25.1,23.7-62.1,37.8c-37,14.1-69.8,19.1-72,13.3
		c-1.3-3.3,10.9-10.1,25-18.2c-19,10-34.4,19-32.7,23.6c2.8,7.4,39.7,4.9,81.4-11.1c41.7-15.9,72.6-39.2,69.7-46.6
		C156.7,89.7,137.8,91.9,116.2,97.4z"/>
</g>
</svg>
