<?xml version="1.0" encoding="utf-8"?>
<!-- Generator: Adobe Illustrator 19.0.0, SVG Export Plug-In . SVG Version: 6.00 Build 0)  -->
<svg version="1.1" id="Слой_1" xmlns="http://www.w3.org/2000/svg" xmlns:xlink="http://www.w3.org/1999/xlink" x="0px" y="0px"
	 viewBox="0 0 73.7 93.5" style="enable-background:new 0 0 73.7 93.5;" xml:space="preserve">
<style type="text/css">
	.st0{fill:#FDC509;}
	.st1{fill:#FFD23E;}
	.st2{fill:none;stroke:#FFFFFF;stroke-width:2;stroke-linecap:round;stroke-miterlimit:10;}
	.st3{fill:#89CDD0;}
	.st4{fill:none;stroke:#BEE2E4;stroke-width:7.2818;stroke-linecap:round;stroke-miterlimit:10;}
	.st5{fill:none;stroke:#A3D7DA;stroke-width:7.2818;stroke-linecap:round;stroke-miterlimit:10;}
</style>
<g id="XMLID_107_">
	<circle id="XMLID_379_" class="st0" cx="36.9" cy="34.6" r="24.9"/>
	
		<ellipse id="XMLID_378_" transform="matrix(0.6891 -0.7247 0.7247 0.6891 -4.5673 40.227)" class="st1" cx="44.6" cy="25.4" rx="9.5" ry="13.7"/>
	<path id="XMLID_108_" class="st0" d="M43.3,66.7h-13c-2.8,0-5-2.1-5.3-4.9l-0.9-10.2h25.2l-0.9,10.2C48.4,64.6,46.1,66.7,43.3,66.7
		z"/>
	<line id="XMLID_109_" class="st2" x1="36.9" y1="66.7" x2="27.6" y2="37.1"/>
	<line id="XMLID_375_" class="st2" x1="37.3" y1="66.7" x2="46.6" y2="37.1"/>
	<circle id="XMLID_374_" class="st3" cx="36.9" cy="78.8" r="5"/>
	<line id="XMLID_110_" class="st4" x1="29.6" y1="69.7" x2="44.1" y2="69.7"/>
	<line id="XMLID_111_" class="st4" x1="31.6" y1="75.8" x2="42.1" y2="75.8"/>
	<line id="XMLID_112_" class="st5" x1="31.6" y1="75.8" x2="32.7" y2="75.8"/>
	<line id="XMLID_113_" class="st5" x1="29.6" y1="69.7" x2="34.7" y2="69.7"/>
</g>
</svg>
